<?xml version="1.0" encoding="utf-8"?>
<!-- Generator: Adobe Illustrator 19.0.0, SVG Export Plug-In . SVG Version: 6.00 Build 0)  -->
<svg version="1.1" id="圖層_1" xmlns="http://www.w3.org/2000/svg" xmlns:xlink="http://www.w3.org/1999/xlink" x="0px" y="0px"
	 viewBox="0 0 1369.4 700.5" style="enable-background:new 0 0 1369.4 700.5;" xml:space="preserve">
<style type="text/css">
	.st0{fill:#FFFFFF;}
</style>
<g id="XMLID_281_">
	<path id="XMLID_282_" d="M619.4,656.7c-0.2,0-0.3-0.3-0.3-0.6c0-0.3,0.1-0.6,0.3-0.6h2c1.2,0,1.5-0.4,1.6-1.6
		c0.1-2.1,0.1-3.9,0.1-5.4V644v-2.3v-4.6c0-1.5-0.1-3.2-0.1-5.3c0-1.2-0.4-1.6-1.6-1.6h-2c-0.2,0-0.3-0.3-0.3-0.6
		c0-0.3,0.1-0.6,0.3-0.6h7.6c0.4,0,0.6,0.3,0.6,0.6c0,4-0.1,8.2-0.1,12.1v2.3c0,1.6,0,3.1,0,4.6c0,1.5,0,3.3,0.1,5.4
		c0,1.2,0.4,1.6,1.6,1.6h2.4c0.2,0,0.3,0.3,0.3,0.6c0,0.3-0.1,0.6-0.3,0.6H619.4z M631.6,643.9h-1.9c-0.2,0-0.3-0.3-0.3-0.6
		c0-0.3,0.1-0.6,0.3-0.6h2c3.9,0,5.3-2.6,5.3-6.5c0-4-1.7-6-5.9-6h-1.4c-0.2,0-0.3-0.3-0.3-0.6c0-0.3,0.1-0.6,0.3-0.6h1.3
		c6.6,0,10.4,2.2,10.4,7.2C641.4,640.8,638.3,643.9,631.6,643.9z"/>
	<path id="XMLID_285_" d="M647.1,640c1-0.3,1.7-0.5,2.1-0.6c0.5-0.2,1-0.4,1.3-0.4s0.4,0.1,0.4,0.6s-0.1,1.6-0.1,4.9v9.9
		c0,0.8,0.1,1.2,1,1.2h2.4c0.2,0,0.3,0.2,0.3,0.5s-0.1,0.5-0.3,0.5h-10.1c-0.2,0-0.3-0.2-0.3-0.5s0.1-0.5,0.3-0.5h1.9
		c0.9,0,1-0.5,1-1.2v-12.1c0-0.6-0.1-0.9-0.6-0.9c-0.3,0-2.1,0.3-2.2,0.4c-0.1,0-0.2-0.3-0.2-0.5c0-0.2,0-0.4,0.1-0.5
		C645,640.5,646,640.3,647.1,640z M652.4,642.3c-0.3,0-0.6-0.3-0.6-0.6c1.4-2,2.7-2.7,4.6-2.7c1.9,0,3.3,1.1,3.3,2.8
		c0,1.6-1,2.5-2.3,2.5s-2-0.9-2-1.7c0-1.3,0.7-1.2,0.7-2c0-0.3-0.3-0.4-0.7-0.4C654.3,640.1,653.2,641.2,652.4,642.3z"/>
	<path id="XMLID_288_" d="M666.6,653.4c0.5,1.5,1.6,2.6,3.3,3c0.2,0,0.2,0.2,0.2,0.4c0,0.1,0,0.3-0.2,0.4c-2.5-0.1-4.5-1.1-5.9-2.9
		c-1.4-1.8-2.2-3.8-2.2-6.2c0-2.4,0.7-4.5,2.2-6.2s3.4-2.7,5.9-2.8c0.2,0,0.2,0.2,0.2,0.4c0,0.2,0,0.3-0.2,0.4
		c-1.7,0.4-2.8,1.4-3.3,3s-0.7,3.3-0.7,5.4S666.1,651.9,666.6,653.4z M675.1,653.4c0.5-1.5,0.7-3.3,0.7-5.4s-0.3-3.8-0.7-5.4
		c-0.5-1.5-1.6-2.6-3.3-3c-0.2,0-0.2-0.2-0.2-0.4c0-0.1,0-0.3,0.2-0.4c2.5,0.1,4.5,1.1,5.9,2.8c1.4,1.8,2.2,3.9,2.2,6.2
		c0,2.4-0.7,4.4-2.2,6.2c-1.4,1.8-3.4,2.7-5.9,2.9c-0.1,0-0.2-0.2-0.2-0.4c0-0.2,0-0.3,0.2-0.4C673.5,656,674.6,654.9,675.1,653.4z"
		/>
	<path id="XMLID_291_" d="M685.5,640c1-0.3,1.7-0.5,2.1-0.6c0.5-0.2,1-0.4,1.3-0.4s0.4,0.1,0.4,0.6s-0.1,1.6-0.1,4.9V658
		c0,3.1-0.7,5.3-2.2,6.7c-1.5,1.4-3.2,2.3-5.3,2.8c0,0-0.1-0.2-0.1-0.3c0-0.2,0-0.3,0.1-0.4c1-0.5,1.9-1.3,2.6-2.5
		c0.8-1.2,1.1-3.1,1.1-5.5v-16.4c0-0.6-0.1-0.9-0.6-0.9c-0.3,0-2.1,0.3-2.2,0.4c-0.1,0-0.2-0.3-0.2-0.5c0-0.2,0-0.4,0.1-0.5
		C683.5,640.5,684.5,640.3,685.5,640z M685.5,631.6c0-1.3,1-2,2-2s2,0.8,2,2s-1,2-2,2S685.5,632.9,685.5,631.6z"/>
	<path id="XMLID_294_" d="M700.9,646c-0.2,0-0.3-0.1-0.3-0.4c0-0.3,0.1-0.5,0.3-0.5h5.2c0-0.5,0.1-0.9,0.1-1.4
		c0-2.3-0.9-3.9-3.1-3.9c-2.7,0-4.6,2.9-4.6,7.3c0,5.3,1.9,8.6,5.9,8.6c2.2,0,3.8-1.3,4.8-2.3c0.3,0,0.5,0.3,0.5,0.4
		c0,0.1,0,0.3-0.1,0.4c-0.3,0.3-0.9,0.8-1.9,1.6s-2.6,1.2-4.6,1.2c-2.3,0-4.3-0.8-6-2.2s-2.6-3.8-2.6-6.8c0-2.6,0.8-4.8,2.5-6.5
		c1.7-1.7,3.7-2.6,6.1-2.6c4.6,0,7.1,2.7,7.1,6.6c0,0.3-0.1,0.4-0.4,0.4H700.9z"/>
	<path id="XMLID_296_" d="M717.1,647.5c0,5,1.9,8.4,5.8,8.4c1.4,0,2.4-0.3,3.3-0.9c0.8-0.6,1.5-1.2,2-1.7c0.3,0,0.5,0.3,0.5,0.4
		c0,0.1,0,0.3-0.1,0.4c-0.3,0.3-0.9,0.9-1.9,1.7c-1,0.9-2.6,1.3-4.6,1.3c-5.4,0-8.9-3.3-8.9-8.9c0-2.8,0.9-5.1,2.7-6.8
		c1.8-1.6,4-2.4,6.5-2.4c1.7,0,3.2,0.4,4.4,1.2c1.2,0.8,1.8,1.9,1.8,3.2s-1,2.2-2.2,2.2c-1.1,0-2-0.7-2-2c0-0.9,0.6-1.7,1.4-1.9
		c-0.3-1.3-1.6-1.9-3.3-1.9C719.2,639.8,717.1,642.3,717.1,647.5z"/>
	<path id="XMLID_298_" d="M737.7,640.5v10.9c0,3.3,0.7,4.3,2.3,4.3c1.4,0,2.4-1.2,2.9-1.9c0.3,0,0.5,0.3,0.5,0.4
		c0,0.1,0,0.3-0.1,0.4c-0.3,0.4-0.8,0.9-1.4,1.5c-0.6,0.5-1.7,0.8-3.1,0.8c-2.7,0-4.8-1.2-4.8-4.9v-11.7h-2.3
		c-0.2,0-0.3-0.3-0.3-0.6c0-0.3,0.1-0.6,0.3-0.6h2.3v-3.5c1.4-0.4,2.3-1.2,3.2-2c0.1-0.1,0.2-0.1,0.3-0.1c0.1,0,0.2,0.1,0.3,0.1v5.5
		h4.8c0.2,0,0.3,0.3,0.3,0.6c0,0.3-0.1,0.6-0.3,0.6H737.7z"/>
	<path id="XMLID_300_" d="M756.2,653.1c0-2.4-1.6-3.7-4.8-4.1c-3.2-0.3-4.8-2.1-4.8-5.3c0-2.9,2.3-4.8,5.5-4.8
		c2.2,0,3.2,0.6,4.3,0.6c0.7,0,0.7-0.6,1-0.6h0.1c0.3,0,0.3,0.1,0.3,0.4v0.9c0,1,0.3,3.2,0.6,4c-0.1,0.3-0.6,0.5-0.9,0.3
		c-1.3-3.5-3.3-4.8-5.5-4.8c-1.7,0-2.9,1-2.9,2.7c0,2.2,1.7,3.4,5,3.7c3.3,0.3,5,2.1,5,5.3c0,1.6-0.6,2.9-1.8,3.9s-2.7,1.5-4.6,1.5
		c-1.7,0-3.3-0.4-4.3-1c-0.4,0.4-1,1-1.3,1c-0.2,0-0.3,0-0.4-0.1v-0.4c0-1.9-0.3-3.9-1-5.6c0.1-0.3,0.8-0.3,1-0.1
		c1.3,3.2,3.5,5.3,6,5.3C754.9,656.1,756.2,655.1,756.2,653.1z"/>
</g>
<g id="XMLID_13_">
	<line id="XMLID_6_" class="st0" x1="652.9" y1="582.9" x2="724.9" y2="582.9"/>
	<rect id="XMLID_8_" x="652.9" y="580.9" width="72" height="2"/>
</g>
<g id="XMLID_3_">
	<line id="XMLID_1_" class="st0" x1="22.9" y1="22.9" x2="1354.9" y2="22.9"/>
	<rect id="XMLID_2_" x="22.9" y="20.9" width="1332" height="2"/>
</g>
<g id="XMLID_7_">
	<g id="XMLID_2121_">
		<path id="XMLID_2376_" d="M39.9,218.4L28.2,189c-0.6-1.4-1.1-2.3-1.5-2.8s-1.1-0.7-2.1-0.7h-1.1c-0.2,0-0.4-0.3-0.4-0.7
			s0.1-0.7,0.4-0.7h13.7c0.2,0,0.4,0.3,0.4,0.7s-0.1,0.7-0.4,0.7h-2.6c-1.1,0-1.4,0.4-1.4,1.1c0,0.5,0.2,1.2,0.5,1.9l9.2,23.2
			l-2.5,6.7H39.9z M43.1,207.6L50,189c0.4-1.1,0.6-1.8,0.6-2.5c0-0.9-0.4-1.1-1.5-1.1h-2.3c-0.2,0-0.4-0.3-0.4-0.7s0.1-0.7,0.4-0.7
			h9.7c0.2,0,0.4,0.3,0.4,0.7s-0.1,0.7-0.4,0.7h-1.2c-1,0-1.7,0.2-2.1,0.7c-0.4,0.5-0.9,1.4-1.5,2.9l-7.4,19c-0.1,0-0.3,0.1-0.5,0.1
			C43.6,208.1,43.3,207.8,43.1,207.6z"/>
		<path id="XMLID_2374_" d="M61.9,204.8c-0.2,0-0.4-0.1-0.4-0.5c0-0.4,0.1-0.6,0.4-0.6h6.3c0-0.7,0.1-1.1,0.1-1.7
			c0-2.8-1.1-4.8-3.8-4.8c-3.3,0-5.6,3.5-5.6,9c0,6.5,2.3,10.6,7.2,10.6c2.6,0,4.7-1.6,5.9-2.8c0.4,0,0.6,0.3,0.6,0.5
			c0,0.2,0,0.4-0.2,0.5c-0.3,0.4-1.1,1-2.3,1.9c-1.3,0.9-3.1,1.4-5.6,1.4c-2.8,0-5.3-0.9-7.4-2.7S54,211,54,207.3c0-3.2,1-5.9,3.1-8
			c2-2.1,4.5-3.1,7.5-3.1c5.6,0,8.6,3.3,8.6,8.1c0,0.4-0.2,0.5-0.5,0.5H61.9z"/>
		<path id="XMLID_2371_" d="M80.2,197.5c1.3-0.4,2.1-0.6,2.5-0.7c0.7-0.2,1.2-0.5,1.6-0.5c0.4,0,0.5,0.2,0.5,0.7
			c0,0.5-0.2,1.9-0.2,6V215c0,0.9,0.1,1.5,1.2,1.5h3c0.2,0,0.4,0.3,0.4,0.7s-0.1,0.7-0.4,0.7H76.6c-0.2,0-0.4-0.3-0.4-0.7
			s0.1-0.7,0.4-0.7h2.3c1.1,0,1.2-0.6,1.2-1.5v-14.8c0-0.7-0.2-1.1-0.7-1.1c-0.4,0-2.5,0.4-2.7,0.4c-0.2,0-0.3-0.4-0.3-0.7
			c0-0.2,0-0.5,0.2-0.7C77.7,198.1,78.9,197.8,80.2,197.5z M86.8,200.2c-0.4,0-0.7-0.3-0.7-0.7c1.8-2.5,3.3-3.3,5.6-3.3
			c2.3,0,4,1.3,4,3.4c0,1.9-1.2,3.1-2.8,3.1s-2.5-1.1-2.5-2.1c0-1.5,0.9-1.5,0.9-2.5c0-0.4-0.4-0.5-0.9-0.5
			C89.1,197.6,87.7,198.9,86.8,200.2z"/>
		<path id="XMLID_2368_" d="M106.7,217.4c-0.9,0.7-2.1,1-3.6,1c-3,0-5.5-1.4-5.5-4.8c0-4,4.1-6.2,10-6.9c0.1,0,0.2,0.2,0.2,0.4
			c0,0.2-0.1,0.4-0.2,0.4c-4,0.7-5.6,2.6-5.6,5.5c0,2.1,1.2,3.3,3,3.3c1.2,0,2.1-0.5,3-1.4c0.2,0,0.4,0.2,0.4,0.4c0,0,0,0.2-0.1,0.3
			C108.1,216.2,107.5,216.7,106.7,217.4z M101.4,199c1.4,0.4,2.1,1.1,2.1,2.5s-1.2,2.5-2.5,2.5c-1.6,0-2.5-1.2-2.5-2.6
			s0.7-2.6,2.2-3.6s3.3-1.5,5.4-1.5c5.3,0,8.4,2.1,8.4,6.9c0,2.2,0,4-0.1,5.6s-0.1,3.4-0.1,5.5c0,1.8,0.5,2.5,1.6,2.5
			c1.2,0,2.1-0.9,2.8-1.6c0.5,0,0.7,0.6,0.5,0.8c-0.9,1.3-3,2.6-5.1,2.6c-3,0-4.4-1.6-4.4-5.3c0-2.8,0.2-6.2,0.2-10.4
			s-1.2-5.5-4-5.5C104,197.2,102.4,197.6,101.4,199z"/>
		<path id="XMLID_2366_" d="M131.3,200.8c0-5.1,1.5-9.3,4.7-12.5s7.3-4.8,12.4-4.8c2.6,0,4.6,0.4,5.8,1.1c1.2,0.7,2.2,1.1,2.9,1.1
			c0.5,0,0.9-0.4,0.9-1.2c0-0.5,0.2-0.5,0.5-0.5h0.4c0.4,0,0.5,0,0.5,0.5c0,1,0.1,2.3,0.4,4.1s0.5,3.2,0.9,4.4
			c0,0.2-0.4,0.3-0.8,0.3c-0.3,0-0.5-0.1-0.6-0.1c-2.5-5.8-5.8-8.7-10.7-8.7c-7.2,0-10.9,5.9-10.9,16.2v0.2
			c0,10.3,3.7,16.4,10.9,16.4c4.9,0,8.4-3,10.9-8.8c0.1,0,0.3-0.1,0.6-0.1c0.4,0,0.7,0.1,0.8,0.3c-0.4,1.2-0.7,2.7-1,4.5
			s-0.4,3.2-0.4,4.2c0,0.5-0.2,0.5-0.5,0.5h-0.4c-0.4,0-0.5,0-0.5-0.5c0-0.9-0.4-1.2-0.9-1.2c-0.7,0-1.7,0.4-2.9,1.1
			c-1.2,0.7-3.1,1.1-5.8,1.1c-5.1,0-9.3-1.6-12.4-4.8s-4.7-7.4-4.7-12.6V200.8z"/>
		<path id="XMLID_2363_" d="M172.7,215c0,0.9,0.1,1.5,1.2,1.5h2.3c0.2,0,0.4,0.3,0.4,0.7s-0.1,0.7-0.4,0.7h-11.6
			c-0.2,0-0.4-0.3-0.4-0.7s0.1-0.7,0.4-0.7h2.3c1.1,0,1.2-0.6,1.2-1.5v-28.3c0-0.7-0.1-1.1-0.8-1.1c-0.7,0-2.6,0.4-3.3,0.6
			c-0.2,0-0.4-0.4-0.4-0.7c0-0.2,0-0.5,0.2-0.7c1.2-0.3,2.5-0.6,3.9-1c1.4-0.4,2.3-0.6,3-0.8c0.7-0.2,1.2-0.5,1.6-0.5
			s0.5,0.2,0.5,0.7c0,0.5-0.2,1.9-0.2,6V215z M187.3,215c0,0.9,0.1,1.5,1.2,1.5h2.3c0.2,0,0.4,0.3,0.4,0.7s-0.1,0.7-0.4,0.7h-11.1
			c-0.2,0-0.4-0.3-0.4-0.7s0.1-0.7,0.4-0.7h1.8c1.1,0,1.2-0.6,1.2-1.5v-11.8c0-3.9-1.4-5.6-4-5.6c-1.6,0-2.6,0.9-3.7,1.9
			c-0.4,0-0.7-0.2-0.7-0.7c1.4-1.6,3-2.6,6-2.6c1.9,0,3.6,0.5,5,1.5c1.4,1,2.1,2.7,2.1,5.1V215z"/>
		<path id="XMLID_2360_" d="M203,217.4c-0.9,0.7-2.1,1-3.6,1c-3,0-5.5-1.4-5.5-4.8c0-4,4.1-6.2,10-6.9c0.1,0,0.2,0.2,0.2,0.4
			c0,0.2-0.1,0.4-0.2,0.4c-4,0.7-5.6,2.6-5.6,5.5c0,2.1,1.2,3.3,3,3.3c1.2,0,2.1-0.5,3-1.4c0.2,0,0.4,0.2,0.4,0.4c0,0,0,0.2-0.1,0.3
			C204.4,216.2,203.8,216.7,203,217.4z M197.6,199c1.4,0.4,2.1,1.1,2.1,2.5s-1.2,2.5-2.5,2.5c-1.6,0-2.5-1.2-2.5-2.6
			s0.7-2.6,2.2-3.6s3.3-1.5,5.4-1.5c5.3,0,8.4,2.1,8.4,6.9c0,2.2,0,4-0.1,5.6s-0.1,3.4-0.1,5.5c0,1.8,0.5,2.5,1.6,2.5
			c1.2,0,2.1-0.9,2.8-1.6c0.5,0,0.7,0.6,0.5,0.8c-0.9,1.3-3,2.6-5.1,2.6c-3,0-4.4-1.6-4.4-5.3c0-2.8,0.2-6.2,0.2-10.4
			s-1.2-5.5-4-5.5C200.3,197.2,198.7,197.6,197.6,199z"/>
		<path id="XMLID_2357_" d="M220.8,197.5c1.3-0.4,2.1-0.6,2.5-0.7c0.7-0.2,1.2-0.5,1.6-0.5c0.4,0,0.5,0.2,0.5,0.7
			c0,0.5-0.2,1.9-0.2,6V215c0,0.9,0.1,1.5,1.2,1.5h1.8c0.2,0,0.4,0.3,0.4,0.7s-0.1,0.7-0.4,0.7h-11.1c-0.2,0-0.4-0.3-0.4-0.7
			s0.1-0.7,0.4-0.7h2.3c1.1,0,1.2-0.6,1.2-1.5v-14.8c0-0.7-0.2-1.1-0.7-1.1c-0.4,0-2.5,0.4-2.7,0.4c-0.2,0-0.3-0.4-0.3-0.7
			c0-0.2,0-0.5,0.2-0.7C218.3,198.1,219.6,197.8,220.8,197.5z M239.9,215c0,0.9,0.1,1.5,1.2,1.5h2.3c0.2,0,0.4,0.3,0.4,0.7
			s-0.1,0.7-0.4,0.7h-11.1c-0.2,0-0.4-0.3-0.4-0.7s0.1-0.7,0.4-0.7h1.8c1.1,0,1.2-0.6,1.2-1.5v-11.8c0-3.9-1.4-5.6-4-5.6
			c-1.6,0-2.6,0.9-3.7,1.9c-0.4,0-0.7-0.2-0.7-0.7c1.4-1.6,3-2.6,6-2.6c1.9,0,3.6,0.5,5,1.5c1.4,1,2.1,2.7,2.1,5.1V215z"/>
		<path id="XMLID_2351_" d="M249.9,221.9c-0.5,0.3-1.2,1-1.2,2.2c0,1.3,0.7,2.3,2.2,2.9c1.5,0.6,3.2,0.9,5.2,0.9
			c1.7,0,3.4-0.2,5.2-0.6c1.8-0.4,3.2-1.1,4.1-2.2c0.2-0.1,0.5-0.1,0.7,0c-0.5,1.1-1.6,2.3-3.4,3.7c-1.8,1.4-4.5,2.1-8.1,2.1
			c-2.1,0-4-0.4-5.7-1.3c-1.7-0.8-2.6-2.1-2.6-3.7c0-2.1,1.2-3.5,2.8-4.4C249.6,221.7,249.8,221.7,249.9,221.9z M248.9,209.5
			c-1.5-1.5-2.2-3.3-2.2-5.5c0-2.2,0.7-4,2.2-5.5s3.3-2.2,5.4-2.3c0.1,0,0.2,0.3,0.2,0.4c0,0.1,0,0.4-0.2,0.4
			c-2.5,0.4-3.2,2.9-3.2,7c0,4,0.7,6.6,3.2,7c0.1,0,0.2,0.3,0.2,0.4c0,0.2,0,0.4-0.2,0.4C252.2,211.8,250.4,211,248.9,209.5z
			 M250.1,214.7c0,1,0.9,1.4,3.2,1.4l7.2,0.4c2.5,0.1,4.1,0.9,4.9,2.3s1.1,3,1.1,4.9c-0.1,0.1-0.5,0.1-0.7,0
			c-0.2-1.4-0.9-2.3-2.1-2.8c-1.2-0.5-2.6-0.7-4.1-0.7l-6.5-0.2c-3.2,0-5.1-1.4-5.1-3.7c0-1.6,1.2-2.8,2.5-3.7
			c0.2-0.1,0.5-0.1,0.7,0C250.4,213.5,250.1,214.2,250.1,214.7z M261.6,198.5c1.5,1.5,2.2,3.3,2.2,5.5c0,2.2-0.7,4-2.2,5.5
			s-3.3,2.2-5.4,2.3c-0.1,0-0.2-0.3-0.2-0.4c0-0.1,0-0.4,0.2-0.4c2.5-0.4,3.2-2.9,3.2-7c0-4-0.7-6.6-3.2-7c-0.1,0-0.2-0.3-0.2-0.4
			c0-0.2,0-0.4,0.2-0.4C258.4,196.3,260.2,197.1,261.6,198.5z M263.1,194.7c-0.5,0.9-0.7,1.5-0.9,2c-0.2,0.2-0.6,0.2-0.9-0.1
			c0.2-2.9,2.3-4.9,4.3-4.9c2.2,0,3.1,1.3,3.1,2.7c0,1.1-0.6,2.3-2.2,2.3c-1.6,0-2.1-1-2.1-1.7c0-0.6,0.4-1.1,0-1.3
			C264,193.5,263.6,193.8,263.1,194.7z"/>
		<path id="XMLID_2348_" d="M284.1,197.5c1.3-0.4,2.1-0.6,2.5-0.7c0.7-0.2,1.2-0.5,1.6-0.5c0.4,0,0.5,0.2,0.5,0.7
			c0,0.5-0.2,1.9-0.2,6V215c0,0.9,0.1,1.5,1.2,1.5h2.3c0.2,0,0.4,0.3,0.4,0.7s-0.1,0.7-0.4,0.7h-11.6c-0.2,0-0.4-0.3-0.4-0.7
			s0.1-0.7,0.4-0.7h2.3c1.1,0,1.2-0.6,1.2-1.5v-14.8c0-0.7-0.2-1.1-0.7-1.1c-0.4,0-2.5,0.4-2.7,0.4c-0.2,0-0.3-0.4-0.3-0.7
			c0-0.2,0-0.5,0.2-0.7C281.5,198.1,282.8,197.8,284.1,197.5z M284.1,187.2c0-1.5,1.2-2.5,2.5-2.5s2.5,0.9,2.5,2.5s-1.2,2.5-2.5,2.5
			S284.1,188.7,284.1,187.2z"/>
		<path id="XMLID_2346_" d="M307.9,213.4c0-2.9-1.9-4.6-5.8-5c-3.9-0.4-5.8-2.6-5.8-6.5c0-3.5,2.8-5.8,6.7-5.8
			c2.6,0,3.9,0.7,5.3,0.7c0.9,0,0.8-0.7,1.2-0.7h0.2c0.4,0,0.4,0.2,0.4,0.5v1.1c0,1.3,0.4,4,0.7,4.9c-0.1,0.4-0.7,0.6-1.1,0.4
			c-1.6-4.2-4-5.8-6.7-5.8c-2.1,0-3.5,1.2-3.5,3.3c0,2.6,2,4.2,6.1,4.6s6.1,2.6,6.1,6.5c0,1.9-0.7,3.5-2.2,4.8s-3.3,1.9-5.6,1.9
			c-2.1,0-4-0.5-5.3-1.2c-0.5,0.5-1.2,1.2-1.6,1.2c-0.2,0-0.4,0-0.5-0.2v-0.5c0-2.3-0.4-4.8-1.2-6.9c0.2-0.4,1-0.4,1.2-0.2
			c1.5,3.9,4.2,6.5,7.4,6.5C306.3,217.1,307.9,215.9,307.9,213.4z"/>
		<path id="XMLID_2343_" d="M334.8,217.4c-0.9,0.7-2.1,1-3.6,1c-3,0-5.5-1.4-5.5-4.8c0-4,4.1-6.2,10-6.9c0.1,0,0.2,0.2,0.2,0.4
			c0,0.2-0.1,0.4-0.2,0.4c-4,0.7-5.6,2.6-5.6,5.5c0,2.1,1.2,3.3,3,3.3c1.2,0,2.1-0.5,3-1.4c0.2,0,0.4,0.2,0.4,0.4c0,0,0,0.2-0.1,0.3
			C336.2,216.2,335.7,216.7,334.8,217.4z M329.5,199c1.4,0.4,2.1,1.1,2.1,2.5s-1.2,2.5-2.5,2.5c-1.6,0-2.5-1.2-2.5-2.6
			s0.7-2.6,2.2-3.6s3.3-1.5,5.4-1.5c5.3,0,8.4,2.1,8.4,6.9c0,2.2,0,4-0.1,5.6s-0.1,3.4-0.1,5.5c0,1.8,0.5,2.5,1.6,2.5
			c1.2,0,2.1-0.9,2.8-1.6c0.5,0,0.7,0.6,0.5,0.8c-0.9,1.3-3,2.6-5.1,2.6c-3,0-4.4-1.6-4.4-5.3c0-2.8,0.2-6.2,0.2-10.4
			s-1.2-5.5-4-5.5C332.1,197.2,330.6,197.6,329.5,199z"/>
		<path id="XMLID_2340_" d="M374.9,218.4L363.1,189c-0.6-1.4-1.1-2.3-1.5-2.8c-0.4-0.5-1.1-0.7-2.1-0.7h-1.1c-0.2,0-0.4-0.3-0.4-0.7
			s0.1-0.7,0.4-0.7h13.7c0.2,0,0.4,0.3,0.4,0.7s-0.1,0.7-0.4,0.7h-2.6c-1.1,0-1.4,0.4-1.4,1.1c0,0.5,0.2,1.2,0.5,1.9l9.2,23.2
			l-2.5,6.7H374.9z M378.1,207.6L385,189c0.4-1.1,0.6-1.8,0.6-2.5c0-0.9-0.4-1.1-1.5-1.1h-2.3c-0.2,0-0.4-0.3-0.4-0.7
			s0.1-0.7,0.4-0.7h9.7c0.2,0,0.4,0.3,0.4,0.7s-0.1,0.7-0.4,0.7h-1.2c-1,0-1.7,0.2-2.1,0.7c-0.4,0.5-0.9,1.4-1.5,2.9l-7.4,19
			c-0.1,0-0.3,0.1-0.5,0.1C378.5,208.1,378.3,207.8,378.1,207.6z"/>
		<path id="XMLID_2337_" d="M395.6,197.5c1.3-0.4,2.1-0.6,2.5-0.7c0.7-0.2,1.2-0.5,1.6-0.5c0.4,0,0.5,0.2,0.5,0.7
			c0,0.5-0.2,1.9-0.2,6V215c0,0.9,0.1,1.5,1.2,1.5h2.3c0.2,0,0.4,0.3,0.4,0.7s-0.1,0.7-0.4,0.7H392c-0.2,0-0.4-0.3-0.4-0.7
			s0.1-0.7,0.4-0.7h2.3c1.1,0,1.2-0.6,1.2-1.5v-14.8c0-0.7-0.2-1.1-0.7-1.1c-0.4,0-2.5,0.4-2.7,0.4c-0.2,0-0.3-0.4-0.3-0.7
			c0-0.2,0-0.5,0.2-0.7C393.1,198.1,394.4,197.8,395.6,197.5z M395.7,187.2c0-1.5,1.2-2.5,2.5-2.5s2.5,0.9,2.5,2.5s-1.2,2.5-2.5,2.5
			S395.7,188.7,395.7,187.2z"/>
		<path id="XMLID_2335_" d="M419.4,213.4c0-2.9-1.9-4.6-5.8-5c-3.9-0.4-5.8-2.6-5.8-6.5c0-3.5,2.8-5.8,6.7-5.8
			c2.6,0,3.9,0.7,5.3,0.7c0.9,0,0.8-0.7,1.2-0.7h0.2c0.4,0,0.4,0.2,0.4,0.5v1.1c0,1.3,0.4,4,0.7,4.9c-0.1,0.4-0.7,0.6-1.1,0.4
			c-1.6-4.2-4-5.8-6.7-5.8c-2.1,0-3.5,1.2-3.5,3.3c0,2.6,2,4.2,6.1,4.6s6.1,2.6,6.1,6.5c0,1.9-0.7,3.5-2.2,4.8s-3.3,1.9-5.6,1.9
			c-2.1,0-4-0.5-5.3-1.2c-0.5,0.5-1.2,1.2-1.6,1.2c-0.2,0-0.4,0-0.5-0.2v-0.5c0-2.3-0.4-4.8-1.2-6.9c0.2-0.4,1-0.4,1.2-0.2
			c1.5,3.9,4.2,6.5,7.4,6.5C417.9,217.1,419.4,215.9,419.4,213.4z"/>
		<path id="XMLID_2332_" d="M434.2,211.3c0,3.9,1.4,5.6,3.9,5.6c1.6,0,2.8-0.9,3.9-1.9c0.4,0,0.7,0.2,0.7,0.7c-1.2,1.4-3,2.6-6,2.6
			c-1.9,0-3.6-0.5-5-1.5c-1.4-1-2.1-2.6-2.1-5v-12.3c0-0.9-0.1-1.5-1.2-1.5h-2.3c-0.2,0-0.4-0.3-0.4-0.7s0.1-0.7,0.4-0.7h7.2
			c0.5,0,0.9,0.1,0.9,0.9V211.3z M452.6,215.6c0,0.3-0.1,0.6-0.3,0.7c-1.1,0.2-2.3,0.5-3.6,0.8s-2.2,0.6-2.6,0.7
			c-0.7,0.2-1.2,0.5-1.6,0.5s-0.5-0.2-0.5-0.7c0-0.5,0.2-1.9,0.2-6v-12.1c0-0.9-0.1-1.5-1.2-1.5h-2.3c-0.2,0-0.4-0.3-0.4-0.7
			s0.1-0.7,0.4-0.7h7.2c0.5,0,0.9,0.1,0.9,0.9v16.7c0,0.7,0.2,1.1,0.7,1.1c0.4,0,2.7-0.5,2.9-0.5C452.6,215,452.6,215.4,452.6,215.6
			z"/>
		<path id="XMLID_2329_" d="M465.2,217.4c-0.9,0.7-2.1,1-3.6,1c-3,0-5.5-1.4-5.5-4.8c0-4,4.1-6.2,10-6.9c0.1,0,0.2,0.2,0.2,0.4
			c0,0.2-0.1,0.4-0.2,0.4c-4,0.7-5.6,2.6-5.6,5.5c0,2.1,1.2,3.3,3,3.3c1.2,0,2.1-0.5,3-1.4c0.2,0,0.4,0.2,0.4,0.4c0,0,0,0.2-0.1,0.3
			C466.7,216.2,466.1,216.7,465.2,217.4z M459.9,199c1.4,0.4,2.1,1.1,2.1,2.5s-1.2,2.5-2.5,2.5c-1.6,0-2.5-1.2-2.5-2.6
			s0.7-2.6,2.2-3.6s3.3-1.5,5.4-1.5c5.3,0,8.4,2.1,8.4,6.9c0,2.2,0,4-0.1,5.6s-0.1,3.4-0.1,5.5c0,1.8,0.5,2.5,1.6,2.5
			c1.2,0,2.1-0.9,2.8-1.6c0.5,0,0.7,0.6,0.5,0.8c-0.9,1.3-3,2.6-5.1,2.6c-3,0-4.4-1.6-4.4-5.3c0-2.8,0.2-6.2,0.2-10.4
			s-1.2-5.5-4-5.5C462.6,197.2,461,197.6,459.9,199z"/>
		<path id="XMLID_2327_" d="M487.7,215c0,0.9,0.1,1.5,1.2,1.5h2.3c0.2,0,0.4,0.3,0.4,0.7s-0.1,0.7-0.4,0.7h-11.6
			c-0.2,0-0.4-0.3-0.4-0.7s0.1-0.7,0.4-0.7h2.3c1.1,0,1.2-0.6,1.2-1.5v-28.3c0-0.7-0.1-1.1-0.8-1.1c-0.7,0-2.6,0.4-3.3,0.6
			c-0.2,0-0.4-0.4-0.4-0.7c0-0.2,0-0.5,0.2-0.7c1.2-0.3,2.5-0.6,3.9-1c1.4-0.4,2.3-0.6,3-0.8c0.7-0.2,1.2-0.5,1.6-0.5
			s0.5,0.2,0.5,0.7c0,0.5-0.2,1.9-0.2,6V215z"/>
		<path id="XMLID_2324_" d="M514.1,184c0.5,0,0.7,0.3,0.7,0.7c0,4.9-0.2,10-0.2,14.8v2.8c0,4.8,0.1,9.9,0.2,14.8
			c0,0.4-0.2,0.7-0.7,0.7h-9.3c-0.2,0-0.4-0.3-0.4-0.7s0.1-0.7,0.4-0.7h2.5c1.4,0,1.9-0.5,1.9-1.9c0.1-2.6,0.1-4.8,0.2-6.6v-5.6
			v-2.8v-5.6c0-1.8-0.1-4-0.2-6.5c0-1.4-0.5-1.9-1.9-1.9h-2.5c-0.2,0-0.4-0.3-0.4-0.7s0.1-0.7,0.4-0.7H514.1z M528.7,189
			c-2.4-2.4-5.6-3.6-9.6-3.6h-1.6c-0.2,0-0.4-0.3-0.4-0.7s0.1-0.7,0.4-0.7h2.9c4.5,0,8.7,1.4,12.4,4c3.7,2.7,5.5,7,5.5,12.8
			s-1.8,10.2-5.5,12.8c-3.7,2.7-7.8,4-12.4,4h-2.9c-0.2,0-0.4-0.3-0.4-0.7s0.1-0.7,0.4-0.7h1.6c4,0,7.2-1.2,9.6-3.6
			c2.4-2.4,3.6-6.4,3.6-11.9S531.1,191.5,528.7,189z"/>
		<path id="XMLID_2322_" d="M550.2,204.8c-0.2,0-0.4-0.1-0.4-0.5c0-0.4,0.1-0.6,0.4-0.6h6.3c0-0.7,0.1-1.1,0.1-1.7
			c0-2.8-1.1-4.8-3.8-4.8c-3.3,0-5.6,3.5-5.6,9c0,6.5,2.3,10.6,7.2,10.6c2.6,0,4.7-1.6,5.9-2.8c0.4,0,0.6,0.3,0.6,0.5
			c0,0.2,0,0.4-0.2,0.5c-0.3,0.4-1.1,1-2.3,1.9c-1.3,0.9-3.1,1.4-5.6,1.4c-2.8,0-5.3-0.9-7.4-2.7s-3.2-4.6-3.2-8.4
			c0-3.2,1-5.9,3.1-8c2-2.1,4.5-3.1,7.5-3.1c5.6,0,8.6,3.3,8.6,8.1c0,0.4-0.2,0.5-0.5,0.5H550.2z"/>
		<path id="XMLID_2320_" d="M577.3,213.4c0-2.9-1.9-4.6-5.8-5c-3.9-0.4-5.8-2.6-5.8-6.5c0-3.5,2.8-5.8,6.7-5.8
			c2.6,0,3.9,0.7,5.3,0.7c0.9,0,0.8-0.7,1.2-0.7h0.2c0.4,0,0.4,0.2,0.4,0.5v1.1c0,1.3,0.4,4,0.7,4.9c-0.1,0.4-0.7,0.6-1.1,0.4
			c-1.6-4.2-4-5.8-6.7-5.8c-2.1,0-3.5,1.2-3.5,3.3c0,2.6,2,4.2,6.1,4.6s6.1,2.6,6.1,6.5c0,1.9-0.7,3.5-2.2,4.8s-3.3,1.9-5.6,1.9
			c-2.1,0-4-0.5-5.3-1.2c-0.5,0.5-1.2,1.2-1.6,1.2c-0.2,0-0.4,0-0.5-0.2v-0.5c0-2.3-0.4-4.8-1.2-6.9c0.2-0.4,1-0.4,1.2-0.2
			c1.5,3.9,4.2,6.5,7.4,6.5C575.7,217.1,577.3,215.9,577.3,213.4z"/>
		<path id="XMLID_2317_" d="M588,197.5c1.3-0.4,2.1-0.6,2.5-0.7c0.7-0.2,1.2-0.5,1.6-0.5c0.4,0,0.5,0.2,0.5,0.7c0,0.5-0.2,1.9-0.2,6
			V215c0,0.9,0.1,1.5,1.2,1.5h2.3c0.2,0,0.4,0.3,0.4,0.7s-0.1,0.7-0.4,0.7h-11.6c-0.2,0-0.4-0.3-0.4-0.7s0.1-0.7,0.4-0.7h2.3
			c1.1,0,1.2-0.6,1.2-1.5v-14.8c0-0.7-0.2-1.1-0.7-1.1c-0.4,0-2.5,0.4-2.7,0.4c-0.2,0-0.3-0.4-0.3-0.7c0-0.2,0-0.5,0.2-0.7
			C585.5,198.1,586.7,197.8,588,197.5z M588.1,187.2c0-1.5,1.2-2.5,2.5-2.5s2.5,0.9,2.5,2.5s-1.2,2.5-2.5,2.5
			S588.1,188.7,588.1,187.2z"/>
		<path id="XMLID_2311_" d="M603.2,221.9c-0.5,0.3-1.2,1-1.2,2.2c0,1.3,0.7,2.3,2.2,2.9c1.5,0.6,3.2,0.9,5.2,0.9
			c1.7,0,3.4-0.2,5.2-0.6c1.8-0.4,3.2-1.1,4.1-2.2c0.2-0.1,0.5-0.1,0.7,0c-0.5,1.1-1.6,2.3-3.4,3.7c-1.8,1.4-4.5,2.1-8.1,2.1
			c-2.1,0-4-0.4-5.7-1.3c-1.7-0.8-2.6-2.1-2.6-3.7c0-2.1,1.2-3.5,2.8-4.4C602.8,221.7,603.1,221.7,603.2,221.9z M602.2,209.5
			c-1.5-1.5-2.2-3.3-2.2-5.5c0-2.2,0.7-4,2.2-5.5s3.3-2.2,5.4-2.3c0.1,0,0.2,0.3,0.2,0.4c0,0.1,0,0.4-0.2,0.4
			c-2.5,0.4-3.2,2.9-3.2,7c0,4,0.7,6.6,3.2,7c0.1,0,0.2,0.3,0.2,0.4c0,0.2,0,0.4-0.2,0.4C605.5,211.8,603.7,211,602.2,209.5z
			 M603.4,214.7c0,1,0.9,1.4,3.2,1.4l7.2,0.4c2.5,0.1,4.1,0.9,4.9,2.3s1.1,3,1.1,4.9c-0.1,0.1-0.5,0.1-0.7,0
			c-0.2-1.4-0.9-2.3-2.1-2.8c-1.2-0.5-2.6-0.7-4.1-0.7l-6.5-0.2c-3.2,0-5.1-1.4-5.1-3.7c0-1.6,1.2-2.8,2.5-3.7
			c0.2-0.1,0.5-0.1,0.7,0C603.7,213.5,603.4,214.2,603.4,214.7z M614.9,198.5c1.5,1.5,2.2,3.3,2.2,5.5c0,2.2-0.7,4-2.2,5.5
			s-3.3,2.2-5.4,2.3c-0.1,0-0.2-0.3-0.2-0.4c0-0.1,0-0.4,0.2-0.4c2.5-0.4,3.2-2.9,3.2-7c0-4-0.7-6.6-3.2-7c-0.1,0-0.2-0.3-0.2-0.4
			c0-0.2,0-0.4,0.2-0.4C611.6,196.3,613.4,197.1,614.9,198.5z M616.4,194.7c-0.5,0.9-0.7,1.5-0.9,2c-0.2,0.2-0.6,0.2-0.9-0.1
			c0.2-2.9,2.3-4.9,4.3-4.9c2.2,0,3.1,1.3,3.1,2.7c0,1.1-0.6,2.3-2.2,2.3c-1.6,0-2.1-1-2.1-1.7c0-0.6,0.4-1.1,0-1.3
			C617.3,193.5,616.9,193.8,616.4,194.7z"/>
		<path id="XMLID_2308_" d="M626.9,197.5c1.3-0.4,2.1-0.6,2.5-0.7c0.7-0.2,1.2-0.5,1.6-0.5c0.4,0,0.5,0.2,0.5,0.7
			c0,0.5-0.2,1.9-0.2,6V215c0,0.9,0.1,1.5,1.2,1.5h1.8c0.2,0,0.4,0.3,0.4,0.7s-0.1,0.7-0.4,0.7h-11.1c-0.2,0-0.4-0.3-0.4-0.7
			s0.1-0.7,0.4-0.7h2.3c1.1,0,1.2-0.6,1.2-1.5v-14.8c0-0.7-0.2-1.1-0.7-1.1c-0.4,0-2.5,0.4-2.7,0.4c-0.2,0-0.3-0.4-0.3-0.7
			c0-0.2,0-0.5,0.2-0.7C624.4,198.1,625.7,197.8,626.9,197.5z M646,215c0,0.9,0.1,1.5,1.2,1.5h2.3c0.2,0,0.4,0.3,0.4,0.7
			s-0.1,0.7-0.4,0.7h-11.1c-0.2,0-0.4-0.3-0.4-0.7s0.1-0.7,0.4-0.7h1.8c1.1,0,1.2-0.6,1.2-1.5v-11.8c0-3.9-1.4-5.6-4-5.6
			c-1.6,0-2.6,0.9-3.7,1.9c-0.4,0-0.7-0.2-0.7-0.7c1.4-1.6,3-2.6,6-2.6c1.9,0,3.6,0.5,5,1.5c1.4,1,2.1,2.7,2.1,5.1V215z"/>
		<path id="XMLID_2306_" d="M660.4,204.8c-0.2,0-0.4-0.1-0.4-0.5c0-0.4,0.1-0.6,0.4-0.6h6.3c0-0.7,0.1-1.1,0.1-1.7
			c0-2.8-1.1-4.8-3.8-4.8c-3.3,0-5.6,3.5-5.6,9c0,6.5,2.3,10.6,7.2,10.6c2.6,0,4.7-1.6,5.9-2.8c0.4,0,0.6,0.3,0.6,0.5
			c0,0.2,0,0.4-0.2,0.5c-0.3,0.4-1.1,1-2.3,1.9c-1.3,0.9-3.1,1.4-5.6,1.4c-2.8,0-5.3-0.9-7.4-2.7s-3.2-4.6-3.2-8.4
			c0-3.2,1-5.9,3.1-8c2-2.1,4.5-3.1,7.5-3.1c5.6,0,8.6,3.3,8.6,8.1c0,0.4-0.2,0.5-0.5,0.5H660.4z"/>
		<path id="XMLID_2303_" d="M678.7,197.5c1.3-0.4,2.1-0.6,2.5-0.7c0.7-0.2,1.2-0.5,1.6-0.5c0.4,0,0.5,0.2,0.5,0.7
			c0,0.5-0.2,1.9-0.2,6V215c0,0.9,0.1,1.5,1.2,1.5h3c0.2,0,0.4,0.3,0.4,0.7s-0.1,0.7-0.4,0.7H675c-0.2,0-0.4-0.3-0.4-0.7
			s0.1-0.7,0.4-0.7h2.3c1.1,0,1.2-0.6,1.2-1.5v-14.8c0-0.7-0.2-1.1-0.7-1.1c-0.4,0-2.5,0.4-2.7,0.4c-0.2,0-0.3-0.4-0.3-0.7
			c0-0.2,0-0.5,0.2-0.7C676.2,198.1,677.4,197.8,678.7,197.5z M685.2,200.2c-0.4,0-0.7-0.3-0.7-0.7c1.8-2.5,3.3-3.3,5.6-3.3
			s4,1.3,4,3.4c0,1.9-1.2,3.1-2.8,3.1c-1.6,0-2.5-1.1-2.5-2.1c0-1.5,0.9-1.5,0.9-2.5c0-0.4-0.4-0.5-0.9-0.5
			C687.5,197.6,686.2,198.9,685.2,200.2z"/>
		<path id="XMLID_2300_" d="M713.9,213.1c0.5,2.3,1.9,4.1,3.9,4.4c0.1,0,0.2,0.2,0.2,0.4c0,0.2-0.1,0.4-0.2,0.4
			c-2.1,0-3.7-0.9-4.9-1.9l-2,1.4c-0.4,0.3-0.9,0.5-1.1,0.5s-0.4-0.2-0.4-0.5v-31.2c0-0.7-0.1-1.1-0.8-1.1c-0.7,0-2.6,0.4-3.3,0.6
			c-0.2,0-0.4-0.4-0.4-0.7c0-0.2,0-0.5,0.2-0.7c1.2-0.3,2.5-0.6,3.9-1c1.4-0.4,2.3-0.6,3-0.8c0.7-0.2,1.2-0.5,1.6-0.5
			c0.4,0,0.5,0.2,0.5,0.7c0,0.5-0.2,1.9-0.2,6V213.1z M716.4,199c-0.4,0-0.5-0.3-0.5-0.5s0-0.4,0.2-0.5c0.9-0.9,2.5-1.8,5.1-1.8
			c2.8,0,5.1,1,7,2.9c1.9,2,2.8,4.6,2.8,7.8c0,3-1,5.7-2.9,7.9c-2,2.2-4.7,3.4-8.2,3.6c-0.1,0-0.2-0.3-0.2-0.4c0-0.2,0-0.4,0.2-0.4
			c4.4-0.7,6.2-4.3,6.2-10.4c0-2.7-0.5-5-1.5-6.8c-1-1.8-2.5-2.7-4.5-2.7C718.5,197.6,717.5,198.1,716.4,199z"/>
		<path id="XMLID_2297_" d="M743.9,217.4c-0.9,0.7-2.1,1-3.6,1c-3,0-5.5-1.4-5.5-4.8c0-4,4.1-6.2,10-6.9c0.1,0,0.2,0.2,0.2,0.4
			c0,0.2-0.1,0.4-0.2,0.4c-4,0.7-5.6,2.6-5.6,5.5c0,2.1,1.2,3.3,3,3.3c1.2,0,2.1-0.5,3-1.4c0.2,0,0.4,0.2,0.4,0.4c0,0,0,0.2-0.1,0.3
			C745.3,216.2,744.7,216.7,743.9,217.4z M738.6,199c1.4,0.4,2.1,1.1,2.1,2.5s-1.2,2.5-2.5,2.5c-1.6,0-2.5-1.2-2.5-2.6
			s0.7-2.6,2.2-3.6s3.3-1.5,5.4-1.5c5.3,0,8.4,2.1,8.4,6.9c0,2.2,0,4-0.1,5.6s-0.1,3.4-0.1,5.5c0,1.8,0.5,2.5,1.6,2.5
			c1.2,0,2.1-0.9,2.8-1.6c0.5,0,0.7,0.6,0.5,0.8c-0.9,1.3-3,2.6-5.1,2.6c-3,0-4.4-1.6-4.4-5.3c0-2.8,0.2-6.2,0.2-10.4
			s-1.2-5.5-4-5.5C741.2,197.2,739.6,197.6,738.6,199z"/>
		<path id="XMLID_2295_" d="M771,213.4c0-2.9-1.9-4.6-5.8-5c-3.9-0.4-5.8-2.6-5.8-6.5c0-3.5,2.8-5.8,6.7-5.8c2.6,0,3.9,0.7,5.3,0.7
			c0.9,0,0.8-0.7,1.2-0.7h0.2c0.4,0,0.4,0.2,0.4,0.5v1.1c0,1.3,0.4,4,0.7,4.9c-0.1,0.4-0.7,0.6-1.1,0.4c-1.6-4.2-4-5.8-6.7-5.8
			c-2.1,0-3.5,1.2-3.5,3.3c0,2.6,2,4.2,6.1,4.6s6.1,2.6,6.1,6.5c0,1.9-0.7,3.5-2.2,4.8s-3.3,1.9-5.6,1.9c-2.1,0-4-0.5-5.3-1.2
			c-0.5,0.5-1.2,1.2-1.6,1.2c-0.2,0-0.4,0-0.5-0.2v-0.5c0-2.3-0.4-4.8-1.2-6.9c0.2-0.4,1-0.4,1.2-0.2c1.5,3.9,4.2,6.5,7.4,6.5
			C769.4,217.1,771,215.9,771,213.4z"/>
		<path id="XMLID_2293_" d="M786.3,204.8c-0.2,0-0.4-0.1-0.4-0.5c0-0.4,0.1-0.6,0.4-0.6h6.3c0-0.7,0.1-1.1,0.1-1.7
			c0-2.8-1.1-4.8-3.8-4.8c-3.3,0-5.6,3.5-5.6,9c0,6.5,2.3,10.6,7.2,10.6c2.6,0,4.7-1.6,5.9-2.8c0.4,0,0.6,0.3,0.6,0.5
			c0,0.2,0,0.4-0.2,0.5c-0.3,0.4-1.1,1-2.3,1.9c-1.3,0.9-3.1,1.4-5.6,1.4c-2.8,0-5.3-0.9-7.4-2.7s-3.2-4.6-3.2-8.4
			c0-3.2,1-5.9,3.1-8c2-2.1,4.5-3.1,7.5-3.1c5.6,0,8.6,3.3,8.6,8.1c0,0.4-0.2,0.5-0.5,0.5H786.3z"/>
		<path id="XMLID_2290_" d="M815.3,215.5c0.4,0,0.5,0.3,0.5,0.5s0,0.4-0.2,0.5c-0.9,0.9-2.5,1.8-5.1,1.8c-2.4,0-4.6-0.9-6.7-2.6
			c-2.1-1.7-3.2-4.5-3.2-8.3c0-3.4,1.1-6.1,3.4-8.2s4.9-3.1,8.1-3.1c1.4,0,2.3,0.2,3,0.5c0.4,0.4,0.2,1.1-0.2,1.2
			c-0.7-0.5-1.6-0.7-2.8-0.7c-4.2,0-6.5,3.7-6.5,9.7s1.8,10,6,10C813.2,216.9,814.3,216.4,815.3,215.5z M822.4,214.3
			c0,0.7,0.2,1.1,0.7,1.1c0.2,0,2.2-0.5,2.6-0.5c0.2,0.1,0.4,0.4,0.4,0.7c0,0.2,0,0.5-0.2,0.7c-0.6,0.1-1.5,0.4-2.6,0.7
			c-1.2,0.4-2.2,0.7-3.1,1c-0.6,0.2-1.4,0.5-1.8,0.5c-0.4,0-0.5-0.2-0.5-0.7v-31c0-0.7-0.1-1.1-0.8-1.1c-0.7,0-2.6,0.4-3.3,0.6
			c-0.2,0-0.4-0.4-0.4-0.7c0-0.2,0-0.5,0.2-0.7c1.2-0.3,2.5-0.6,3.9-1c1.4-0.4,2.3-0.6,3-0.8c0.7-0.2,1.2-0.5,1.6-0.5
			c0.4,0,0.5,0.2,0.5,0.7c0,0.5-0.2,1.9-0.2,6V214.3z"/>
		<path id="XMLID_2287_" d="M842.9,197.5c1.3-0.4,2.1-0.6,2.5-0.7c0.7-0.2,1.2-0.5,1.6-0.5c0.4,0,0.5,0.2,0.5,0.7
			c0,0.5-0.2,1.9-0.2,6V215c0,0.9,0.1,1.5,1.2,1.5h2.3c0.2,0,0.4,0.3,0.4,0.7s-0.1,0.7-0.4,0.7h-11.6c-0.2,0-0.4-0.3-0.4-0.7
			s0.1-0.7,0.4-0.7h2.3c1.1,0,1.2-0.6,1.2-1.5v-14.8c0-0.7-0.2-1.1-0.7-1.1c-0.4,0-2.5,0.4-2.7,0.4c-0.2,0-0.3-0.4-0.3-0.7
			c0-0.2,0-0.5,0.2-0.7C840.4,198.1,841.6,197.8,842.9,197.5z M842.9,187.2c0-1.5,1.2-2.5,2.5-2.5s2.5,0.9,2.5,2.5s-1.2,2.5-2.5,2.5
			S842.9,188.7,842.9,187.2z"/>
		<path id="XMLID_2284_" d="M857.5,197.5c1.3-0.4,2.1-0.6,2.5-0.7c0.7-0.2,1.2-0.5,1.6-0.5c0.4,0,0.5,0.2,0.5,0.7
			c0,0.5-0.2,1.9-0.2,6V215c0,0.9,0.1,1.5,1.2,1.5h1.8c0.2,0,0.4,0.3,0.4,0.7s-0.1,0.7-0.4,0.7h-11.1c-0.2,0-0.4-0.3-0.4-0.7
			s0.1-0.7,0.4-0.7h2.3c1.1,0,1.2-0.6,1.2-1.5v-14.8c0-0.7-0.2-1.1-0.7-1.1c-0.4,0-2.5,0.4-2.7,0.4c-0.2,0-0.3-0.4-0.3-0.7
			c0-0.2,0-0.5,0.2-0.7C855,198.1,856.2,197.8,857.5,197.5z M876.6,215c0,0.9,0.1,1.5,1.2,1.5h2.3c0.2,0,0.4,0.3,0.4,0.7
			s-0.1,0.7-0.4,0.7H869c-0.2,0-0.4-0.3-0.4-0.7s0.1-0.7,0.4-0.7h1.8c1.1,0,1.2-0.6,1.2-1.5v-11.8c0-3.9-1.4-5.6-4-5.6
			c-1.6,0-2.6,0.9-3.7,1.9c-0.4,0-0.7-0.2-0.7-0.7c1.4-1.6,3-2.6,6-2.6c1.9,0,3.6,0.5,5,1.5c1.4,1,2.1,2.7,2.1,5.1V215z"/>
		<path id="XMLID_2280_" d="M893.6,184h10.2c0.2,0,0.4,0.3,0.4,0.7s-0.1,0.7-0.4,0.7H903c-3.2,0-5.4,0.6-6.4,1.8
			c-1.1,1.2-1.9,3.1-2.6,5.8c-0.1,0-0.3,0.1-0.6,0.1c-0.4,0-0.7-0.1-0.8-0.3C893.1,190,893.5,186.8,893.6,184z M911.4,184
			c0.5,0,0.7,0.3,0.7,0.7c0,4.9-0.2,10-0.2,14.8v2.8c0,1.9,0,3.8,0,5.6c0,1.8,0,4,0.1,6.6c0,1.4,0.5,1.9,1.9,1.9h2.9
			c0.2,0,0.4,0.3,0.4,0.7s-0.1,0.7-0.4,0.7h-15.4c-0.2,0-0.4-0.3-0.4-0.7s0.1-0.7,0.4-0.7h3c1.4,0,1.9-0.5,1.9-1.9
			c0.1-2.6,0.1-4.8,0.2-6.6v-5.6v-2.8c0-4.8-0.1-9.9-0.2-14.8c0-0.4,0.2-0.7,0.7-0.7H911.4z M922.1,187.2c-1.1-1.2-3.3-1.8-6.5-1.8
			h-0.9c-0.2,0-0.4-0.3-0.4-0.7s0.1-0.7,0.4-0.7H925c0.2,2.8,0.5,6,1.1,8.8c0,0.2-0.4,0.3-0.8,0.3c-0.3,0-0.5-0.1-0.6-0.1
			C924,190.4,923.2,188.4,922.1,187.2z"/>
		<path id="XMLID_2277_" d="M934.9,217.4c-0.9,0.7-2.1,1-3.6,1c-3,0-5.5-1.4-5.5-4.8c0-4,4.1-6.2,10-6.9c0.1,0,0.2,0.2,0.2,0.4
			c0,0.2-0.1,0.4-0.2,0.4c-4,0.7-5.6,2.6-5.6,5.5c0,2.1,1.2,3.3,3,3.3c1.2,0,2.1-0.5,3-1.4c0.2,0,0.4,0.2,0.4,0.4c0,0,0,0.2-0.1,0.3
			C936.3,216.2,935.7,216.7,934.9,217.4z M929.5,199c1.4,0.4,2.1,1.1,2.1,2.5s-1.2,2.5-2.5,2.5c-1.6,0-2.5-1.2-2.5-2.6
			s0.7-2.6,2.2-3.6s3.3-1.5,5.4-1.5c5.3,0,8.4,2.1,8.4,6.9c0,2.2,0,4-0.1,5.6s-0.1,3.4-0.1,5.5c0,1.8,0.5,2.5,1.6,2.5
			c1.2,0,2.1-0.9,2.8-1.6c0.5,0,0.7,0.6,0.5,0.8c-0.9,1.3-3,2.6-5.1,2.6c-3,0-4.4-1.6-4.4-5.3c0-2.8,0.2-6.2,0.2-10.4
			s-1.2-5.5-4-5.5C932.2,197.2,930.6,197.6,929.5,199z"/>
		<path id="XMLID_2274_" d="M952.7,197.5c1.3-0.4,2.1-0.6,2.5-0.7c0.7-0.2,1.2-0.5,1.6-0.5c0.4,0,0.5,0.2,0.5,0.7
			c0,0.5-0.2,1.9-0.2,6V215c0,0.9,0.1,1.5,1.2,1.5h2.3c0.2,0,0.4,0.3,0.4,0.7s-0.1,0.7-0.4,0.7h-11.6c-0.2,0-0.4-0.3-0.4-0.7
			s0.1-0.7,0.4-0.7h2.3c1.1,0,1.2-0.6,1.2-1.5v-14.8c0-0.7-0.2-1.1-0.7-1.1c-0.4,0-2.5,0.4-2.7,0.4c-0.2,0-0.3-0.4-0.3-0.7
			c0-0.2,0-0.5,0.2-0.7C950.2,198.1,951.4,197.8,952.7,197.5z M952.8,187.2c0-1.5,1.2-2.5,2.5-2.5s2.5,0.9,2.5,2.5s-1.2,2.5-2.5,2.5
			S952.8,188.7,952.8,187.2z"/>
		<path id="XMLID_2270_" d="M968.8,198c-0.5,0-0.7,0.2-0.7,0.5c0,0.2,0.2,0.7,0.4,1.1l6.2,14.7l-1.8,4h-0.9l-8.6-19.9
			c-0.2-0.4-0.4-0.4-1.1-0.4h-0.7c-0.2,0-0.4-0.3-0.4-0.7s0.1-0.7,0.4-0.7h9.2c0.2,0,0.4,0.3,0.4,0.7s-0.1,0.7-0.4,0.7H968.8z
			 M977.9,203.4l-2.1-5c-0.2-0.4-0.4-0.4-1.1-0.4h-0.5c-0.2,0-0.4-0.3-0.4-0.7s0.1-0.7,0.4-0.7h9.7c0.2,0,0.4,0.3,0.4,0.7
			s-0.1,0.7-0.4,0.7h-2.6c-0.5,0-0.7,0.2-0.7,0.5c0,0.2,0.2,0.7,0.4,1.1l6.2,14.7l-1.8,4h-0.9l-5.7-13l-2.8,6.1c-0.2,0-0.3,0-0.4,0
			c-0.4,0-0.7-0.3-0.8-0.7L977.9,203.4z M991.7,199.6c0.1-0.4,0.4-0.8,0.4-1.1c0-0.3-0.2-0.5-0.7-0.5h-2.8c-0.2,0-0.4-0.3-0.4-0.7
			s0.1-0.7,0.4-0.7h7.2c0.2,0,0.4,0.3,0.4,0.7s-0.1,0.7-0.4,0.7H995c-0.7,0-0.9,0.1-1.1,0.4l-5.6,13c-0.2,0-0.3,0-0.4,0
			c-0.4,0-0.7-0.3-0.8-0.7L991.7,199.6z"/>
		<path id="XMLID_2267_" d="M1006.5,217.4c-0.9,0.7-2.1,1-3.6,1c-3,0-5.5-1.4-5.5-4.8c0-4,4.1-6.2,10-6.9c0.1,0,0.2,0.2,0.2,0.4
			c0,0.2-0.1,0.4-0.2,0.4c-4,0.7-5.6,2.6-5.6,5.5c0,2.1,1.2,3.3,3,3.3c1.2,0,2.1-0.5,3-1.4c0.2,0,0.4,0.2,0.4,0.4c0,0,0,0.2-0.1,0.3
			C1007.9,216.2,1007.3,216.7,1006.5,217.4z M1001.2,199c1.4,0.4,2.1,1.1,2.1,2.5s-1.2,2.5-2.5,2.5c-1.6,0-2.5-1.2-2.5-2.6
			s0.7-2.6,2.2-3.6s3.3-1.5,5.4-1.5c5.3,0,8.4,2.1,8.4,6.9c0,2.2,0,4-0.1,5.6s-0.1,3.4-0.1,5.5c0,1.8,0.5,2.5,1.6,2.5
			c1.2,0,2.1-0.9,2.8-1.6c0.5,0,0.7,0.6,0.5,0.8c-0.9,1.3-3,2.6-5.1,2.6c-3,0-4.4-1.6-4.4-5.3c0-2.8,0.2-6.2,0.2-10.4
			s-1.2-5.5-4-5.5C1003.8,197.2,1002.2,197.6,1001.2,199z"/>
		<path id="XMLID_2264_" d="M1024.4,197.5c1.3-0.4,2.1-0.6,2.5-0.7c0.7-0.2,1.2-0.5,1.6-0.5c0.4,0,0.5,0.2,0.5,0.7
			c0,0.5-0.2,1.9-0.2,6V215c0,0.9,0.1,1.5,1.2,1.5h1.8c0.2,0,0.4,0.3,0.4,0.7s-0.1,0.7-0.4,0.7h-11.1c-0.2,0-0.4-0.3-0.4-0.7
			s0.1-0.7,0.4-0.7h2.3c1.1,0,1.2-0.6,1.2-1.5v-14.8c0-0.7-0.2-1.1-0.7-1.1c-0.4,0-2.5,0.4-2.7,0.4c-0.2,0-0.3-0.4-0.3-0.7
			c0-0.2,0-0.5,0.2-0.7C1021.8,198.1,1023.1,197.8,1024.4,197.5z M1043.4,215c0,0.9,0.1,1.5,1.2,1.5h2.3c0.2,0,0.4,0.3,0.4,0.7
			s-0.1,0.7-0.4,0.7h-11.1c-0.2,0-0.4-0.3-0.4-0.7s0.1-0.7,0.4-0.7h1.8c1.1,0,1.2-0.6,1.2-1.5v-11.8c0-3.9-1.4-5.6-4-5.6
			c-1.6,0-2.6,0.9-3.7,1.9c-0.4,0-0.7-0.2-0.7-0.7c1.4-1.6,3-2.6,6-2.6c1.9,0,3.6,0.5,5,1.5c1.4,1,2.1,2.7,2.1,5.1V215z"/>
		<path id="XMLID_2260_" d="M30.8,274c-0.5,0-0.7,0.2-0.7,0.5c0,0.2,0.2,0.7,0.4,1.1l6.2,14.7l-1.8,4H34l-8.6-19.9
			c-0.2-0.4-0.4-0.4-1.1-0.4h-0.7c-0.2,0-0.4-0.3-0.4-0.7s0.1-0.7,0.4-0.7h9.2c0.2,0,0.4,0.3,0.4,0.7S33,274,32.7,274H30.8z
			 M39.9,279.4l-2.1-5c-0.2-0.4-0.4-0.4-1.1-0.4h-0.5c-0.2,0-0.4-0.3-0.4-0.7s0.1-0.7,0.4-0.7h9.7c0.2,0,0.4,0.3,0.4,0.7
			s-0.1,0.7-0.4,0.7h-2.6c-0.5,0-0.7,0.2-0.7,0.5c0,0.2,0.2,0.7,0.4,1.1l6.2,14.7l-1.8,4h-0.9l-5.7-13l-2.8,6.1c-0.2,0-0.3,0-0.4,0
			c-0.4,0-0.7-0.3-0.8-0.7L39.9,279.4z M53.7,275.6c0.1-0.4,0.4-0.8,0.4-1.1c0-0.3-0.2-0.5-0.7-0.5h-2.8c-0.2,0-0.4-0.3-0.4-0.7
			s0.1-0.7,0.4-0.7h7.2c0.2,0,0.4,0.3,0.4,0.7s-0.1,0.7-0.4,0.7H57c-0.7,0-0.9,0.1-1.1,0.4l-5.6,13c-0.2,0-0.3,0-0.4,0
			c-0.4,0-0.7-0.3-0.8-0.7L53.7,275.6z"/>
		<path id="XMLID_2257_" d="M66.5,291c0,0.9,0.1,1.5,1.2,1.5H70c0.2,0,0.4,0.3,0.4,0.7s-0.1,0.7-0.4,0.7H58.4
			c-0.2,0-0.4-0.3-0.4-0.7s0.1-0.7,0.4-0.7h2.3c1.1,0,1.2-0.6,1.2-1.5v-28.3c0-0.7-0.1-1.1-0.8-1.1c-0.7,0-2.6,0.4-3.3,0.6
			c-0.2,0-0.4-0.4-0.4-0.7c0-0.2,0-0.5,0.2-0.7c1.2-0.3,2.5-0.6,3.9-1c1.4-0.4,2.3-0.6,3-0.8c0.7-0.2,1.2-0.5,1.6-0.5
			s0.5,0.2,0.5,0.7c0,0.5-0.2,1.9-0.2,6V291z M81.1,291c0,0.9,0.1,1.5,1.2,1.5h2.3c0.2,0,0.4,0.3,0.4,0.7s-0.1,0.7-0.4,0.7H73.6
			c-0.2,0-0.4-0.3-0.4-0.7s0.1-0.7,0.4-0.7h1.8c1.1,0,1.2-0.6,1.2-1.5v-11.8c0-3.9-1.4-5.6-4-5.6c-1.6,0-2.6,0.9-3.7,1.9
			c-0.4,0-0.7-0.2-0.7-0.7c1.4-1.6,3-2.6,6-2.6c1.9,0,3.6,0.5,5,1.5c1.4,1,2.1,2.7,2.1,5.1V291z"/>
		<path id="XMLID_2254_" d="M93.5,289.8c0.6,1.9,1.9,3.1,4,3.7c0.2,0,0.2,0.2,0.2,0.4c0,0.2,0,0.4-0.2,0.4c-3-0.2-5.5-1.4-7.2-3.5
			c-1.8-2.2-2.6-4.7-2.6-7.6s0.9-5.5,2.6-7.6c1.8-2.2,4.2-3.3,7.2-3.5c0.2,0,0.2,0.3,0.2,0.4c0,0.2,0,0.4-0.2,0.4
			c-2.1,0.5-3.5,1.8-4,3.7c-0.6,1.9-0.9,4.1-0.9,6.6S92.9,287.9,93.5,289.8z M103.8,289.8c0.6-1.9,0.9-4.1,0.9-6.6s-0.3-4.7-0.9-6.6
			c-0.6-1.9-1.9-3.1-4-3.7c-0.2,0-0.2-0.2-0.2-0.4c0-0.2,0-0.4,0.2-0.4c3,0.2,5.5,1.3,7.2,3.5s2.6,4.7,2.6,7.6s-0.9,5.4-2.6,7.6
			c-1.8,2.2-4.2,3.3-7.2,3.5c-0.2,0-0.2-0.3-0.2-0.4c0-0.2,0-0.4,0.2-0.4C101.9,292.9,103.3,291.7,103.8,289.8z"/>
		<path id="XMLID_2251_" d="M127,273.5c1.3-0.4,2.1-0.6,2.5-0.7c0.7-0.2,1.2-0.5,1.6-0.5c0.4,0,0.5,0.2,0.5,0.7c0,0.5-0.2,1.9-0.2,6
			V291c0,0.9,0.1,1.5,1.2,1.5h2.3c0.2,0,0.4,0.3,0.4,0.7s-0.1,0.7-0.4,0.7h-11.6c-0.2,0-0.4-0.3-0.4-0.7s0.1-0.7,0.4-0.7h2.3
			c1.1,0,1.2-0.6,1.2-1.5v-14.8c0-0.7-0.2-1.1-0.7-1.1c-0.4,0-2.5,0.4-2.7,0.4c-0.2,0-0.3-0.4-0.3-0.7c0-0.2,0-0.5,0.2-0.7
			C124.5,274.1,125.7,273.8,127,273.5z M127.1,263.2c0-1.5,1.2-2.5,2.5-2.5s2.5,0.9,2.5,2.5s-1.2,2.5-2.5,2.5
			S127.1,264.7,127.1,263.2z"/>
		<path id="XMLID_2249_" d="M150.8,289.4c0-2.9-1.9-4.6-5.8-5c-3.9-0.4-5.8-2.6-5.8-6.5c0-3.5,2.8-5.8,6.7-5.8
			c2.6,0,3.9,0.7,5.3,0.7c0.9,0,0.8-0.7,1.2-0.7h0.2c0.4,0,0.4,0.2,0.4,0.5v1.1c0,1.3,0.4,4,0.7,4.9c-0.1,0.4-0.7,0.6-1.1,0.4
			c-1.6-4.2-4-5.8-6.7-5.8c-2.1,0-3.5,1.2-3.5,3.3c0,2.6,2,4.2,6.1,4.6c4,0.4,6.1,2.6,6.1,6.5c0,1.9-0.7,3.5-2.2,4.8
			c-1.5,1.3-3.3,1.9-5.6,1.9c-2.1,0-4-0.5-5.3-1.2c-0.5,0.5-1.2,1.2-1.6,1.2c-0.2,0-0.4,0-0.5-0.2v-0.5c0-2.3-0.4-4.8-1.2-6.9
			c0.2-0.4,1-0.4,1.2-0.2c1.5,3.9,4.2,6.5,7.4,6.5C149.2,293.1,150.8,291.9,150.8,289.4z"/>
		<path id="XMLID_2247_" d="M176.9,280.8c-0.2,0-0.4-0.1-0.4-0.5c0-0.4,0.1-0.6,0.4-0.6h6.3c0-0.7,0.1-1.1,0.1-1.7
			c0-2.8-1.1-4.8-3.8-4.8c-3.3,0-5.6,3.5-5.6,9c0,6.5,2.3,10.6,7.2,10.6c2.6,0,4.7-1.6,5.9-2.8c0.4,0,0.6,0.3,0.6,0.5
			c0,0.2,0,0.4-0.2,0.5c-0.3,0.4-1.1,1-2.3,1.9c-1.3,0.9-3.1,1.4-5.6,1.4c-2.8,0-5.3-0.9-7.4-2.7c-2.1-1.8-3.2-4.6-3.2-8.4
			c0-3.2,1-5.9,3.1-8c2-2.1,4.5-3.1,7.5-3.1c5.6,0,8.6,3.3,8.6,8.1c0,0.4-0.2,0.5-0.5,0.5H176.9z"/>
		<path id="XMLID_2243_" d="M197.5,289.2c-1.2,1.8-1.5,2.2-1.5,2.6c0,0.4,0.3,0.6,0.8,0.6h1.6c0.2,0,0.4,0.3,0.4,0.7
			s-0.1,0.7-0.4,0.7h-7.9c-0.2,0-0.4-0.3-0.4-0.7s0.1-0.7,0.4-0.7h1.4c1.2,0,1.9-0.3,2.8-1.7l3.3-4.8h0.1c0.5,0,0.9,0.3,0.9,0.9
			L197.5,289.2z M194.3,275.3c-0.7-1.1-1.6-1.3-3.2-1.3h-0.5c-0.2,0-0.4-0.3-0.4-0.7s0.1-0.7,0.4-0.7h11.1c0.2,0,0.4,0.3,0.4,0.7
			s-0.1,0.7-0.4,0.7h-2.1c-0.4,0-0.7,0.2-0.7,0.5s0.3,0.8,0.5,1.1l9.9,15.5c0.6,0.9,1.4,1.3,3.2,1.3h0.5c0.2,0,0.4,0.3,0.4,0.7
			s-0.1,0.7-0.4,0.7h-11.1c-0.2,0-0.4-0.3-0.4-0.7s0.1-0.7,0.4-0.7h2.1c0.4,0,0.7-0.2,0.7-0.5c0-0.4-0.3-0.7-0.5-1.1L194.3,275.3z
			 M205.6,280.6h-0.1c-0.5,0-0.9-0.3-0.9-0.9l1.6-2.3c1.2-1.8,1.5-2.4,1.5-2.8c0-0.4-0.3-0.6-0.8-0.6h-1.6c-0.2,0-0.4-0.3-0.4-0.7
			s0.1-0.7,0.4-0.7h7.7c0.2,0,0.4,0.3,0.4,0.7s-0.1,0.7-0.4,0.7h-1.2c-1.2,0-1.9,0.3-2.8,1.7L205.6,280.6z"/>
		<path id="XMLID_2240_" d="M218.9,273.5c1.3-0.4,2.1-0.6,2.5-0.7c0.7-0.2,1.2-0.5,1.6-0.5c0.4,0,0.5,0.2,0.5,0.7
			c0,0.5-0.2,1.9-0.2,6v10.2c0.5,2.3,1.9,4.1,3.9,4.4c0.2,0,0.3,0.2,0.3,0.4c0,0.2-0.1,0.4-0.3,0.4c-1.6,0-2.8-0.5-3.9-1.1v10.6
			c0,0.9,0.1,1.5,1.2,1.5h2.6c0.2,0,0.4,0.3,0.4,0.7c0,0.4-0.1,0.7-0.4,0.7h-12c-0.2,0-0.4-0.3-0.4-0.7c0-0.4,0.1-0.7,0.4-0.7h2.3
			c1.1,0,1.2-0.6,1.2-1.5v-27.6c0-0.7-0.2-1.1-0.7-1.1c-0.4,0-2.5,0.4-2.7,0.4c-0.2,0-0.3-0.4-0.3-0.7c0-0.2,0-0.5,0.2-0.7
			C216.4,274.1,217.6,273.8,218.9,273.5z M225.8,275c-0.4,0-0.5-0.3-0.5-0.5s0-0.4,0.2-0.5c0.9-0.9,2.5-1.8,5.1-1.8
			c2.8,0,5.1,1,7,2.9c1.9,2,2.8,4.6,2.8,7.8c0,3-1,5.7-2.9,7.9c-2,2.2-4.7,3.4-8.2,3.6c-0.2,0-0.3-0.3-0.3-0.4c0-0.2,0-0.4,0.3-0.4
			c4.4-0.7,6.2-4.3,6.2-10.4c0-2.7-0.5-5-1.5-6.8c-1-1.8-2.5-2.7-4.5-2.7C227.9,273.6,226.9,274.1,225.8,275z"/>
		<path id="XMLID_2238_" d="M252.4,280.8c-0.2,0-0.4-0.1-0.4-0.5c0-0.4,0.1-0.6,0.4-0.6h6.3c0-0.7,0.1-1.1,0.1-1.7
			c0-2.8-1.1-4.8-3.8-4.8c-3.3,0-5.6,3.5-5.6,9c0,6.5,2.3,10.6,7.2,10.6c2.6,0,4.7-1.6,5.9-2.8c0.4,0,0.6,0.3,0.6,0.5
			c0,0.2,0,0.4-0.2,0.5c-0.3,0.4-1.1,1-2.3,1.9c-1.3,0.9-3.1,1.4-5.6,1.4c-2.8,0-5.3-0.9-7.4-2.7c-2.1-1.8-3.2-4.6-3.2-8.4
			c0-3.2,1-5.9,3.1-8c2-2.1,4.5-3.1,7.5-3.1c5.6,0,8.6,3.3,8.6,8.1c0,0.4-0.2,0.5-0.5,0.5H252.4z"/>
		<path id="XMLID_2235_" d="M270.6,273.5c1.3-0.4,2.1-0.6,2.5-0.7c0.7-0.2,1.2-0.5,1.6-0.5c0.4,0,0.5,0.2,0.5,0.7
			c0,0.5-0.2,1.9-0.2,6V291c0,0.9,0.1,1.5,1.2,1.5h3c0.2,0,0.4,0.3,0.4,0.7s-0.1,0.7-0.4,0.7H267c-0.2,0-0.4-0.3-0.4-0.7
			s0.1-0.7,0.4-0.7h2.3c1.1,0,1.2-0.6,1.2-1.5v-14.8c0-0.7-0.2-1.1-0.7-1.1c-0.4,0-2.5,0.4-2.7,0.4c-0.2,0-0.3-0.4-0.3-0.7
			c0-0.2,0-0.5,0.2-0.7C268.1,274.1,269.4,273.8,270.6,273.5z M277.2,276.2c-0.4,0-0.7-0.3-0.7-0.7c1.8-2.5,3.3-3.3,5.6-3.3
			s4,1.3,4,3.4c0,1.9-1.2,3.1-2.8,3.1c-1.6,0-2.5-1.1-2.5-2.1c0-1.5,0.9-1.5,0.9-2.5c0-0.4-0.4-0.5-0.9-0.5
			C279.5,273.6,278.1,274.9,277.2,276.2z"/>
		<path id="XMLID_2232_" d="M292.1,273.5c1.3-0.4,2.1-0.6,2.5-0.7c0.7-0.2,1.2-0.5,1.6-0.5c0.4,0,0.5,0.2,0.5,0.7
			c0,0.5-0.2,1.9-0.2,6V291c0,0.9,0.1,1.5,1.2,1.5h2.3c0.2,0,0.4,0.3,0.4,0.7s-0.1,0.7-0.4,0.7h-11.6c-0.2,0-0.4-0.3-0.4-0.7
			s0.1-0.7,0.4-0.7h2.3c1.1,0,1.2-0.6,1.2-1.5v-14.8c0-0.7-0.2-1.1-0.7-1.1c-0.4,0-2.5,0.4-2.7,0.4c-0.2,0-0.3-0.4-0.3-0.7
			c0-0.2,0-0.5,0.2-0.7C289.6,274.1,290.8,273.8,292.1,273.5z M292.2,263.2c0-1.5,1.2-2.5,2.5-2.5s2.5,0.9,2.5,2.5s-1.2,2.5-2.5,2.5
			S292.2,264.7,292.2,263.2z"/>
		<path id="XMLID_2230_" d="M310.8,280.8c-0.2,0-0.4-0.1-0.4-0.5c0-0.4,0.1-0.6,0.4-0.6h6.3c0-0.7,0.1-1.1,0.1-1.7
			c0-2.8-1.1-4.8-3.8-4.8c-3.3,0-5.6,3.5-5.6,9c0,6.5,2.3,10.6,7.2,10.6c2.6,0,4.7-1.6,5.9-2.8c0.4,0,0.6,0.3,0.6,0.5
			c0,0.2,0,0.4-0.2,0.5c-0.3,0.4-1.1,1-2.3,1.9c-1.3,0.9-3.1,1.4-5.6,1.4c-2.8,0-5.3-0.9-7.4-2.7c-2.1-1.8-3.2-4.6-3.2-8.4
			c0-3.2,1-5.9,3.1-8c2-2.1,4.5-3.1,7.5-3.1c5.6,0,8.6,3.3,8.6,8.1c0,0.4-0.2,0.5-0.5,0.5H310.8z"/>
		<path id="XMLID_2227_" d="M329.1,273.5c1.3-0.4,2.1-0.6,2.5-0.7c0.7-0.2,1.2-0.5,1.6-0.5c0.4,0,0.5,0.2,0.5,0.7
			c0,0.5-0.2,1.9-0.2,6V291c0,0.9,0.1,1.5,1.2,1.5h1.8c0.2,0,0.4,0.3,0.4,0.7s-0.1,0.7-0.4,0.7h-11.1c-0.2,0-0.4-0.3-0.4-0.7
			s0.1-0.7,0.4-0.7h2.3c1.1,0,1.2-0.6,1.2-1.5v-14.8c0-0.7-0.2-1.1-0.7-1.1c-0.4,0-2.5,0.4-2.7,0.4c-0.2,0-0.3-0.4-0.3-0.7
			c0-0.2,0-0.5,0.2-0.7C326.6,274.1,327.8,273.8,329.1,273.5z M348.1,291c0,0.9,0.1,1.5,1.2,1.5h2.3c0.2,0,0.4,0.3,0.4,0.7
			s-0.1,0.7-0.4,0.7h-11.1c-0.2,0-0.4-0.3-0.4-0.7s0.1-0.7,0.4-0.7h1.8c1.1,0,1.2-0.6,1.2-1.5v-11.8c0-3.9-1.4-5.6-4-5.6
			c-1.6,0-2.6,0.9-3.7,1.9c-0.4,0-0.7-0.2-0.7-0.7c1.4-1.6,3-2.6,6-2.6c1.9,0,3.6,0.5,5,1.5c1.4,1,2.1,2.7,2.1,5.1V291z"/>
		<path id="XMLID_2225_" d="M359.6,282.6c0,6.1,2.3,10.2,7,10.2c1.7,0,3-0.4,4-1.1c1-0.7,1.8-1.4,2.4-2c0.4,0,0.6,0.3,0.6,0.5
			c0,0.2,0,0.4-0.2,0.5c-0.3,0.4-1.1,1.1-2.3,2.1c-1.3,1.1-3.1,1.6-5.6,1.6c-6.6,0-10.9-4.1-10.9-10.9c0-3.5,1.1-6.2,3.3-8.3
			c2.2-2,4.9-3,7.9-3c2.1,0,3.9,0.5,5.4,1.5c1.5,1,2.2,2.3,2.2,3.9c0,1.6-1.2,2.7-2.6,2.7c-1.4,0-2.5-0.9-2.5-2.5
			c0-1.1,0.7-2.1,1.8-2.3c-0.4-1.6-1.9-2.3-4-2.3C362.2,273.2,359.6,276.3,359.6,282.6z"/>
		<path id="XMLID_2223_" d="M384.7,280.8c-0.2,0-0.4-0.1-0.4-0.5c0-0.4,0.1-0.6,0.4-0.6h6.3c0-0.7,0.1-1.1,0.1-1.7
			c0-2.8-1.1-4.8-3.8-4.8c-3.3,0-5.6,3.5-5.6,9c0,6.5,2.3,10.6,7.2,10.6c2.6,0,4.7-1.6,5.9-2.8c0.4,0,0.6,0.3,0.6,0.5
			c0,0.2,0,0.4-0.2,0.5c-0.3,0.4-1.1,1-2.3,1.9c-1.3,0.9-3.1,1.4-5.6,1.4c-2.8,0-5.3-0.9-7.4-2.7c-2.1-1.8-3.2-4.6-3.2-8.4
			c0-3.2,1-5.9,3.1-8c2-2.1,4.5-3.1,7.5-3.1c5.6,0,8.6,3.3,8.6,8.1c0,0.4-0.2,0.5-0.5,0.5H384.7z"/>
		<path id="XMLID_2220_" d="M413.8,291.5c0.4,0,0.5,0.3,0.5,0.5c0,0.2,0,0.4-0.2,0.5c-0.9,0.9-2.5,1.8-5.1,1.8
			c-2.4,0-4.6-0.9-6.7-2.6c-2.1-1.7-3.2-4.5-3.2-8.3c0-3.4,1.1-6.1,3.4-8.2c2.2-2.1,4.9-3.1,8.1-3.1c1.4,0,2.3,0.2,3,0.5
			c0.4,0.4,0.2,1.1-0.2,1.2c-0.7-0.5-1.6-0.7-2.8-0.7c-4.2,0-6.5,3.7-6.5,9.7s1.8,10,6,10C411.7,292.9,412.7,292.4,413.8,291.5z
			 M420.8,290.3c0,0.7,0.2,1.1,0.7,1.1c0.2,0,2.2-0.5,2.6-0.5c0.2,0.1,0.4,0.4,0.4,0.7c0,0.2,0,0.5-0.2,0.7
			c-0.6,0.1-1.5,0.4-2.6,0.7c-1.2,0.4-2.2,0.7-3.1,1c-0.6,0.2-1.4,0.5-1.8,0.5c-0.4,0-0.5-0.2-0.5-0.7v-31c0-0.7-0.1-1.1-0.8-1.1
			c-0.7,0-2.6,0.4-3.3,0.6c-0.2,0-0.4-0.4-0.4-0.7c0-0.2,0-0.5,0.2-0.7c1.2-0.3,2.5-0.6,3.9-1c1.4-0.4,2.3-0.6,3-0.8
			c0.7-0.2,1.2-0.5,1.6-0.5c0.4,0,0.5,0.2,0.5,0.7c0,0.5-0.2,1.9-0.2,6V290.3z"/>
		<path id="XMLID_2217_" d="M441.4,273.5c1.3-0.4,2.1-0.6,2.5-0.7c0.7-0.2,1.2-0.5,1.6-0.5c0.4,0,0.5,0.2,0.5,0.7
			c0,0.5-0.2,1.9-0.2,6V291c0,0.9,0.1,1.5,1.2,1.5h2.3c0.2,0,0.4,0.3,0.4,0.7s-0.1,0.7-0.4,0.7h-11.6c-0.2,0-0.4-0.3-0.4-0.7
			s0.1-0.7,0.4-0.7h2.3c1.1,0,1.2-0.6,1.2-1.5v-14.8c0-0.7-0.2-1.1-0.7-1.1c-0.4,0-2.5,0.4-2.7,0.4c-0.2,0-0.3-0.4-0.3-0.7
			c0-0.2,0-0.5,0.2-0.7C438.8,274.1,440.1,273.8,441.4,273.5z M441.4,263.2c0-1.5,1.2-2.5,2.5-2.5s2.5,0.9,2.5,2.5s-1.2,2.5-2.5,2.5
			S441.4,264.7,441.4,263.2z"/>
		<path id="XMLID_2214_" d="M456,273.5c1.3-0.4,2.1-0.6,2.5-0.7c0.7-0.2,1.2-0.5,1.6-0.5c0.4,0,0.5,0.2,0.5,0.7c0,0.5-0.2,1.9-0.2,6
			V291c0,0.9,0.1,1.5,1.2,1.5h1.8c0.2,0,0.4,0.3,0.4,0.7s-0.1,0.7-0.4,0.7h-11.1c-0.2,0-0.4-0.3-0.4-0.7s0.1-0.7,0.4-0.7h2.3
			c1.1,0,1.2-0.6,1.2-1.5v-14.8c0-0.7-0.2-1.1-0.7-1.1c-0.4,0-2.5,0.4-2.7,0.4c-0.2,0-0.3-0.4-0.3-0.7c0-0.2,0-0.5,0.2-0.7
			C453.5,274.1,454.7,273.8,456,273.5z M475,291c0,0.9,0.1,1.5,1.2,1.5h2.3c0.2,0,0.4,0.3,0.4,0.7s-0.1,0.7-0.4,0.7h-11.1
			c-0.2,0-0.4-0.3-0.4-0.7s0.1-0.7,0.4-0.7h1.8c1.1,0,1.2-0.6,1.2-1.5v-11.8c0-3.9-1.4-5.6-4-5.6c-1.6,0-2.6,0.9-3.7,1.9
			c-0.4,0-0.7-0.2-0.7-0.7c1.4-1.6,3-2.6,6-2.6c1.9,0,3.6,0.5,5,1.5c1.4,1,2.1,2.7,2.1,5.1V291z"/>
		<path id="XMLID_2212_" d="M520.2,290.5c-2.6,1.9-6.3,3.9-12,3.9c-4.4,0-8.2-1.6-11.5-4.8c-3.3-3.1-5-7.4-5-12.8
			c0-5.1,1.5-9.3,4.7-12.5c3.1-3.2,7.3-4.8,12.4-4.8c2.6,0,4.6,0.4,5.8,1.1c1.2,0.7,2.2,1.1,2.9,1.1c0.5,0,0.9-0.4,0.9-1.2
			c0-0.5,0.2-0.5,0.5-0.5h0.4c0.4,0,0.5,0,0.5,0.5c0,1,0.1,2.3,0.4,4.1c0.2,1.8,0.5,3.2,0.9,4.4c0,0.2-0.4,0.3-0.8,0.3
			c-0.3,0-0.5-0.1-0.6-0.1c-2.5-5.8-5.8-8.7-10.7-8.7c-3.2,0-5.9,1.4-7.9,4.2s-3,6.8-3,12c0,4.7,1,8.6,2.9,11.7
			c1.9,3.1,4.6,4.7,8.1,4.7c2.6,0,4.8-0.6,6.4-1.5l-0.1-8.4c0-1.4-0.5-1.9-1.9-1.9h-2.3c-0.2,0-0.4-0.3-0.4-0.7
			c0-0.4,0.1-0.7,0.4-0.7h13.5c0.2,0,0.4,0.3,0.4,0.7c0,0.4-0.1,0.7-0.4,0.7h-2.1c-1.4,0-1.9,0.5-1.9,1.9L520.2,290.5z"/>
		<path id="XMLID_2209_" d="M530.3,273.5c1.3-0.4,2.1-0.6,2.5-0.7c0.7-0.2,1.2-0.5,1.6-0.5c0.4,0,0.5,0.2,0.5,0.7
			c0,0.5-0.2,1.9-0.2,6V291c0,0.9,0.1,1.5,1.2,1.5h3c0.2,0,0.4,0.3,0.4,0.7s-0.1,0.7-0.4,0.7h-12.3c-0.2,0-0.4-0.3-0.4-0.7
			s0.1-0.7,0.4-0.7h2.3c1.1,0,1.2-0.6,1.2-1.5v-14.8c0-0.7-0.2-1.1-0.7-1.1c-0.4,0-2.5,0.4-2.7,0.4c-0.2,0-0.3-0.4-0.3-0.7
			c0-0.2,0-0.5,0.2-0.7C527.8,274.1,529,273.8,530.3,273.5z M536.9,276.2c-0.4,0-0.7-0.3-0.7-0.7c1.8-2.5,3.3-3.3,5.6-3.3
			s4,1.3,4,3.4c0,1.9-1.2,3.1-2.8,3.1c-1.6,0-2.5-1.1-2.5-2.1c0-1.5,0.9-1.5,0.9-2.5c0-0.4-0.4-0.5-0.9-0.5
			C539.2,273.6,537.8,274.9,536.9,276.2z"/>
		<path id="XMLID_2206_" d="M556.8,293.4c-0.9,0.7-2.1,1-3.6,1c-3,0-5.5-1.4-5.5-4.8c0-4,4.1-6.2,10-6.9c0.1,0,0.2,0.2,0.2,0.4
			c0,0.2-0.1,0.4-0.2,0.4c-4,0.7-5.6,2.6-5.6,5.5c0,2.1,1.2,3.3,3,3.3c1.2,0,2.1-0.5,3-1.4c0.2,0,0.4,0.2,0.4,0.4c0,0,0,0.2-0.1,0.3
			C558.2,292.2,557.6,292.7,556.8,293.4z M551.5,275c1.4,0.4,2.1,1.1,2.1,2.5s-1.2,2.5-2.5,2.5c-1.6,0-2.5-1.2-2.5-2.6
			s0.7-2.6,2.2-3.6s3.3-1.5,5.4-1.5c5.3,0,8.4,2.1,8.4,6.9c0,2.2,0,4-0.1,5.6s-0.1,3.4-0.1,5.5c0,1.8,0.5,2.5,1.6,2.5
			c1.2,0,2.1-0.9,2.8-1.6c0.5,0,0.7,0.6,0.5,0.8c-0.9,1.3-3,2.6-5.1,2.6c-3,0-4.4-1.6-4.4-5.3c0-2.8,0.2-6.2,0.2-10.4
			s-1.2-5.5-4-5.5C554.1,273.2,552.5,273.6,551.5,275z"/>
		<path id="XMLID_2203_" d="M573.6,273.5c1.3-0.4,2.1-0.6,2.5-0.7c0.7-0.2,1.2-0.5,1.6-0.5c0.4,0,0.5,0.2,0.5,0.7
			c0,0.5-0.2,1.9-0.2,6v10.2c0.5,2.3,1.9,4.1,3.9,4.4c0.2,0,0.3,0.2,0.3,0.4c0,0.2-0.1,0.4-0.3,0.4c-1.6,0-2.8-0.5-3.9-1.1v10.6
			c0,0.9,0.1,1.5,1.2,1.5h2.6c0.2,0,0.4,0.3,0.4,0.7c0,0.4-0.1,0.7-0.4,0.7h-12c-0.2,0-0.4-0.3-0.4-0.7c0-0.4,0.1-0.7,0.4-0.7h2.3
			c1.1,0,1.2-0.6,1.2-1.5v-27.6c0-0.7-0.2-1.1-0.7-1.1c-0.4,0-2.5,0.4-2.7,0.4c-0.2,0-0.3-0.4-0.3-0.7c0-0.2,0-0.5,0.2-0.7
			C571.1,274.1,572.3,273.8,573.6,273.5z M580.5,275c-0.4,0-0.5-0.3-0.5-0.5s0-0.4,0.2-0.5c0.9-0.9,2.5-1.8,5.1-1.8
			c2.8,0,5.1,1,7,2.9c1.9,2,2.8,4.6,2.8,7.8c0,3-1,5.7-2.9,7.9c-2,2.2-4.7,3.4-8.2,3.6c-0.2,0-0.3-0.3-0.3-0.4c0-0.2,0-0.4,0.3-0.4
			c4.4-0.7,6.2-4.3,6.2-10.4c0-2.7-0.5-5-1.5-6.8c-1-1.8-2.5-2.7-4.5-2.7C582.6,273.6,581.6,274.1,580.5,275z"/>
		<path id="XMLID_2200_" d="M606,291c0,0.9,0.1,1.5,1.2,1.5h2.3c0.2,0,0.4,0.3,0.4,0.7s-0.1,0.7-0.4,0.7h-11.6
			c-0.2,0-0.4-0.3-0.4-0.7s0.1-0.7,0.4-0.7h2.3c1.1,0,1.2-0.6,1.2-1.5v-28.3c0-0.7-0.1-1.1-0.8-1.1c-0.7,0-2.6,0.4-3.3,0.6
			c-0.2,0-0.4-0.4-0.4-0.7c0-0.2,0-0.5,0.2-0.7c1.2-0.3,2.5-0.6,3.9-1c1.4-0.4,2.3-0.6,3-0.8c0.7-0.2,1.2-0.5,1.6-0.5
			s0.5,0.2,0.5,0.7c0,0.5-0.2,1.9-0.2,6V291z M620.7,291c0,0.9,0.1,1.5,1.2,1.5h2.3c0.2,0,0.4,0.3,0.4,0.7s-0.1,0.7-0.4,0.7h-11.1
			c-0.2,0-0.4-0.3-0.4-0.7s0.1-0.7,0.4-0.7h1.8c1.1,0,1.2-0.6,1.2-1.5v-11.8c0-3.9-1.4-5.6-4-5.6c-1.6,0-2.6,0.9-3.7,1.9
			c-0.4,0-0.7-0.2-0.7-0.7c1.4-1.6,3-2.6,6-2.6c1.9,0,3.6,0.5,5,1.5c1.4,1,2.1,2.7,2.1,5.1V291z"/>
		<path id="XMLID_2197_" d="M630.6,273.5c1.3-0.4,2.1-0.6,2.5-0.7c0.7-0.2,1.2-0.5,1.6-0.5c0.4,0,0.5,0.2,0.5,0.7
			c0,0.5-0.2,1.9-0.2,6V291c0,0.9,0.1,1.5,1.2,1.5h2.3c0.2,0,0.4,0.3,0.4,0.7s-0.1,0.7-0.4,0.7H627c-0.2,0-0.4-0.3-0.4-0.7
			s0.1-0.7,0.4-0.7h2.3c1.1,0,1.2-0.6,1.2-1.5v-14.8c0-0.7-0.2-1.1-0.7-1.1c-0.4,0-2.5,0.4-2.7,0.4c-0.2,0-0.3-0.4-0.3-0.7
			c0-0.2,0-0.5,0.2-0.7C628.1,274.1,629.4,273.8,630.6,273.5z M630.7,263.2c0-1.5,1.2-2.5,2.5-2.5s2.5,0.9,2.5,2.5s-1.2,2.5-2.5,2.5
			S630.7,264.7,630.7,263.2z"/>
		<path id="XMLID_2195_" d="M646.3,282.6c0,6.1,2.3,10.2,7,10.2c1.7,0,3-0.4,4-1.1c1-0.7,1.8-1.4,2.4-2c0.4,0,0.6,0.3,0.6,0.5
			c0,0.2,0,0.4-0.2,0.5c-0.3,0.4-1.1,1.1-2.3,2.1c-1.3,1.1-3.1,1.6-5.6,1.6c-6.6,0-10.9-4.1-10.9-10.9c0-3.5,1.1-6.2,3.3-8.3
			c2.2-2,4.9-3,7.9-3c2.1,0,3.9,0.5,5.4,1.5c1.5,1,2.2,2.3,2.2,3.9c0,1.6-1.2,2.7-2.6,2.7c-1.4,0-2.5-0.9-2.5-2.5
			c0-1.1,0.7-2.1,1.8-2.3c-0.4-1.6-1.9-2.3-4-2.3C649,273.2,646.3,276.3,646.3,282.6z"/>
		<path id="XMLID_2192_" d="M689.1,291.5c0.4,0,0.5,0.3,0.5,0.5c0,0.2,0,0.4-0.2,0.5c-0.9,0.9-2.5,1.8-5.1,1.8
			c-2.4,0-4.6-0.9-6.7-2.6c-2.1-1.7-3.2-4.5-3.2-8.3c0-3.4,1.1-6.1,3.4-8.2s4.9-3.1,8.1-3.1c1.4,0,2.3,0.2,3,0.5
			c0.4,0.4,0.2,1.1-0.2,1.2c-0.7-0.5-1.6-0.7-2.8-0.7c-4.2,0-6.5,3.7-6.5,9.7s1.8,10,6,10C687,292.9,688.1,292.4,689.1,291.5z
			 M696.2,290.3c0,0.7,0.2,1.1,0.7,1.1c0.2,0,2.2-0.5,2.6-0.5c0.2,0.1,0.4,0.4,0.4,0.7c0,0.2,0,0.5-0.2,0.7
			c-0.6,0.1-1.5,0.4-2.6,0.7c-1.2,0.4-2.2,0.7-3.1,1c-0.6,0.2-1.4,0.5-1.8,0.5c-0.4,0-0.5-0.2-0.5-0.7v-31c0-0.7-0.1-1.1-0.8-1.1
			c-0.7,0-2.6,0.4-3.3,0.6c-0.2,0-0.4-0.4-0.4-0.7c0-0.2,0-0.5,0.2-0.7c1.2-0.3,2.5-0.6,3.9-1c1.4-0.4,2.3-0.6,3-0.8
			c0.7-0.2,1.2-0.5,1.6-0.5c0.4,0,0.5,0.2,0.5,0.7c0,0.5-0.2,1.9-0.2,6V290.3z"/>
		<path id="XMLID_2190_" d="M710.4,280.8c-0.2,0-0.4-0.1-0.4-0.5c0-0.4,0.1-0.6,0.4-0.6h6.3c0-0.7,0.1-1.1,0.1-1.7
			c0-2.8-1.1-4.8-3.8-4.8c-3.3,0-5.6,3.5-5.6,9c0,6.5,2.3,10.6,7.2,10.6c2.6,0,4.7-1.6,5.9-2.8c0.4,0,0.6,0.3,0.6,0.5
			c0,0.2,0,0.4-0.2,0.5c-0.3,0.4-1.1,1-2.3,1.9c-1.3,0.9-3.1,1.4-5.6,1.4c-2.8,0-5.3-0.9-7.4-2.7c-2.1-1.8-3.2-4.6-3.2-8.4
			c0-3.2,1-5.9,3.1-8c2-2.1,4.5-3.1,7.5-3.1c5.6,0,8.6,3.3,8.6,8.1c0,0.4-0.2,0.5-0.5,0.5H710.4z"/>
		<path id="XMLID_2188_" d="M737.5,289.4c0-2.9-1.9-4.6-5.8-5c-3.9-0.4-5.8-2.6-5.8-6.5c0-3.5,2.8-5.8,6.7-5.8
			c2.6,0,3.9,0.7,5.3,0.7c0.9,0,0.8-0.7,1.2-0.7h0.2c0.4,0,0.4,0.2,0.4,0.5v1.1c0,1.3,0.4,4,0.7,4.9c-0.1,0.4-0.7,0.6-1.1,0.4
			c-1.6-4.2-4-5.8-6.7-5.8c-2.1,0-3.5,1.2-3.5,3.3c0,2.6,2,4.2,6.1,4.6s6.1,2.6,6.1,6.5c0,1.9-0.7,3.5-2.2,4.8s-3.3,1.9-5.6,1.9
			c-2.1,0-4-0.5-5.3-1.2c-0.5,0.5-1.2,1.2-1.6,1.2c-0.2,0-0.4,0-0.5-0.2v-0.5c0-2.3-0.4-4.8-1.2-6.9c0.2-0.4,1-0.4,1.2-0.2
			c1.5,3.9,4.2,6.5,7.4,6.5C735.9,293.1,737.5,291.9,737.5,289.4z"/>
		<path id="XMLID_2185_" d="M748.2,273.5c1.3-0.4,2.1-0.6,2.5-0.7c0.7-0.2,1.2-0.5,1.6-0.5c0.4,0,0.5,0.2,0.5,0.7
			c0,0.5-0.2,1.9-0.2,6V291c0,0.9,0.1,1.5,1.2,1.5h2.3c0.2,0,0.4,0.3,0.4,0.7s-0.1,0.7-0.4,0.7h-11.6c-0.2,0-0.4-0.3-0.4-0.7
			s0.1-0.7,0.4-0.7h2.3c1.1,0,1.2-0.6,1.2-1.5v-14.8c0-0.7-0.2-1.1-0.7-1.1c-0.4,0-2.5,0.4-2.7,0.4c-0.2,0-0.3-0.4-0.3-0.7
			c0-0.2,0-0.5,0.2-0.7C745.7,274.1,746.9,273.8,748.2,273.5z M748.3,263.2c0-1.5,1.2-2.5,2.5-2.5s2.5,0.9,2.5,2.5s-1.2,2.5-2.5,2.5
			S748.3,264.7,748.3,263.2z"/>
		<path id="XMLID_2179_" d="M763.4,297.9c-0.5,0.3-1.2,1-1.2,2.2c0,1.3,0.7,2.3,2.2,2.9c1.5,0.6,3.2,0.9,5.2,0.9
			c1.7,0,3.4-0.2,5.2-0.6c1.8-0.4,3.2-1.1,4.1-2.2c0.2-0.1,0.5-0.1,0.7,0c-0.5,1.1-1.6,2.3-3.4,3.7c-1.8,1.4-4.5,2.1-8.1,2.1
			c-2.1,0-4-0.4-5.7-1.3c-1.7-0.8-2.6-2.1-2.6-3.7c0-2.1,1.2-3.5,2.8-4.4C763,297.7,763.3,297.7,763.4,297.9z M762.4,285.5
			c-1.5-1.5-2.2-3.3-2.2-5.5c0-2.2,0.7-4,2.2-5.5s3.3-2.2,5.4-2.3c0.1,0,0.2,0.3,0.2,0.4c0,0.1,0,0.4-0.2,0.4
			c-2.5,0.4-3.2,2.9-3.2,7c0,4,0.7,6.6,3.2,7c0.1,0,0.2,0.3,0.2,0.4c0,0.2,0,0.4-0.2,0.4C765.7,287.8,763.9,287,762.4,285.5z
			 M763.6,290.7c0,1,0.9,1.4,3.2,1.4l7.2,0.4c2.5,0.1,4.1,0.9,4.9,2.3s1.1,3,1.1,4.9c-0.1,0.1-0.5,0.1-0.7,0
			c-0.2-1.4-0.9-2.3-2.1-2.8c-1.2-0.5-2.6-0.7-4.1-0.7l-6.5-0.2c-3.2,0-5.1-1.4-5.1-3.7c0-1.6,1.2-2.8,2.5-3.7
			c0.2-0.1,0.5-0.1,0.7,0C763.9,289.5,763.6,290.2,763.6,290.7z M775.1,274.5c1.5,1.5,2.2,3.3,2.2,5.5c0,2.2-0.7,4-2.2,5.5
			s-3.3,2.2-5.4,2.3c-0.1,0-0.2-0.3-0.2-0.4c0-0.1,0-0.4,0.2-0.4c2.5-0.4,3.2-2.9,3.2-7c0-4-0.7-6.6-3.2-7c-0.1,0-0.2-0.3-0.2-0.4
			c0-0.2,0-0.4,0.2-0.4C771.8,272.3,773.6,273.1,775.1,274.5z M776.6,270.7c-0.5,0.9-0.7,1.5-0.9,2c-0.2,0.2-0.6,0.2-0.9-0.1
			c0.2-2.9,2.3-4.9,4.3-4.9c2.2,0,3.1,1.3,3.1,2.7c0,1.1-0.6,2.3-2.2,2.3c-1.6,0-2.1-1-2.1-1.7c0-0.6,0.4-1.1,0-1.3
			C777.5,269.5,777.1,269.8,776.6,270.7z"/>
		<path id="XMLID_2176_" d="M787.1,273.5c1.3-0.4,2.1-0.6,2.5-0.7c0.7-0.2,1.2-0.5,1.6-0.5c0.4,0,0.5,0.2,0.5,0.7
			c0,0.5-0.2,1.9-0.2,6V291c0,0.9,0.1,1.5,1.2,1.5h1.8c0.2,0,0.4,0.3,0.4,0.7s-0.1,0.7-0.4,0.7h-11.1c-0.2,0-0.4-0.3-0.4-0.7
			s0.1-0.7,0.4-0.7h2.3c1.1,0,1.2-0.6,1.2-1.5v-14.8c0-0.7-0.2-1.1-0.7-1.1c-0.4,0-2.5,0.4-2.7,0.4c-0.2,0-0.3-0.4-0.3-0.7
			c0-0.2,0-0.5,0.2-0.7C784.6,274.1,785.9,273.8,787.1,273.5z M806.2,291c0,0.9,0.1,1.5,1.2,1.5h2.3c0.2,0,0.4,0.3,0.4,0.7
			s-0.1,0.7-0.4,0.7h-11.1c-0.2,0-0.4-0.3-0.4-0.7s0.1-0.7,0.4-0.7h1.8c1.1,0,1.2-0.6,1.2-1.5v-11.8c0-3.9-1.4-5.6-4-5.6
			c-1.6,0-2.6,0.9-3.7,1.9c-0.4,0-0.7-0.2-0.7-0.7c1.4-1.6,3-2.6,6-2.6c1.9,0,3.6,0.5,5,1.5c1.4,1,2.1,2.7,2.1,5.1V291z"/>
		<path id="XMLID_2171_" d="M840.9,290.5c-1.4,2.1-4,3.9-7.9,3.9c-2.7,0-5.1-0.8-7-2.5c-1.9-1.6-2.9-3.9-2.9-6.8
			c0-3.9,2.5-6.3,5.5-7.6c0.4,0,0.5,0.2,0.5,0.7c-1.1,0.9-1.9,2.5-1.9,4.6c0,2.4,0.8,4.4,2.5,6.2c1.6,1.8,3.6,2.7,6,2.7
			c2.3,0,3.9-1.1,4.6-1.9C840.5,289.8,840.9,290,840.9,290.5z M850.6,290.7c1,1.2,1.9,1.8,3.9,1.8h2.3c0.2,0,0.4,0.3,0.4,0.7
			s-0.1,0.7-0.4,0.7h-9.4c-0.4,0-0.5-0.1-0.7-0.4l-16.4-18.3c-1-1.1-2-2.4-2.9-3.7c-1-1.3-1.5-2.9-1.5-4.7c0-4.4,2.5-6.4,6.4-7.3
			c0.2,0,0.4,0.1,0.4,0.5s-0.1,0.5-0.4,0.5c-1.2,0.4-2.9,1.8-2.9,3.7c0,1.3,0.4,2.5,1.1,3.6c0.7,1.1,1.5,1.9,2,2.6L850.6,290.7z
			 M839.3,266.4c0-3.9-1.6-5.5-4.6-5.9c-0.2,0-0.4-0.1-0.4-0.5s0.1-0.5,0.4-0.5c1.8,0,3.7,0.5,5.5,1.6c1.8,1.1,2.8,2.8,2.8,5.1
			c0,1.7-0.6,3.1-1.7,4.2c-1.2,1.2-2.4,2-3.6,2.4c-0.4,0-0.7-0.2-0.7-0.7C838.4,270.9,839.3,268.7,839.3,266.4z M847.4,283.3h-0.1
			c-0.5,0-0.9-0.3-0.9-0.9l2.5-4.4c1.1-1.9,1.3-2.6,1.3-3.3c0-0.4-0.3-0.6-0.8-0.6h-3.5c-0.2,0-0.4-0.3-0.4-0.7s0.1-0.7,0.4-0.7
			h11.6c0.2,0,0.4,0.3,0.4,0.7s-0.1,0.7-0.4,0.7h-3.2c-1.2,0-1.6,0.2-2.5,1.7L847.4,283.3z"/>
		<path id="XMLID_2167_" d="M876.1,269.7c0.1,0,0.3-0.2,0.6-0.2c0.4,0,0.7,0.1,0.8,0.2l-0.2,19.2c0,2.5,0.6,3.5,2,3.5h3.1
			c0.2,0,0.4,0.3,0.4,0.7s-0.1,0.7-0.4,0.7h-11.8c-0.2,0-0.4-0.3-0.4-0.7s0.1-0.7,0.4-0.7h2.7c1.4,0,2-1.1,2-3.3L876.1,269.7z
			 M889.4,294.4L877.7,265c-0.6-1.4-1.1-2.3-1.5-2.8c-0.4-0.5-1.1-0.7-2.1-0.7h-2.5c-0.2,0-0.4-0.3-0.4-0.7s0.1-0.7,0.4-0.7h9.9
			l10.2,26l7.1-17.7c0.1,0,0.4-0.2,0.8-0.2c0.4,0,0.7,0.1,0.9,0.2L890,294.4H889.4z M910.2,261.4c-1.4,0-1.9,0.5-1.9,1.9
			c-0.1,2.6-0.1,4.7-0.1,6.5c0,1.8,0,3.7,0,5.6v2.8c0,1.9,0,3.8,0,5.6c0,1.8,0,4,0.1,6.6c0,1.4,0.5,1.9,1.9,1.9h2.5
			c0.2,0,0.4,0.3,0.4,0.7s-0.1,0.7-0.4,0.7h-14.1c-0.2,0-0.4-0.3-0.4-0.7s0.1-0.7,0.4-0.7h2.1c1.4,0,1.9-0.5,1.9-1.9
			c0.1-2.6,0.1-4.8,0.2-6.6v-5.6v-2.8v-7.3c0-2.9-0.1-5.6-0.2-8.2h10c0.2,0,0.4,0.3,0.4,0.7s-0.1,0.7-0.4,0.7H910.2z"/>
		<path id="XMLID_2164_" d="M923.1,287.3c0,3.9,1.4,5.6,3.9,5.6c1.6,0,2.8-0.9,3.9-1.9c0.4,0,0.7,0.2,0.7,0.7c-1.2,1.4-3,2.6-6,2.6
			c-1.9,0-3.6-0.5-5-1.5c-1.4-1-2.1-2.6-2.1-5v-12.3c0-0.9-0.1-1.5-1.2-1.5H915c-0.2,0-0.4-0.3-0.4-0.7s0.1-0.7,0.4-0.7h7.2
			c0.5,0,0.9,0.1,0.9,0.9V287.3z M941.5,291.6c0,0.3-0.1,0.6-0.3,0.7c-1.1,0.2-2.3,0.5-3.6,0.8c-1.3,0.4-2.2,0.6-2.6,0.7
			c-0.7,0.2-1.2,0.5-1.6,0.5s-0.5-0.2-0.5-0.7c0-0.5,0.2-1.9,0.2-6v-12.1c0-0.9-0.1-1.5-1.2-1.5h-2.3c-0.2,0-0.4-0.3-0.4-0.7
			s0.1-0.7,0.4-0.7h7.2c0.5,0,0.9,0.1,0.9,0.9v16.7c0,0.7,0.2,1.1,0.7,1.1c0.4,0,2.7-0.5,2.9-0.5C941.4,291,941.5,291.4,941.5,291.6
			z"/>
		<path id="XMLID_2162_" d="M957.6,289.4c0-2.9-1.9-4.6-5.8-5c-3.9-0.4-5.8-2.6-5.8-6.5c0-3.5,2.8-5.8,6.7-5.8
			c2.6,0,3.9,0.7,5.3,0.7c0.9,0,0.8-0.7,1.2-0.7h0.2c0.4,0,0.4,0.2,0.4,0.5v1.1c0,1.3,0.4,4,0.7,4.9c-0.1,0.4-0.7,0.6-1.1,0.4
			c-1.6-4.2-4-5.8-6.7-5.8c-2.1,0-3.5,1.2-3.5,3.3c0,2.6,2,4.2,6.1,4.6s6.1,2.6,6.1,6.5c0,1.9-0.7,3.5-2.2,4.8s-3.3,1.9-5.6,1.9
			c-2.1,0-4-0.5-5.3-1.2c-0.5,0.5-1.2,1.2-1.6,1.2c-0.2,0-0.4,0-0.5-0.2v-0.5c0-2.3-0.4-4.8-1.2-6.9c0.2-0.4,1-0.4,1.2-0.2
			c1.5,3.9,4.2,6.5,7.4,6.5C956,293.1,957.6,291.9,957.6,289.4z"/>
		<path id="XMLID_2160_" d="M972.9,280.8c-0.2,0-0.4-0.1-0.4-0.5c0-0.4,0.1-0.6,0.4-0.6h6.3c0-0.7,0.1-1.1,0.1-1.7
			c0-2.8-1.1-4.8-3.8-4.8c-3.3,0-5.6,3.5-5.6,9c0,6.5,2.3,10.6,7.2,10.6c2.6,0,4.7-1.6,5.9-2.8c0.4,0,0.6,0.3,0.6,0.5
			c0,0.2,0,0.4-0.2,0.5c-0.3,0.4-1.1,1-2.3,1.9c-1.3,0.9-3.1,1.4-5.6,1.4c-2.8,0-5.3-0.9-7.4-2.7c-2.1-1.8-3.2-4.6-3.2-8.4
			c0-3.2,1-5.9,3.1-8c2-2.1,4.5-3.1,7.5-3.1c5.6,0,8.6,3.3,8.6,8.1c0,0.4-0.2,0.5-0.5,0.5H972.9z"/>
		<path id="XMLID_2157_" d="M994.9,287.3c0,3.9,1.4,5.6,3.9,5.6c1.6,0,2.8-0.9,3.9-1.9c0.4,0,0.7,0.2,0.7,0.7c-1.2,1.4-3,2.6-6,2.6
			c-1.9,0-3.6-0.5-5-1.5c-1.4-1-2.1-2.6-2.1-5v-12.3c0-0.9-0.1-1.5-1.2-1.5h-2.3c-0.2,0-0.4-0.3-0.4-0.7s0.1-0.7,0.4-0.7h7.2
			c0.5,0,0.9,0.1,0.9,0.9V287.3z M1013.3,291.6c0,0.3-0.1,0.6-0.3,0.7c-1.1,0.2-2.3,0.5-3.6,0.8c-1.3,0.4-2.2,0.6-2.6,0.7
			c-0.7,0.2-1.2,0.5-1.6,0.5s-0.5-0.2-0.5-0.7c0-0.5,0.2-1.9,0.2-6v-12.1c0-0.9-0.1-1.5-1.2-1.5h-2.3c-0.2,0-0.4-0.3-0.4-0.7
			s0.1-0.7,0.4-0.7h7.2c0.5,0,0.9,0.1,0.9,0.9v16.7c0,0.7,0.2,1.1,0.7,1.1c0.4,0,2.7-0.5,2.9-0.5
			C1013.2,291,1013.3,291.4,1013.3,291.6z"/>
		<path id="XMLID_2153_" d="M1019.7,276.2c0-0.7-0.2-1.1-0.7-1.1c-0.4,0-2.5,0.4-2.7,0.4c-0.2,0-0.3-0.4-0.3-0.7
			c0-0.2,0-0.5,0.2-0.7c1.1-0.2,2.4-0.5,3.7-0.8c1.3-0.4,2.1-0.6,2.5-0.7c0.7-0.2,1.2-0.5,1.6-0.5c0.4,0,0.5,0.2,0.5,0.7
			c0,0.5-0.2,1.9-0.2,6V291c0,0.9,0.1,1.5,1.2,1.5h1.8c0.2,0,0.4,0.3,0.4,0.7s-0.1,0.7-0.4,0.7h-11.1c-0.2,0-0.4-0.3-0.4-0.7
			s0.1-0.7,0.4-0.7h2.3c1.1,0,1.2-0.6,1.2-1.5V276.2z M1038.3,291c0,0.9,0.1,1.5,1.2,1.5h2.3c0.2,0,0.4,0.3,0.4,0.7
			s-0.1,0.7-0.4,0.7h-11.1c-0.2,0-0.4-0.3-0.4-0.7s0.1-0.7,0.4-0.7h1.8c1.1,0,1.2-0.6,1.2-1.5v-11.8c0-3.9-1.1-5.6-3.7-5.6
			c-1.6,0-2.5,0.9-3.5,1.9c-0.4,0-0.7-0.2-0.7-0.7c1.4-1.6,2.8-2.6,5.8-2.6c4,0,6.7,1.9,6.7,6.5V291z M1052.4,291
			c0,0.9,0.1,1.5,1.2,1.5h2.3c0.2,0,0.4,0.3,0.4,0.7s-0.1,0.7-0.4,0.7h-11.1c-0.2,0-0.4-0.3-0.4-0.7s0.1-0.7,0.4-0.7h1.8
			c1.1,0,1.2-0.6,1.2-1.5v-11.8c0-3.9-1.1-5.6-3.7-5.6c-1.6,0-2.5,0.9-3.5,1.9c-0.4,0-0.7-0.2-0.7-0.7c1.4-1.6,2.8-2.6,5.8-2.6
			c3.9,0,6.7,1.8,6.7,6.5V291z"/>
		<path id="XMLID_2151_" d="M1077.2,280.8c-0.2,0-0.4-0.1-0.4-0.5c0-0.4,0.1-0.6,0.4-0.6h6.3c0-0.7,0.1-1.1,0.1-1.7
			c0-2.8-1.1-4.8-3.8-4.8c-3.3,0-5.6,3.5-5.6,9c0,6.5,2.3,10.6,7.2,10.6c2.6,0,4.7-1.6,5.9-2.8c0.4,0,0.6,0.3,0.6,0.5
			c0,0.2,0,0.4-0.2,0.5c-0.3,0.4-1.1,1-2.3,1.9c-1.3,0.9-3.1,1.4-5.6,1.4c-2.8,0-5.3-0.9-7.4-2.7c-2.1-1.8-3.2-4.6-3.2-8.4
			c0-3.2,1-5.9,3.1-8c2-2.1,4.5-3.1,7.5-3.1c5.6,0,8.6,3.3,8.6,8.1c0,0.4-0.2,0.5-0.5,0.5H1077.2z"/>
		<path id="XMLID_2147_" d="M1097.8,289.2c-1.2,1.8-1.5,2.2-1.5,2.6c0,0.4,0.3,0.6,0.8,0.6h1.6c0.2,0,0.4,0.3,0.4,0.7
			s-0.1,0.7-0.4,0.7h-7.9c-0.2,0-0.4-0.3-0.4-0.7s0.1-0.7,0.4-0.7h1.4c1.2,0,1.9-0.3,2.8-1.7l3.3-4.8h0.1c0.5,0,0.9,0.3,0.9,0.9
			L1097.8,289.2z M1094.7,275.3c-0.7-1.1-1.6-1.3-3.2-1.3h-0.5c-0.2,0-0.4-0.3-0.4-0.7s0.1-0.7,0.4-0.7h11.1c0.2,0,0.4,0.3,0.4,0.7
			s-0.1,0.7-0.4,0.7h-2.1c-0.4,0-0.7,0.2-0.7,0.5s0.3,0.8,0.5,1.1l9.9,15.5c0.6,0.9,1.4,1.3,3.2,1.3h0.5c0.2,0,0.4,0.3,0.4,0.7
			s-0.1,0.7-0.4,0.7h-11.1c-0.2,0-0.4-0.3-0.4-0.7s0.1-0.7,0.4-0.7h2.1c0.4,0,0.7-0.2,0.7-0.5c0-0.4-0.3-0.7-0.5-1.1L1094.7,275.3z
			 M1105.9,280.6h-0.1c-0.5,0-0.9-0.3-0.9-0.9l1.6-2.3c1.2-1.8,1.5-2.4,1.5-2.8c0-0.4-0.3-0.6-0.8-0.6h-1.6c-0.2,0-0.4-0.3-0.4-0.7
			s0.1-0.7,0.4-0.7h7.7c0.2,0,0.4,0.3,0.4,0.7s-0.1,0.7-0.4,0.7h-1.2c-1.2,0-1.9,0.3-2.8,1.7L1105.9,280.6z"/>
		<path id="XMLID_2144_" d="M1123.5,291c0,0.9,0.1,1.5,1.2,1.5h2.3c0.2,0,0.4,0.3,0.4,0.7s-0.1,0.7-0.4,0.7h-11.6
			c-0.2,0-0.4-0.3-0.4-0.7s0.1-0.7,0.4-0.7h2.3c1.1,0,1.2-0.6,1.2-1.5v-28.3c0-0.7-0.1-1.1-0.8-1.1c-0.7,0-2.6,0.4-3.3,0.6
			c-0.2,0-0.4-0.4-0.4-0.7c0-0.2,0-0.5,0.2-0.7c1.2-0.3,2.5-0.6,3.9-1c1.4-0.4,2.3-0.6,3-0.8c0.7-0.2,1.2-0.5,1.6-0.5
			s0.5,0.2,0.5,0.7c0,0.5-0.2,1.9-0.2,6V291z M1138.1,291c0,0.9,0.1,1.5,1.2,1.5h2.3c0.2,0,0.4,0.3,0.4,0.7s-0.1,0.7-0.4,0.7h-11.1
			c-0.2,0-0.4-0.3-0.4-0.7s0.1-0.7,0.4-0.7h1.8c1.1,0,1.2-0.6,1.2-1.5v-11.8c0-3.9-1.4-5.6-4-5.6c-1.6,0-2.6,0.9-3.7,1.9
			c-0.4,0-0.7-0.2-0.7-0.7c1.4-1.6,3-2.6,6-2.6c1.9,0,3.6,0.5,5,1.5c1.4,1,2.1,2.7,2.1,5.1V291z"/>
		<path id="XMLID_2141_" d="M1148.1,273.5c1.3-0.4,2.1-0.6,2.5-0.7c0.7-0.2,1.2-0.5,1.6-0.5c0.4,0,0.5,0.2,0.5,0.7
			c0,0.5-0.2,1.9-0.2,6V291c0,0.9,0.1,1.5,1.2,1.5h2.3c0.2,0,0.4,0.3,0.4,0.7s-0.1,0.7-0.4,0.7h-11.6c-0.2,0-0.4-0.3-0.4-0.7
			s0.1-0.7,0.4-0.7h2.3c1.1,0,1.2-0.6,1.2-1.5v-14.8c0-0.7-0.2-1.1-0.7-1.1c-0.4,0-2.5,0.4-2.7,0.4c-0.2,0-0.3-0.4-0.3-0.7
			c0-0.2,0-0.5,0.2-0.7C1145.6,274.1,1146.8,273.8,1148.1,273.5z M1148.2,263.2c0-1.5,1.2-2.5,2.5-2.5s2.5,0.9,2.5,2.5
			s-1.2,2.5-2.5,2.5S1148.2,264.7,1148.2,263.2z"/>
		<path id="XMLID_2138_" d="M1166.5,289.1c0.5,2.3,1.9,4.1,3.9,4.4c0.1,0,0.2,0.2,0.2,0.4c0,0.2-0.1,0.4-0.2,0.4
			c-2.1,0-3.7-0.9-4.9-1.9l-2,1.4c-0.4,0.3-0.9,0.5-1.1,0.5c-0.2,0-0.4-0.2-0.4-0.5v-31.2c0-0.7-0.1-1.1-0.8-1.1
			c-0.7,0-2.6,0.4-3.3,0.6c-0.2,0-0.4-0.4-0.4-0.7c0-0.2,0-0.5,0.2-0.7c1.2-0.3,2.5-0.6,3.9-1c1.4-0.4,2.3-0.6,3-0.8
			c0.7-0.2,1.2-0.5,1.6-0.5c0.4,0,0.5,0.2,0.5,0.7c0,0.5-0.2,1.9-0.2,6V289.1z M1168.9,275c-0.4,0-0.5-0.3-0.5-0.5s0-0.4,0.2-0.5
			c0.9-0.9,2.5-1.8,5.1-1.8c2.8,0,5.1,1,7,2.9c1.9,2,2.8,4.6,2.8,7.8c0,3-1,5.7-2.9,7.9c-2,2.2-4.7,3.4-8.2,3.6
			c-0.1,0-0.2-0.3-0.2-0.4c0-0.2,0-0.4,0.2-0.4c4.4-0.7,6.2-4.3,6.2-10.4c0-2.7-0.5-5-1.5-6.8c-1-1.8-2.5-2.7-4.5-2.7
			C1171,273.6,1170,274.1,1168.9,275z"/>
		<path id="XMLID_2135_" d="M1190.7,273.5c1.3-0.4,2.1-0.6,2.5-0.7c0.7-0.2,1.2-0.5,1.6-0.5c0.4,0,0.5,0.2,0.5,0.7
			c0,0.5-0.2,1.9-0.2,6V291c0,0.9,0.1,1.5,1.2,1.5h2.3c0.2,0,0.4,0.3,0.4,0.7s-0.1,0.7-0.4,0.7h-11.6c-0.2,0-0.4-0.3-0.4-0.7
			s0.1-0.7,0.4-0.7h2.3c1.1,0,1.2-0.6,1.2-1.5v-14.8c0-0.7-0.2-1.1-0.7-1.1c-0.4,0-2.5,0.4-2.7,0.4c-0.2,0-0.3-0.4-0.3-0.7
			c0-0.2,0-0.5,0.2-0.7C1188.2,274.1,1189.4,273.8,1190.7,273.5z M1190.8,263.2c0-1.5,1.2-2.5,2.5-2.5s2.5,0.9,2.5,2.5
			s-1.2,2.5-2.5,2.5S1190.8,264.7,1190.8,263.2z"/>
		<path id="XMLID_2133_" d="M1209.1,274.1v13.4c0,4,0.9,5.3,2.8,5.3c1.8,0,3-1.4,3.5-2.3c0.4,0,0.6,0.3,0.6,0.5c0,0.2,0,0.3-0.2,0.5
			c-0.4,0.5-0.9,1.1-1.7,1.8c-0.8,0.7-2.1,1-3.8,1c-3.3,0-5.8-1.4-5.8-6v-14.3h-2.8c-0.2,0-0.4-0.3-0.4-0.7s0.1-0.7,0.4-0.7h2.8
			v-4.2c1.8-0.5,2.9-1.4,3.9-2.5c0.1-0.1,0.3-0.2,0.4-0.2s0.3,0.1,0.3,0.2v6.7h5.8c0.2,0,0.4,0.3,0.4,0.7s-0.1,0.7-0.4,0.7H1209.1z"
			/>
		<path id="XMLID_2130_" d="M1222.7,273.5c1.3-0.4,2.1-0.6,2.5-0.7c0.7-0.2,1.2-0.5,1.6-0.5c0.4,0,0.5,0.2,0.5,0.7
			c0,0.5-0.2,1.9-0.2,6V291c0,0.9,0.1,1.5,1.2,1.5h2.3c0.2,0,0.4,0.3,0.4,0.7s-0.1,0.7-0.4,0.7H1219c-0.2,0-0.4-0.3-0.4-0.7
			s0.1-0.7,0.4-0.7h2.3c1.1,0,1.2-0.6,1.2-1.5v-14.8c0-0.7-0.2-1.1-0.7-1.1c-0.4,0-2.5,0.4-2.7,0.4c-0.2,0-0.3-0.4-0.3-0.7
			c0-0.2,0-0.5,0.2-0.7C1220.1,274.1,1221.4,273.8,1222.7,273.5z M1222.7,263.2c0-1.5,1.2-2.5,2.5-2.5s2.5,0.9,2.5,2.5
			s-1.2,2.5-2.5,2.5S1222.7,264.7,1222.7,263.2z"/>
		<path id="XMLID_2127_" d="M1239.2,289.8c0.6,1.9,1.9,3.1,4,3.7c0.2,0,0.2,0.2,0.2,0.4c0,0.2,0,0.4-0.2,0.4c-3-0.2-5.5-1.4-7.2-3.5
			c-1.8-2.2-2.6-4.7-2.6-7.6s0.9-5.5,2.6-7.6c1.8-2.2,4.2-3.3,7.2-3.5c0.2,0,0.2,0.3,0.2,0.4c0,0.2,0,0.4-0.2,0.4
			c-2.1,0.5-3.5,1.8-4,3.7c-0.6,1.9-0.9,4.1-0.9,6.6S1238.7,287.9,1239.2,289.8z M1249.6,289.8c0.6-1.9,0.9-4.1,0.9-6.6
			s-0.3-4.7-0.9-6.6c-0.6-1.9-1.9-3.1-4-3.7c-0.2,0-0.2-0.2-0.2-0.4c0-0.2,0-0.4,0.2-0.4c3,0.2,5.5,1.3,7.2,3.5s2.6,4.7,2.6,7.6
			s-0.9,5.4-2.6,7.6c-1.8,2.2-4.2,3.3-7.2,3.5c-0.2,0-0.2-0.3-0.2-0.4c0-0.2,0-0.4,0.2-0.4C1247.7,292.9,1249.1,291.7,1249.6,289.8z
			"/>
		<path id="XMLID_2124_" d="M1262.6,273.5c1.3-0.4,2.1-0.6,2.5-0.7c0.7-0.2,1.2-0.5,1.6-0.5c0.4,0,0.5,0.2,0.5,0.7
			c0,0.5-0.2,1.9-0.2,6V291c0,0.9,0.1,1.5,1.2,1.5h1.8c0.2,0,0.4,0.3,0.4,0.7s-0.1,0.7-0.4,0.7H1259c-0.2,0-0.4-0.3-0.4-0.7
			s0.1-0.7,0.4-0.7h2.3c1.1,0,1.2-0.6,1.2-1.5v-14.8c0-0.7-0.2-1.1-0.7-1.1c-0.4,0-2.5,0.4-2.7,0.4c-0.2,0-0.3-0.4-0.3-0.7
			c0-0.2,0-0.5,0.2-0.7C1260.1,274.1,1261.3,273.8,1262.6,273.5z M1281.7,291c0,0.9,0.1,1.5,1.2,1.5h2.3c0.2,0,0.4,0.3,0.4,0.7
			s-0.1,0.7-0.4,0.7h-11.1c-0.2,0-0.4-0.3-0.4-0.7s0.1-0.7,0.4-0.7h1.8c1.1,0,1.2-0.6,1.2-1.5v-11.8c0-3.9-1.4-5.6-4-5.6
			c-1.6,0-2.6,0.9-3.7,1.9c-0.4,0-0.7-0.2-0.7-0.7c1.4-1.6,3-2.6,6-2.6c1.9,0,3.6,0.5,5,1.5c1.4,1,2.1,2.7,2.1,5.1V291z"/>
		<path id="XMLID_2122_" d="M1293.4,294.4c-1.6,0-2.8-1.2-2.8-2.8c0-1.6,1.2-2.8,2.8-2.8s2.8,1.2,2.8,2.8
			C1296.3,293.1,1295.1,294.4,1293.4,294.4z"/>
	</g>
</g>
</svg>
