<?xml version="1.0" encoding="utf-8"?>
<!-- Generator: Adobe Illustrator 19.0.0, SVG Export Plug-In . SVG Version: 6.00 Build 0)  -->
<svg version="1.1" id="圖層_1" xmlns="http://www.w3.org/2000/svg" xmlns:xlink="http://www.w3.org/1999/xlink" x="0px" y="0px"
	 viewBox="-155 453 143.2 57" style="enable-background:new -155 453 143.2 57;" xml:space="preserve">
<style type="text/css">
	.st0{fill:#B5B5B6;}
</style>
<g id="XMLID_44_">
</g>
<g id="XMLID_83_">
</g>
<g id="XMLID_84_">
</g>
<g id="XMLID_85_">
</g>
<g id="XMLID_86_">
</g>
<g id="XMLID_87_">
</g>
<g id="XMLID_88_">
</g>
<g id="XMLID_89_">
</g>
<g id="XMLID_90_">
</g>
<g id="XMLID_91_">
</g>
<g id="XMLID_92_">
</g>
<g id="XMLID_93_">
</g>
<g id="XMLID_94_">
</g>
<g id="XMLID_95_">
</g>
<g id="XMLID_96_">
</g>
<g>
	<path class="st0" d="M-127.1,476.5l-5.5,15c-0.3,0.9-0.5,1.4-0.5,2c0,0.7,0.4,0.9,1.2,0.9h1.9c0.2,0,0.3,0.3,0.3,0.6
		s-0.1,0.6-0.3,0.6h-8.1c-0.2,0-0.3-0.3-0.3-0.6c0-0.3,0.1-0.6,0.3-0.6h0.9c1.6,0,2.1-0.5,3-2.9l5.9-15.3c0.1,0,0.4-0.1,0.5-0.1
		C-127.4,476.2-127.2,476.4-127.1,476.5z M-124.5,467.5l9.8,24c0.5,1.2,0.9,1.9,1.2,2.3c0.3,0.4,0.9,0.6,1.7,0.6h0.9
		c0.2,0,0.3,0.3,0.3,0.6s-0.1,0.6-0.3,0.6h-11.2c-0.2,0-0.3-0.3-0.3-0.6c0-0.3,0.1-0.6,0.3-0.6h2.2c0.9,0,1.2-0.3,1.2-0.9
		c0-0.4-0.2-1-0.4-1.6l-2.8-7.1h-5.5c-0.2,0-0.3-0.3-0.3-0.6c0-0.3,0.1-0.6,0.3-0.6h5l-4.3-10.8l2-5.5h0.2V467.5z"/>
	<path class="st0" d="M-102.7,491.7c0.4,1.9,1.6,3.3,3.2,3.6c0.1,0,0.2,0.2,0.2,0.4c0,0.1-0.1,0.3-0.2,0.4c-1.7,0-3-0.7-4-1.6
		l-1.7,1.2c-0.3,0.3-0.7,0.4-0.9,0.4s-0.3-0.2-0.3-0.4v-25.5c0-0.6-0.1-0.9-0.6-0.9c-0.6,0-2.1,0.4-2.7,0.5c-0.2,0-0.3-0.3-0.3-0.5
		s0-0.4,0.1-0.5c1-0.3,2.1-0.5,3.2-0.8c1.1-0.3,1.9-0.5,2.4-0.7c0.6-0.2,1-0.4,1.3-0.4s0.4,0.1,0.4,0.6s-0.1,1.6-0.1,4.9
		L-102.7,491.7L-102.7,491.7z M-100.7,480.1c-0.3,0-0.4-0.3-0.4-0.4c0-0.1,0-0.3,0.1-0.4c0.7-0.7,2-1.4,4.2-1.4
		c2.3,0,4.2,0.8,5.8,2.4c1.5,1.6,2.3,3.7,2.3,6.4c0,2.5-0.8,4.6-2.4,6.4c-1.6,1.8-3.9,2.8-6.7,2.9c-0.1,0-0.1-0.2-0.1-0.4
		s0-0.3,0.1-0.4c3.6-0.6,5-3.5,5-8.5c0-2.2-0.4-4.1-1.2-5.6s-2.1-2.2-3.7-2.2C-98.9,479-99.8,479.4-100.7,480.1z"/>
	<path class="st0" d="M-80.3,492.3c0.5,1.5,1.6,2.6,3.3,3c0.2,0,0.2,0.2,0.2,0.4c0,0.1,0,0.3-0.2,0.4c-2.5-0.1-4.5-1.1-5.9-2.9
		s-2.2-3.8-2.2-6.2s0.7-4.5,2.2-6.2s3.4-2.7,5.9-2.8c0.2,0,0.2,0.2,0.2,0.4c0,0.2,0,0.3-0.2,0.4c-1.7,0.4-2.8,1.4-3.3,3
		c-0.5,1.6-0.7,3.3-0.7,5.4C-81,489.3-80.8,490.7-80.3,492.3z M-71.8,492.3c0.5-1.5,0.7-3.3,0.7-5.4c0-2.1-0.3-3.8-0.7-5.4
		c-0.5-1.5-1.6-2.6-3.3-3c-0.2,0-0.2-0.2-0.2-0.4c0-0.1,0-0.3,0.2-0.4c2.5,0.1,4.5,1.1,5.9,2.8c1.4,1.8,2.2,3.9,2.2,6.2
		c0,2.4-0.7,4.4-2.2,6.2c-1.4,1.8-3.4,2.7-5.9,2.9c-0.1,0-0.2-0.2-0.2-0.4s0-0.3,0.2-0.4C-73.4,494.8-72.3,493.8-71.8,492.3z"/>
	<path class="st0" d="M-57.9,490.2c0,3.2,1.2,4.6,3.2,4.6c1.3,0,2.3-0.7,3.2-1.6c0.3,0,0.6,0.1,0.6,0.6c-1,1.2-2.4,2.2-4.9,2.2
		c-1.6,0-3-0.4-4.1-1.2c-1.1-0.8-1.7-2.2-1.7-4.1v-10.1c0-0.8-0.1-1.2-1-1.2h-1.9c-0.2,0-0.3-0.2-0.3-0.5s0.1-0.5,0.3-0.5h5.9
		c0.4,0,0.7,0.1,0.7,0.7V490.2z M-42.8,493.7c0,0.3-0.1,0.5-0.2,0.5c-0.9,0.2-1.9,0.4-3,0.7c-1,0.3-1.8,0.5-2.1,0.6
		c-0.5,0.2-1,0.4-1.3,0.4s-0.4-0.1-0.4-0.6c0-0.4,0.1-1.6,0.1-4.9v-9.9c0-0.8-0.1-1.2-1-1.2h-1.9c-0.2,0-0.3-0.2-0.3-0.5
		s0.1-0.5,0.3-0.5h5.9c0.4,0,0.7,0.1,0.7,0.7v13.7c0,0.6,0.1,0.9,0.6,0.9c0.3,0,2.2-0.4,2.3-0.4C-42.9,493.3-42.8,493.5-42.8,493.7z
		"/>
	<path class="st0" d="M-34.1,479.4v10.9c0,3.3,0.7,4.3,2.3,4.3c1.4,0,2.4-1.2,2.9-1.9c0.3,0,0.5,0.3,0.5,0.4c0,0.1,0,0.3-0.1,0.4
		c-0.3,0.4-0.8,0.9-1.4,1.5c-0.6,0.5-1.7,0.8-3.1,0.8c-2.7,0-4.8-1.2-4.8-4.9v-11.7h-2.3c-0.2,0-0.3-0.3-0.3-0.6s0.1-0.6,0.3-0.6
		h2.3v-3.2c1.4-0.4,2.3-1.2,3.2-2c0.1-0.1,0.2-0.1,0.3-0.1c0.1,0,0.2,0.1,0.3,0.1v5.5h4.8c0.2,0,0.3,0.3,0.3,0.6
		c0,0.3-0.1,0.6-0.3,0.6L-34.1,479.4L-34.1,479.4z"/>
</g>
</svg>
