<?xml version="1.0" encoding="utf-8"?>
<!-- Generator: Adobe Illustrator 19.0.0, SVG Export Plug-In . SVG Version: 6.00 Build 0)  -->
<svg version="1.1" id="圖層_1" xmlns="http://www.w3.org/2000/svg" xmlns:xlink="http://www.w3.org/1999/xlink" x="0px" y="0px"
	 viewBox="-222.7 292 143.2 57" style="enable-background:new -222.7 292 143.2 57;" xml:space="preserve">
<style type="text/css">
	.st0{fill:#FFFFFF;}
</style>
<g id="XMLID_44_">
</g>
<g id="XMLID_83_">
</g>
<g id="XMLID_84_">
</g>
<g id="XMLID_85_">
</g>
<g id="XMLID_86_">
</g>
<g id="XMLID_87_">
</g>
<g id="XMLID_88_">
</g>
<g id="XMLID_89_">
</g>
<g id="XMLID_90_">
</g>
<g id="XMLID_91_">
</g>
<g id="XMLID_92_">
</g>
<g id="XMLID_93_">
</g>
<g id="XMLID_94_">
</g>
<g id="XMLID_95_">
</g>
<g id="XMLID_96_">
</g>
<g>
	<path class="st0" d="M-206.3,315.7l-5.5,15c-0.3,0.9-0.5,1.4-0.5,2c0,0.7,0.4,0.9,1.2,0.9h1.9c0.2,0,0.3,0.3,0.3,0.6
		c0,0.3-0.1,0.6-0.3,0.6h-8.1c-0.2,0-0.3-0.3-0.3-0.6c0-0.3,0.1-0.6,0.3-0.6h0.9c1.6,0,2.1-0.5,3-2.9l5.9-15.3
		c0.1,0,0.4-0.1,0.5-0.1C-206.6,315.4-206.4,315.6-206.3,315.7z M-203.7,306.7l9.8,24c0.5,1.2,0.9,1.9,1.2,2.3
		c0.3,0.4,0.9,0.6,1.7,0.6h0.9c0.2,0,0.3,0.3,0.3,0.6c0,0.3-0.1,0.6-0.3,0.6h-11.2c-0.2,0-0.3-0.3-0.3-0.6c0-0.3,0.1-0.6,0.3-0.6
		h2.2c0.9,0,1.2-0.3,1.2-0.9c0-0.4-0.2-1-0.4-1.6l-2.8-7.1h-5.5c-0.2,0-0.3-0.3-0.3-0.6s0.1-0.6,0.3-0.6h5l-4.3-10.8l2-5.5H-203.7z"
		/>
	<path class="st0" d="M-181.9,330.9c0.4,1.9,1.6,3.3,3.2,3.6c0.1,0,0.2,0.2,0.2,0.4c0,0.1-0.1,0.3-0.2,0.4c-1.7,0-3-0.7-4-1.6
		l-1.7,1.2c-0.3,0.3-0.7,0.4-0.9,0.4c-0.2,0-0.3-0.2-0.3-0.4v-25.5c0-0.6-0.1-0.9-0.6-0.9c-0.6,0-2.1,0.4-2.7,0.5
		c-0.2,0-0.3-0.3-0.3-0.5c0-0.2,0-0.4,0.1-0.5c1-0.3,2.1-0.5,3.2-0.8c1.1-0.3,1.9-0.5,2.4-0.7c0.6-0.2,1-0.4,1.3-0.4
		c0.3,0,0.4,0.1,0.4,0.6s-0.1,1.6-0.1,4.9V330.9z M-179.9,319.3c-0.3,0-0.4-0.3-0.4-0.4s0-0.3,0.1-0.4c0.7-0.7,2-1.4,4.2-1.4
		c2.3,0,4.2,0.8,5.8,2.4c1.5,1.6,2.3,3.7,2.3,6.4c0,2.5-0.8,4.6-2.4,6.4c-1.6,1.8-3.9,2.8-6.7,2.9c-0.1,0-0.1-0.2-0.1-0.4
		c0-0.2,0-0.3,0.1-0.4c3.6-0.6,5-3.5,5-8.5c0-2.2-0.4-4.1-1.2-5.6c-0.8-1.5-2.1-2.2-3.7-2.2C-178.1,318.2-179,318.6-179.9,319.3z"/>
	<path class="st0" d="M-159.5,331.5c0.5,1.5,1.6,2.6,3.3,3c0.2,0,0.2,0.2,0.2,0.4c0,0.1,0,0.3-0.2,0.4c-2.5-0.1-4.5-1.1-5.9-2.9
		c-1.4-1.8-2.2-3.8-2.2-6.2c0-2.4,0.7-4.5,2.2-6.2s3.4-2.7,5.9-2.8c0.2,0,0.2,0.2,0.2,0.4c0,0.2,0,0.3-0.2,0.4
		c-1.7,0.4-2.8,1.4-3.3,3s-0.7,3.3-0.7,5.4S-160,329.9-159.5,331.5z M-151,331.5c0.5-1.5,0.7-3.3,0.7-5.4s-0.3-3.8-0.7-5.4
		c-0.5-1.5-1.6-2.6-3.3-3c-0.2,0-0.2-0.2-0.2-0.4c0-0.1,0-0.3,0.2-0.4c2.5,0.1,4.5,1.1,5.9,2.8c1.4,1.8,2.2,3.9,2.2,6.2
		c0,2.4-0.7,4.4-2.2,6.2c-1.4,1.8-3.4,2.7-5.9,2.9c-0.1,0-0.2-0.2-0.2-0.4c0-0.2,0-0.3,0.2-0.4C-152.6,334-151.5,333-151,331.5z"/>
	<path class="st0" d="M-137.1,329.4c0,3.2,1.2,4.6,3.2,4.6c1.3,0,2.3-0.7,3.2-1.6c0.3,0,0.6,0.1,0.6,0.6c-1,1.2-2.4,2.2-4.9,2.2
		c-1.6,0-3-0.4-4.1-1.2c-1.1-0.8-1.7-2.2-1.7-4.1v-10.1c0-0.8-0.1-1.2-1-1.2h-1.9c-0.2,0-0.3-0.2-0.3-0.5c0-0.3,0.1-0.5,0.3-0.5h5.9
		c0.4,0,0.7,0.1,0.7,0.7V329.4z M-122,332.9c0,0.3-0.1,0.5-0.2,0.5c-0.9,0.2-1.9,0.4-3,0.7c-1,0.3-1.8,0.5-2.1,0.6
		c-0.5,0.2-1,0.4-1.3,0.4s-0.4-0.1-0.4-0.6c0-0.4,0.1-1.6,0.1-4.9v-9.9c0-0.8-0.1-1.2-1-1.2h-1.9c-0.2,0-0.3-0.2-0.3-0.5
		c0-0.3,0.1-0.5,0.3-0.5h5.9c0.4,0,0.7,0.1,0.7,0.7v13.7c0,0.6,0.1,0.9,0.6,0.9c0.3,0,2.2-0.4,2.3-0.4
		C-122.1,332.5-122,332.7-122,332.9z"/>
	<path class="st0" d="M-113.3,318.6v10.9c0,3.3,0.7,4.3,2.3,4.3c1.4,0,2.4-1.2,2.9-1.9c0.3,0,0.5,0.3,0.5,0.4c0,0.1,0,0.3-0.1,0.4
		c-0.3,0.4-0.8,0.9-1.4,1.5c-0.6,0.5-1.7,0.8-3.1,0.8c-2.7,0-4.8-1.2-4.8-4.9v-11.7h-2.3c-0.2,0-0.3-0.3-0.3-0.6
		c0-0.3,0.1-0.6,0.3-0.6h2.3V314c1.4-0.4,2.3-1.2,3.2-2c0.1-0.1,0.2-0.1,0.3-0.1c0.1,0,0.2,0.1,0.3,0.1v5.5h4.8
		c0.2,0,0.3,0.3,0.3,0.6c0,0.3-0.1,0.6-0.3,0.6H-113.3z"/>
</g>
</svg>
