<?xml version="1.0" encoding="utf-8"?>
<!-- Generator: Adobe Illustrator 19.0.0, SVG Export Plug-In . SVG Version: 6.00 Build 0)  -->
<svg version="1.1" id="圖層_1" xmlns="http://www.w3.org/2000/svg" xmlns:xlink="http://www.w3.org/1999/xlink" x="0px" y="0px"
	 viewBox="0 0 119.7 100" style="enable-background:new 0 0 119.7 100;" xml:space="preserve">
<g id="XMLID_1_">
	<path id="XMLID_8_" d="M38.3,72H18.7V53.1h20.5c0,0,7.4-0.1,7.4,9.7C46.7,71,41.3,71.9,38.3,72 M18.7,26.5h17.9h2.6c0,0,5,0,5,7.3
		c0,7.3-2.9,8.4-6.3,8.4H18.7V26.5z M48.5,46.2c0,0,10.8-0.8,10.8-13.4c0-12.6-8.8-18.8-20-18.8H18.7h-0.6H2.6v70.6h15.6h0.6h20.5
		c0,0,22.4,0.7,22.4-20.8C61.7,63.7,62.7,46.2,48.5,46.2"/>
	<path id="XMLID_5_" d="M102.6,53.1H79.4c0,0,1.5-10.9,12.4-10.9C102.8,42.3,102.6,53.1,102.6,53.1 M91.6,31.9
		C64.4,31.9,64.5,59,64.5,59s-1.9,27,27.1,27c0,0,24.1,1.4,24.1-18.8h-12.4c0,0,0.4,7.6-11.3,7.6c0,0-12.4,0.8-12.4-12.3h36.6
		C116.1,62.6,120.1,31.9,91.6,31.9"/>
	<rect id="XMLID_4_" x="76.4" y="18.1" width="29.1" height="8.7"/>
</g>
</svg>
