<?xml version="1.0" encoding="utf-8"?>
<!-- Generator: Adobe Illustrator 19.0.0, SVG Export Plug-In . SVG Version: 6.00 Build 0)  -->
<svg version="1.1" id="圖層_1" xmlns="http://www.w3.org/2000/svg" xmlns:xlink="http://www.w3.org/1999/xlink" x="0px" y="0px"
	 viewBox="-56 22.5 185.6 157.5" style="enable-background:new -56 22.5 185.6 157.5;" xml:space="preserve">
<style type="text/css">
	.st0{fill:none;}
</style>
<g id="XMLID_13_">
	<line id="XMLID_6_" class="st0" x1="0.9" y1="62.4" x2="72.9" y2="62.4"/>
	<rect id="XMLID_8_" x="0.9" y="60.4" width="72" height="2"/>
</g>
<g>
	<path d="M-54.1,122.4c0-4,1.2-7.2,3.6-9.7c2.4-2.4,5.6-3.7,9.6-3.7c2,0,3.5,0.3,4.5,0.9c0.9,0.6,1.7,0.9,2.2,0.9
		c0.4,0,0.7-0.3,0.7-1c0-0.4,0.1-0.4,0.4-0.4h0.3c0.3,0,0.4,0,0.4,0.4c0,0.7,0.1,1.8,0.3,3.2c0.2,1.4,0.4,2.5,0.7,3.4
		c0,0.1-0.3,0.2-0.6,0.2c-0.2,0-0.4-0.1-0.5-0.1c-1.9-4.5-4.5-6.7-8.3-6.7c-5.5,0-8.4,4.5-8.4,12.5v0.1c0,8,2.9,12.6,8.4,12.6
		c3.8,0,6.5-2.3,8.4-6.8c0.1,0,0.2-0.1,0.5-0.1c0.3,0,0.6,0.1,0.6,0.2c-0.3,0.9-0.5,2.1-0.7,3.5c-0.2,1.4-0.3,2.5-0.3,3.2
		c0,0.4-0.1,0.4-0.4,0.4h-0.3c-0.3,0-0.4,0-0.4-0.4c0-0.7-0.3-1-0.7-1c-0.5,0-1.3,0.3-2.2,0.9c-0.9,0.6-2.4,0.9-4.5,0.9
		c-4,0-7.2-1.3-9.6-3.7c-2.4-2.5-3.6-5.7-3.6-9.7V122.4z"/>
	<path d="M-21.7,135.2c-0.7,0.5-1.6,0.7-2.8,0.7c-2.3,0-4.2-1.1-4.2-3.7c0-3.1,3.2-4.8,7.8-5.3c0.1,0,0.2,0.2,0.2,0.3
		s-0.1,0.3-0.2,0.3c-3.1,0.5-4.4,2-4.4,4.2c0,1.6,1,2.6,2.3,2.6c1,0,1.6-0.4,2.3-1.1c0.2,0,0.3,0.1,0.3,0.3c0,0,0,0.1-0.1,0.2
		C-20.6,134.3-21,134.7-21.7,135.2z M-25.8,121c1.1,0.3,1.6,0.8,1.6,1.9s-1,1.9-1.9,1.9c-1.2,0-1.9-1-1.9-2s0.6-2,1.7-2.8
		c1.1-0.8,2.5-1.2,4.1-1.2c4.1,0,6.5,1.6,6.5,5.3c0,1.7,0,3.1-0.1,4.3c0,1.2-0.1,2.6-0.1,4.2c0,1.4,0.4,1.9,1.2,1.9
		c1,0,1.6-0.7,2.2-1.2c0.4,0,0.5,0.4,0.4,0.6c-0.7,1-2.3,2-3.9,2c-2.3,0-3.4-1.2-3.4-4.1c0-2.2,0.1-4.8,0.1-8s-1-4.2-3.1-4.2
		C-23.7,119.6-25,119.9-25.8,121z"/>
	<path d="M-8,122c0-0.5-0.1-0.8-0.5-0.8c-0.3,0-1.9,0.3-2.1,0.3c-0.1,0-0.2-0.3-0.2-0.5c0-0.2,0-0.4,0.1-0.5
		c0.9-0.2,1.8-0.4,2.8-0.6c1-0.3,1.6-0.5,1.9-0.6c0.5-0.2,1-0.4,1.2-0.4c0.3,0,0.4,0.1,0.4,0.5s-0.1,1.5-0.1,4.6v9.4
		c0,0.7,0.1,1.2,1,1.2h1.4c0.2,0,0.3,0.2,0.3,0.5s-0.1,0.5-0.3,0.5h-8.6c-0.2,0-0.3-0.2-0.3-0.5s0.1-0.5,0.3-0.5h1.8
		c0.9,0,1-0.4,1-1.2V122z M6.5,133.4c0,0.7,0.1,1.2,1,1.2h1.8c0.2,0,0.3,0.2,0.3,0.5s-0.1,0.5-0.3,0.5H0.6c-0.2,0-0.3-0.2-0.3-0.5
		s0.1-0.5,0.3-0.5H2c0.9,0,1-0.4,1-1.2v-9.1c0-3-0.8-4.4-2.9-4.4c-1.2,0-1.9,0.7-2.7,1.5c-0.3,0-0.5-0.1-0.5-0.5
		c1.1-1.2,2.2-2,4.5-2c3.1,0,5.2,1.5,5.2,5V133.4z M17.3,133.4c0,0.7,0.1,1.2,1,1.2h1.8c0.2,0,0.3,0.2,0.3,0.5s-0.1,0.5-0.3,0.5
		h-8.6c-0.2,0-0.3-0.2-0.3-0.5s0.1-0.5,0.3-0.5h1.4c0.9,0,1-0.4,1-1.2v-9.1c0-3-0.8-4.4-2.9-4.4c-1.2,0-1.9,0.7-2.7,1.5
		c-0.3,0-0.5-0.1-0.5-0.5c1.1-1.2,2.2-2,4.5-2c3,0,5.2,1.4,5.2,5V133.4z"/>
	<path d="M24.8,119.8c1-0.3,1.6-0.5,1.9-0.6c0.5-0.2,1-0.4,1.2-0.4c0.3,0,0.4,0.1,0.4,0.5s-0.1,1.5-0.1,4.6v7.9
		c0.4,1.8,1.5,3.2,3,3.4c0.2,0,0.2,0.2,0.2,0.3c0,0.1-0.1,0.3-0.2,0.3c-1.2,0-2.2-0.4-3-0.9v8.2c0,0.7,0.1,1.2,1,1.2h2
		c0.2,0,0.3,0.2,0.3,0.5s-0.1,0.5-0.3,0.5H22c-0.2,0-0.3-0.2-0.3-0.5s0.1-0.5,0.3-0.5h1.8c0.9,0,1-0.4,1-1.2V122
		c0-0.5-0.1-0.8-0.5-0.8c-0.3,0-1.9,0.3-2.1,0.3c-0.1,0-0.2-0.3-0.2-0.5c0-0.2,0-0.4,0.1-0.5C22.8,120.3,23.8,120.1,24.8,119.8z
		 M30.1,121c-0.3,0-0.4-0.2-0.4-0.4c0-0.2,0-0.3,0.1-0.4c0.7-0.7,1.9-1.4,3.9-1.4c2.2,0,4,0.7,5.4,2.3c1.5,1.5,2.2,3.5,2.2,6
		c0,2.3-0.7,4.4-2.2,6.1c-1.5,1.7-3.6,2.6-6.3,2.8c-0.1,0-0.2-0.2-0.2-0.3c0-0.2,0-0.3,0.2-0.3c3.4-0.5,4.8-3.3,4.8-8
		c0-2.1-0.4-3.9-1.1-5.3c-0.8-1.4-1.9-2.1-3.5-2.1C31.8,119.9,30.9,120.3,30.1,121z"/>
	<path d="M51.4,135.2c-0.7,0.5-1.6,0.7-2.8,0.7c-2.3,0-4.2-1.1-4.2-3.7c0-3.1,3.2-4.8,7.8-5.3c0.1,0,0.2,0.2,0.2,0.3
		s-0.1,0.3-0.2,0.3c-3.1,0.5-4.4,2-4.4,4.2c0,1.6,1,2.6,2.3,2.6c1,0,1.6-0.4,2.3-1.1c0.2,0,0.3,0.1,0.3,0.3c0,0,0,0.1-0.1,0.2
		C52.5,134.3,52,134.7,51.4,135.2z M47.3,121c1.1,0.3,1.6,0.8,1.6,1.9s-1,1.9-1.9,1.9c-1.2,0-1.9-1-1.9-2s0.6-2,1.7-2.8
		s2.5-1.2,4.1-1.2c4.1,0,6.5,1.6,6.5,5.3c0,1.7,0,3.1-0.1,4.3c0,1.2-0.1,2.6-0.1,4.2c0,1.4,0.4,1.9,1.2,1.9c1,0,1.6-0.7,2.2-1.2
		c0.4,0,0.5,0.4,0.4,0.6c-0.7,1-2.3,2-3.9,2c-2.3,0-3.4-1.2-3.4-4.1c0-2.2,0.1-4.8,0.1-8s-1-4.2-3.1-4.2
		C49.3,119.6,48.1,119.9,47.3,121z"/>
	<path d="M65.2,119.8c1-0.3,1.6-0.5,1.9-0.6c0.5-0.2,1-0.4,1.2-0.4c0.3,0,0.4,0.1,0.4,0.5s-0.1,1.5-0.1,4.6v9.4c0,0.7,0.1,1.2,1,1.2
		h1.8c0.2,0,0.3,0.2,0.3,0.5s-0.1,0.5-0.3,0.5h-9c-0.2,0-0.3-0.2-0.3-0.5s0.1-0.5,0.3-0.5h1.8c0.8,0,1-0.4,1-1.2V122
		c0-0.5-0.1-0.8-0.5-0.8c-0.3,0-1.9,0.3-2.1,0.3c-0.1,0-0.2-0.3-0.2-0.5c0-0.2,0-0.4,0.1-0.5C63.2,120.3,64.2,120.1,65.2,119.8z
		 M65.2,111.9c0-1.2,1-1.9,1.9-1.9s1.9,0.7,1.9,1.9c0,1.2-1,1.9-1.9,1.9S65.2,113.1,65.2,111.9z"/>
	<path d="M76.9,138.7c-0.4,0.2-1,0.8-1,1.7c0,1,0.5,1.8,1.7,2.3c1.1,0.5,2.4,0.7,4,0.7c1.3,0,2.6-0.2,4-0.5s2.4-0.9,3.2-1.7
		c0.2-0.1,0.4-0.1,0.5,0c-0.4,0.8-1.2,1.8-2.6,2.9c-1.4,1.1-3.5,1.6-6.2,1.6c-1.6,0-3.1-0.3-4.4-1c-1.3-0.6-2-1.6-2-2.8
		c0-1.6,1-2.7,2.2-3.4C76.6,138.5,76.8,138.6,76.9,138.7z M76.2,129.1c-1.1-1.1-1.7-2.5-1.7-4.2c0-1.7,0.6-3.1,1.7-4.2
		c1.1-1.1,2.5-1.7,4.1-1.8c0.1,0,0.1,0.2,0.1,0.3c0,0.1,0,0.3-0.1,0.3c-1.9,0.3-2.4,2.2-2.4,5.4s0.5,5.1,2.4,5.4
		c0.1,0,0.1,0.2,0.1,0.3c0,0.1,0,0.3-0.1,0.3C78.7,130.9,77.3,130.3,76.2,129.1z M77,133.1c0,0.8,0.7,1.1,2.4,1.1l5.6,0.3
		c1.9,0.1,3.2,0.7,3.8,1.8c0.6,1.1,0.9,2.3,0.9,3.8c-0.1,0.1-0.4,0.1-0.5,0c-0.1-1.1-0.7-1.8-1.6-2.1c-0.9-0.4-2-0.5-3.2-0.6l-5-0.1
		c-2.5,0-3.9-1.1-3.9-2.9c0-1.2,1-2.2,1.9-2.9c0.2-0.1,0.4-0.1,0.5,0C77.3,132.2,77,132.7,77,133.1z M85.9,120.6
		c1.1,1.1,1.7,2.5,1.7,4.2c0,1.7-0.6,3.1-1.7,4.2c-1.1,1.1-2.5,1.7-4.1,1.8c-0.1,0-0.1-0.2-0.1-0.3c0-0.1,0-0.3,0.1-0.3
		c1.9-0.3,2.4-2.2,2.4-5.4s-0.5-5.1-2.4-5.4c-0.1,0-0.1-0.2-0.1-0.3c0-0.1,0-0.3,0.1-0.3C83.4,118.9,84.8,119.5,85.9,120.6z
		 M87.1,117.7c-0.4,0.7-0.6,1.2-0.7,1.6c-0.2,0.2-0.4,0.1-0.7-0.1c0.2-2.2,1.8-3.8,3.3-3.8c1.7,0,2.4,1,2.4,2.1
		c0,0.8-0.5,1.8-1.7,1.8c-1.2,0-1.6-0.7-1.6-1.3c0-0.4,0.3-0.8,0-1C87.8,116.8,87.5,117,87.1,117.7z"/>
	<path d="M95.3,119.8c1-0.3,1.6-0.5,1.9-0.6c0.5-0.2,1-0.4,1.2-0.4c0.3,0,0.4,0.1,0.4,0.5s-0.1,1.5-0.1,4.6v9.4c0,0.7,0.1,1.2,1,1.2
		h1.4c0.2,0,0.3,0.2,0.3,0.5s-0.1,0.5-0.3,0.5h-8.6c-0.2,0-0.3-0.2-0.3-0.5s0.1-0.5,0.3-0.5h1.8c0.9,0,1-0.4,1-1.2V122
		c0-0.5-0.1-0.8-0.5-0.8c-0.3,0-1.9,0.3-2.1,0.3c-0.1,0-0.2-0.3-0.2-0.5c0-0.2,0-0.4,0.1-0.5C93.3,120.3,94.3,120.1,95.3,119.8z
		 M110,133.4c0,0.7,0.1,1.2,1,1.2h1.8c0.2,0,0.3,0.2,0.3,0.5s-0.1,0.5-0.3,0.5h-8.6c-0.2,0-0.3-0.2-0.3-0.5s0.1-0.5,0.3-0.5h1.4
		c0.9,0,1-0.4,1-1.2v-9.1c0-3-1.1-4.4-3.1-4.4c-1.2,0-2,0.7-2.9,1.5c-0.3,0-0.5-0.1-0.5-0.5c1.1-1.2,2.3-2,4.6-2
		c1.5,0,2.8,0.4,3.8,1.1c1.1,0.8,1.6,2.1,1.6,3.9V133.4z"/>
	<path d="M124.8,132.2c0-2.2-1.5-3.5-4.5-3.8c-3-0.3-4.5-2-4.5-5c0-2.7,2.2-4.5,5.2-4.5c2,0,3,0.5,4.1,0.5c0.7,0,0.6-0.5,1-0.5h0.1
		c0.3,0,0.3,0.1,0.3,0.4v0.8c0,1,0.3,3.1,0.5,3.8c-0.1,0.3-0.6,0.4-0.8,0.3c-1.2-3.3-3.1-4.5-5.2-4.5c-1.6,0-2.7,1-2.7,2.6
		c0,2,1.6,3.2,4.7,3.5c3.1,0.3,4.7,2,4.7,5c0,1.5-0.5,2.7-1.7,3.7c-1.1,1-2.5,1.5-4.3,1.5c-1.6,0-3.1-0.4-4.1-1
		c-0.4,0.4-0.9,1-1.2,1c-0.2,0-0.3,0-0.4-0.1v-0.4c0-1.8-0.3-3.7-1-5.3c0.1-0.3,0.8-0.3,1-0.1c1.2,3,3.3,5,5.7,5
		C123.6,135,124.8,134.1,124.8,132.2z"/>
</g>
</svg>
