<?xml version="1.0" encoding="utf-8"?>
<!-- Generator: Adobe Illustrator 19.0.0, SVG Export Plug-In . SVG Version: 6.00 Build 0)  -->
<svg version="1.1" id="圖層_1" xmlns="http://www.w3.org/2000/svg" xmlns:xlink="http://www.w3.org/1999/xlink" x="0px" y="0px"
	 viewBox="-222.7 292 143.2 57" style="enable-background:new -222.7 292 143.2 57;" xml:space="preserve">
<style type="text/css">
	.st0{fill:#FFFFFF;}
</style>
<g id="XMLID_44_">
</g>
<g id="XMLID_83_">
</g>
<g id="XMLID_84_">
</g>
<g id="XMLID_85_">
</g>
<g id="XMLID_86_">
</g>
<g id="XMLID_87_">
</g>
<g id="XMLID_88_">
</g>
<g id="XMLID_89_">
</g>
<g id="XMLID_90_">
</g>
<g id="XMLID_91_">
</g>
<g id="XMLID_92_">
</g>
<g id="XMLID_93_">
</g>
<g id="XMLID_94_">
</g>
<g id="XMLID_95_">
</g>
<g id="XMLID_96_">
</g>
<g>
	<path class="st0" d="M-217.5,320.4c0-4.2,1.3-7.6,3.8-10.2c2.6-2.6,5.9-3.9,10.2-3.9c2.2,0,3.7,0.3,4.7,0.9c1,0.6,1.8,0.9,2.3,0.9
		c0.4,0,0.7-0.3,0.7-1c0-0.4,0.1-0.4,0.4-0.4h0.3c0.3,0,0.4,0,0.4,0.4c0,0.8,0.1,1.9,0.3,3.3c0.2,1.4,0.4,2.6,0.7,3.6
		c0,0.1-0.4,0.3-0.6,0.3c-0.3,0-0.4-0.1-0.5-0.1c-2-4.8-4.8-7.1-8.8-7.1c-5.9,0-8.9,4.8-8.9,13.2v0.1c0,8.5,3.1,13.4,8.9,13.4
		c4,0,6.9-2.5,8.9-7.2c0.1,0,0.3-0.1,0.5-0.1c0.3,0,0.6,0.1,0.6,0.3c-0.3,1-0.5,2.2-0.8,3.7s-0.4,2.6-0.4,3.4c0,0.4-0.1,0.4-0.4,0.4
		h-0.3c-0.3,0-0.4,0-0.4-0.4c0-0.7-0.3-1-0.7-1c-0.6,0-1.4,0.3-2.3,0.9c-1,0.6-2.6,0.9-4.7,0.9c-4.2,0-7.6-1.3-10.2-4
		s-3.8-6.1-3.8-10.3V320.4z"/>
	<path class="st0" d="M-184.9,331c0.5,1.5,1.6,2.6,3.3,3c0.2,0,0.2,0.2,0.2,0.4c0,0.1,0,0.3-0.2,0.4c-2.5-0.1-4.5-1.1-5.9-2.9
		c-1.4-1.8-2.2-3.8-2.2-6.2c0-2.4,0.7-4.5,2.2-6.2s3.4-2.7,5.9-2.8c0.2,0,0.2,0.2,0.2,0.4c0,0.2,0,0.3-0.2,0.4
		c-1.7,0.4-2.8,1.4-3.3,3s-0.7,3.3-0.7,5.4S-185.4,329.5-184.9,331z M-176.4,331c0.5-1.5,0.7-3.3,0.7-5.4s-0.3-3.8-0.7-5.4
		c-0.5-1.5-1.6-2.6-3.3-3c-0.2,0-0.2-0.2-0.2-0.4c0-0.1,0-0.3,0.2-0.4c2.5,0.1,4.5,1.1,5.9,2.8c1.4,1.8,2.2,3.9,2.2,6.2
		c0,2.4-0.7,4.4-2.2,6.2c-1.4,1.8-3.4,2.7-5.9,2.9c-0.1,0-0.2-0.2-0.2-0.4c0-0.2,0-0.3,0.2-0.4C-178,333.6-176.9,332.6-176.4,331z"
		/>
	<path class="st0" d="M-165.4,317.7c1-0.3,1.7-0.5,2.1-0.6c0.5-0.2,1-0.4,1.3-0.4s0.4,0.1,0.4,0.6s-0.1,1.6-0.1,4.9v9.9
		c0,0.8,0.1,1.2,1,1.2h1.4c0.2,0,0.3,0.2,0.3,0.5s-0.1,0.5-0.3,0.5h-9.1c-0.2,0-0.3-0.2-0.3-0.5s0.1-0.5,0.3-0.5h1.9
		c0.9,0,1-0.5,1-1.2v-12.1c0-0.6-0.1-0.9-0.6-0.9c-0.3,0-2.1,0.3-2.2,0.4c-0.1,0-0.2-0.3-0.2-0.5c0-0.2,0-0.4,0.1-0.5
		C-167.5,318.2-166.5,317.9-165.4,317.7z M-149.8,332c0,0.8,0.1,1.2,1,1.2h1.9c0.2,0,0.3,0.2,0.3,0.5s-0.1,0.5-0.3,0.5h-9.1
		c-0.2,0-0.3-0.2-0.3-0.5s0.1-0.5,0.3-0.5h1.4c0.9,0,1-0.5,1-1.2v-9.6c0-3.2-1.2-4.6-3.3-4.6c-1.3,0-2.2,0.7-3,1.6
		c-0.3,0-0.6-0.1-0.6-0.6c1.2-1.3,2.4-2.2,4.9-2.2c1.6,0,3,0.4,4.1,1.2c1.1,0.8,1.7,2.2,1.7,4.1V332z"/>
	<path class="st0" d="M-138.4,318.2v10.9c0,3.3,0.7,4.3,2.3,4.3c1.4,0,2.4-1.2,2.9-1.9c0.3,0,0.5,0.3,0.5,0.4c0,0.1,0,0.3-0.1,0.4
		c-0.3,0.4-0.8,0.9-1.4,1.5c-0.6,0.5-1.7,0.8-3.1,0.8c-2.7,0-4.8-1.2-4.8-4.9v-11.7h-2.3c-0.2,0-0.3-0.3-0.3-0.6
		c0-0.3,0.1-0.6,0.3-0.6h2.3v-3.5c1.4-0.4,2.3-1.2,3.2-2c0.1-0.1,0.2-0.1,0.3-0.1c0.1,0,0.2,0.1,0.3,0.1v5.5h4.8
		c0.2,0,0.3,0.3,0.3,0.6c0,0.3-0.1,0.6-0.3,0.6H-138.4z"/>
	<path class="st0" d="M-122.5,334c-0.7,0.5-1.7,0.8-2.9,0.8c-2.5,0-4.5-1.2-4.5-3.9c0-3.3,3.3-5,8.2-5.6c0.1,0,0.2,0.2,0.2,0.4
		s-0.1,0.3-0.2,0.4c-3.3,0.6-4.6,2.2-4.6,4.5c0,1.7,1,2.7,2.4,2.7c1,0,1.7-0.4,2.4-1.2c0.2,0,0.4,0.1,0.4,0.3c0,0,0,0.1-0.1,0.3
		C-121.4,333-121.8,333.4-122.5,334z M-126.9,318.9c1.2,0.3,1.7,0.9,1.7,2c0,1.2-1,2-2,2c-1.3,0-2-1-2-2.2c0-1.2,0.6-2.1,1.8-3
		c1.2-0.8,2.7-1.2,4.4-1.2c4.3,0,6.9,1.7,6.9,5.6c0,1.8,0,3.3-0.1,4.6s-0.1,2.8-0.1,4.5c0,1.4,0.4,2,1.3,2c1,0,1.7-0.7,2.3-1.3
		c0.4,0,0.6,0.5,0.4,0.6c-0.7,1-2.4,2.1-4.2,2.1c-2.4,0-3.6-1.3-3.6-4.3c0-2.3,0.1-5,0.1-8.5c0-3.5-1-4.5-3.3-4.5
		C-124.7,317.5-126,317.8-126.9,318.9z"/>
	<path class="st0" d="M-106.6,325.1c0,5,1.9,8.4,5.8,8.4c1.4,0,2.4-0.3,3.3-0.9c0.8-0.6,1.5-1.2,2-1.7c0.3,0,0.5,0.3,0.5,0.4
		c0,0.1,0,0.3-0.1,0.4c-0.3,0.3-0.9,0.9-1.9,1.7c-1,0.9-2.6,1.3-4.6,1.3c-5.4,0-8.9-3.3-8.9-8.9c0-2.8,0.9-5.1,2.7-6.8
		c1.8-1.6,4-2.4,6.5-2.4c1.7,0,3.2,0.4,4.4,1.2c1.2,0.8,1.8,1.9,1.8,3.2s-1,2.2-2.2,2.2c-1.1,0-2-0.7-2-2c0-0.9,0.6-1.7,1.4-1.9
		c-0.3-1.3-1.6-1.9-3.3-1.9C-104.5,317.5-106.6,320-106.6,325.1z"/>
	<path class="st0" d="M-86,318.2v10.9c0,3.3,0.7,4.3,2.3,4.3c1.4,0,2.4-1.2,2.9-1.9c0.3,0,0.5,0.3,0.5,0.4c0,0.1,0,0.3-0.1,0.4
		c-0.3,0.4-0.8,0.9-1.4,1.5c-0.6,0.5-1.7,0.8-3.1,0.8c-2.7,0-4.8-1.2-4.8-4.9v-11.7H-92c-0.2,0-0.3-0.3-0.3-0.6
		c0-0.3,0.1-0.6,0.3-0.6h2.3v-3.5c1.4-0.4,2.3-1.2,3.2-2c0.1-0.1,0.2-0.1,0.3-0.1c0.1,0,0.2,0.1,0.3,0.1v5.5h4.8
		c0.2,0,0.3,0.3,0.3,0.6c0,0.3-0.1,0.6-0.3,0.6H-86z"/>
</g>
</svg>
