<?xml version="1.0" encoding="utf-8"?>
<!-- Generator: Adobe Illustrator 19.0.0, SVG Export Plug-In . SVG Version: 6.00 Build 0)  -->
<svg version="1.1" id="圖層_1" xmlns="http://www.w3.org/2000/svg" xmlns:xlink="http://www.w3.org/1999/xlink" x="0px" y="0px"
	 viewBox="0 0 100 100" style="enable-background:new 0 0 100 100;" xml:space="preserve">
<g id="XMLID_1_">
	<path id="XMLID_8_" d="M-103.1,68.8h-16.3V53.1h17.1c0,0,6.2-0.1,6.2,8.1C-96.1,68-100.6,68.8-103.1,68.8 M-119.4,30.9h14.9h2.2
		c0,0,4.2,0,4.2,6.1c0,6.1-2.4,7-5.2,7h-16.1V30.9z M-94.6,47.3c0,0,9-0.7,9-11.2c0-10.5-7.3-15.7-16.7-15.7h-17.1h-0.5h-13v58.8h13
		h0.5h17.1c0,0,18.7,0.6,18.7-17.4C-83.6,61.9-82.8,47.3-94.6,47.3"/>
	<path id="XMLID_5_" d="M-49.5,53.1h-19.3c0,0,1.3-9.1,10.4-9.1C-49.3,44-49.5,53.1-49.5,53.1 M-58.7,35.4
		C-81.3,35.4-81.3,58-81.3,58s-1.6,22.5,22.6,22.5c0,0,20.1,1.2,20.1-15.6h-10.4c0,0,0.3,6.3-9.4,6.3c0,0-10.4,0.7-10.4-10.2h30.5
		C-38.2,61-34.8,35.4-58.7,35.4"/>
	<rect id="XMLID_4_" x="-71.3" y="23.9" width="24.3" height="7.2"/>
</g>
<path id="XMLID_3_" d="M81.7,24.2c-0.9,1.2-7.7,10-22.9,16.1c1,1.9,1.9,3.9,2.7,5.9c0.3,0.7,0.6,1.4,0.9,2.1
	c13.6-1.7,27.2,1,28.5,1.3C90.9,40,87.4,31.1,81.7,24.2z M40.4,10.3c1.1,1.5,8.6,11.6,15.3,24c14.6-5.5,20.7-13.7,21.5-14.8
	C69.9,13,60.4,9.1,50,9.1C46.7,9.1,43.5,9.5,40.4,10.3z M9.9,41.7c1.8,0,18.7,0.1,37.9-5C41,24.6,33.7,14.5,32.6,13
	C21.1,18.4,12.5,29,9.9,41.7z M19.5,77.4c0.9-1.6,12.2-20.2,33.3-27c0.5-0.2,1.1-0.3,1.6-0.5c-1-2.3-2.1-4.7-3.3-6.9
	C30.7,49.1,10.8,48.8,9,48.8c0,0.4,0,0.8,0,1.3C9,60.6,13,70.2,19.5,77.4z M66,87.7c-0.6-3.6-3-16.1-8.7-31c-0.1,0-0.2,0.1-0.3,0.1
	c-23.1,8-31.4,24.1-32.2,25.6c7,5.4,15.7,8.6,25.2,8.6C55.7,91,61.1,89.8,66,87.7z M90.5,56.6c-1.4-0.4-12.7-3.8-25.5-1.8
	c5.4,14.7,7.5,26.7,8,29.2C82.1,77.8,88.6,68,90.5,56.6z M50,97.9C23.5,97.9,2,76.4,2,50C2,23.6,23.5,2.1,50,2.1
	c26.5,0,48,21.5,48,47.9C98,76.4,76.5,97.9,50,97.9z"/>
</svg>
