<?xml version="1.0" encoding="utf-8"?>
<!-- Generator: Adobe Illustrator 19.0.0, SVG Export Plug-In . SVG Version: 6.00 Build 0)  -->
<svg version="1.1" id="圖層_1" xmlns="http://www.w3.org/2000/svg" xmlns:xlink="http://www.w3.org/1999/xlink" x="0px" y="0px"
	 viewBox="0 0 112 112" style="enable-background:new 0 0 112 112;" xml:space="preserve">
<style type="text/css">
	.st0{fill:#040000;}
</style>
<path id="XMLID_8_" class="st0" d="M30.3,81.3"/>
<path id="XMLID_12_" d="M106,50.5c0-22.8-22.4-41.4-50-41.4S6,27.6,6,50.5c0,14.6,9.1,27.4,22.9,34.8l0.3,0.4l0.3,0.4l0.2,0.4
	l0.1,0.6v0.7l-0.1,0.6l-0.2,0.7l-0.3,0.8l-0.4,0.7L28,91.8l-1.1,1.5l-1,1.2l-1.3,1.3l-0.5,0.6L23.6,97l-0.2,0.3l0,0.2l0,0.2l0.2,0.3
	l0.2,0.2l0.1,0.1l0.2,0.1l0.4,0l0.5-0.1l0.7-0.2l1-0.3l1.4-0.4l1.9-0.6L32,96l1.1-0.5l1.5-0.7l1.7-1.1l1.3-0.8l1-0.7l0.8-0.6
	l0.7-0.5l0.5-0.3l0.4-0.2l0.5-0.2l0.7-0.2h0c2.8,0.7,5.8,1.1,8.8,1.3c5.6,4.9,13.5,8,22.3,8c2.7,0,5.4-0.3,8-0.9l0.3,0.1l0.4,0.2
	l0.9,0.7l2.6,1.6l1,0.5l2.1,0.8l1.2,0.4l2,0.5l0.7,0.1l0.6-0.2l0.4-0.6l0.1-0.5l0-0.4l-0.6-0.9l-1.1-1.1l-0.6-0.7l-0.7-0.9l-0.7-1.1
	L90,96.9l-0.1-0.3l0-0.6l0-0.2l0.1-0.2c8.9-4.7,14.1-12.7,14.1-21.5c0-2.9-0.6-5.8-1.7-8.4C104.7,61,106,55.9,106,50.5z M89.1,94.3
	l-0.2,0.1l-0.5,0.9l-0.1,0.6l0,0.9l0.1,0.6l0.3,0.6l1.6,2.3l1.5,1.6l-1.3-0.4l-2.4-0.8l-1.5-0.7l-1.9-1.1L83.5,98l-0.5-0.3l-0.4-0.2
	l-1.1-0.4l-0.2,0c-2.5,0.6-5.2,0.9-7.8,0.9c-16,0-29.1-10.7-29.1-23.9s13-23.9,29.1-23.9c16,0,29.1,10.7,29.1,23.9
	C102.6,82.4,97.5,89.9,89.1,94.3z"/>
<path id="path5907" inkscape:connector-curvature="0" d="M59.7,69.6c-2.6,0-4.7,2.1-4.7,4.7c0,2.6,2.1,4.7,4.7,4.7
	c2.6,0,4.7-2.1,4.7-4.7C64.3,71.7,62.3,69.6,59.7,69.6z M74.7,69.6c-2.6,0-4.7,2.1-4.7,4.7c0,2.6,2.1,4.7,4.7,4.7
	c2.6,0,4.7-2.1,4.7-4.7C79.4,71.7,77.3,69.6,74.7,69.6z M89.7,69.6c-2.6,0-4.7,2.1-4.7,4.7c0,2.6,2.1,4.7,4.7,4.7s4.7-2.1,4.7-4.7
	C94.4,71.7,92.3,69.6,89.7,69.6z"/>
</svg>
