<?xml version="1.0" encoding="utf-8"?>
<!-- Generator: Adobe Illustrator 19.0.0, SVG Export Plug-In . SVG Version: 6.00 Build 0)  -->
<svg version="1.1" id="圖層_1" xmlns="http://www.w3.org/2000/svg" xmlns:xlink="http://www.w3.org/1999/xlink" x="0px" y="0px"
	 viewBox="250 -72 1000 232.3" style="enable-background:new 250 -72 1000 232.3;" xml:space="preserve">
<style type="text/css">
	.st0{fill:#666666;}
	.st1{fill:none;stroke:#999999;stroke-miterlimit:10;}
	.st2{fill:#999999;}
	.st3{fill:none;stroke:#B3B3B3;stroke-width:2.8346;stroke-miterlimit:10;}
</style>
<g>
	<g id="XMLID_419_">
		<path id="XMLID_420_" d="M650.5-20.6v-2.5h8.9c-0.4-1.2-0.9-2.3-1.4-3.4l2.5-0.7c0.6,1.5,1,2.8,1.4,4.1h9.2v2.5h-9v4.9h7.8v2.5
			h-7.8v5.8h9.9v2.5h-22.4v-2.5h9.8v-5.8h-7.8v-2.5h7.8v-4.9L650.5-20.6L650.5-20.6z"/>
		<path id="XMLID_422_" d="M675.1-11.1l-0.8-2.7c2.8-2.6,4.7-5.1,5.8-7.6h-5.2v-2.5h3c-0.3-0.9-0.6-1.8-1-2.7l2.4-0.7
			c0.5,1.2,0.8,2.3,1,3.4h2.4v2.2c-0.6,1.7-1.4,3.5-2.6,5.2c1.1,0.7,2.2,1.5,3.1,2.4l-1.4,2.1c-0.6-0.7-1.2-1.3-1.7-1.8v9.7h-2.6
			v-9.2C676.6-12.6,675.9-11.8,675.1-11.1z M695.7-26.4V-12h-2.8v4.5c0,0.4,0.2,0.6,0.6,0.7h1.1c0.4,0,0.6-0.4,0.6-1
			c0.1-0.7,0.1-1.6,0.1-2.8l2.3,0.9c0,2.4-0.2,3.9-0.5,4.4c-0.4,0.5-1.1,0.8-2.3,0.9h-1.3c-1.9,0-2.9-0.9-2.9-2.5V-12h-2.1
			c-0.4,3.6-2.2,6.3-5.5,7.9l-1.4-2.2c2.6-1.1,4.1-3,4.4-5.7h-2.4v-14.4L695.7-26.4L695.7-26.4z M693.1-22.3v-1.8H686v1.8H693.1z
			 M693.1-18.2v-2H686v2H693.1z M693.1-16.2H686v2h7.1V-16.2z"/>
		<path id="XMLID_428_" d="M718.3-16.1v8.4h-3.8v0.8c0,0.4,0.1,0.5,0.5,0.5h3.9c0.4,0,0.6-0.1,0.8-0.4c0.1-0.2,0.3-0.9,0.3-2.1
			l2.1,0.7c-0.2,1.8-0.5,2.9-0.9,3.3c-0.4,0.3-1,0.5-1.9,0.5h-4.9c-1.5,0-2.2-0.7-2.2-2v-1.3H710c-1.3,2-4.3,3.3-9,3.9l-1.2-1.8
			c3.6-0.4,6.1-1,7.5-2h-3.9V-16L718.3-16.1L718.3-16.1z M703.7-21.3h3.4v1.5h-3.2l0.1,1h4.8l-0.8-1.3c0.6-0.2,1.3-0.5,1.9-0.8
			c-0.5-0.3-1-0.6-1.5-0.9l1.1-1c0.6,0.3,1.1,0.6,1.7,1c0.4-0.4,0.8-0.7,1.2-1.1l1.3,0.8c-0.4,0.4-0.8,0.8-1.2,1.2
			c0.5,0.3,1,0.7,1.5,1.1l-1.1,1.1h4.9l0.1-1h-3.3v-1.6h3.4l0.1-0.8h-3.5v-1.5h3.5l0.1-0.9h-3.7v-1.8h5.9l-0.4,7.7h1.7v4.1h-2.3
			v-2.4h-16.9v2.4h-2.3v-4.1h1.7l-0.5-7.2c1.7-0.1,3.5-0.5,5.3-1.1l0.8,1.8c-0.8,0.3-2.1,0.5-3.9,0.8l0.1,0.8h3.6v1.5h-3.4
			L703.7-21.3z M715.9-13.8v-0.9h-10.3v0.9H715.9z M715.9-11.6v-0.8h-10.3v0.8H715.9z M715.9-10.3h-10.3v0.9h10.3V-10.3z
			 M711.2-25.7c0.5-0.3,0.9-0.7,1.2-1.1l1.4,0.9c-0.4,0.4-0.8,0.8-1.1,1.1c0.5,0.3,1,0.6,1.4,1l-1.1,1.1c-0.5-0.4-1-0.8-1.6-1.1
			c-0.7,0.4-1.6,0.9-2.6,1.3l-0.9-1.4c0.7-0.2,1.3-0.5,1.9-0.8c-0.5-0.3-1-0.6-1.6-0.8l1.1-1.1C709.9-26.4,710.6-26.1,711.2-25.7z
			 M708.8-18.7h3.9c-0.5-0.4-1-0.8-1.6-1.2C710.5-19.6,709.7-19.2,708.8-18.7z"/>
	</g>
	<g id="XMLID_397_">
		<path id="XMLID_398_" class="st0" d="M753.9-15.8l-2.5,2.9v5.6c0,0.4-0.1,0.7-1,0.7c-0.9,0-1-0.3-1-0.7v-16.2c0-0.4,0.1-0.7,1-0.7
			c0.9,0,1,0.3,1,0.7v8.2l6.9-8.2c0.4-0.5,0.7-0.7,1.6-0.7c0.6,0,0.9,0.1,0.9,0.4c0,0.1,0,0.2-0.2,0.4l-5.4,6.3l6.1,9.9
			c0.1,0.1,0.1,0.2,0.1,0.3c0,0.2-0.3,0.4-1,0.4c-0.8,0-1-0.2-1.4-0.7L753.9-15.8z"/>
		<path id="XMLID_400_" class="st0" d="M764.3-12.8c0.1,3.4,1.5,4.7,3.9,4.7c1.7,0,2.8-0.7,3.2-0.7s0.5,0.6,0.5,1
			c0,0.3-0.1,0.5-0.6,0.7c-0.4,0.2-1.7,0.7-3.4,0.7c-3.4,0-5.6-2.1-5.6-6.7c0-4.7,2.3-7.1,5.3-7.1c2.9,0,4.7,2.1,4.7,6.4
			c0,0.9-0.1,1.1-0.8,1.1L764.3-12.8L764.3-12.8z M770.5-14.3c-0.1-3.1-1.1-4.5-2.9-4.5s-3.1,1.5-3.3,4.5H770.5z"/>
		<path id="XMLID_403_" class="st0" d="M778.7-8.7c0.1-0.7,0.3-1.5,0.5-2.1l2.6-8.5c0.1-0.4,0.2-0.7,1.1-0.7c0.6,0,0.9,0.2,0.9,0.5
			c0,0.1,0,0.2,0,0.3l-4,12.7c-1.4,4.4-3.9,4.6-4.7,4.6c-0.5,0-0.8-0.1-0.8-0.9c0-0.4,0.1-0.5,0.6-0.7c0.7-0.3,2.1-0.4,3.3-3.5
			c-0.7,0-0.9-0.3-1-0.7l-3.5-11.5c0-0.1,0-0.2,0-0.3c0-0.3,0.2-0.5,0.9-0.5c0.9,0,1,0.3,1.1,0.7l2.6,8.5
			C778.4-10,778.5-9.6,778.7-8.7L778.7-8.7z"/>
		<path id="XMLID_405_" class="st0" d="M790.8-23.5c0-0.1,0-0.2,0-0.3c0-0.3,0.2-0.5,1-0.5c0.9,0,1,0.3,1.1,0.7l3.7,12.2
			c0.2,0.6,0.3,1.2,0.5,2.2l0,0c0.2-1,0.3-1.6,0.5-2.2l3.7-12.2c0.1-0.4,0.2-0.7,1.1-0.7c0.7,0,0.9,0.2,0.9,0.5c0,0.1,0,0.2,0,0.3
			l-5,16.2c-0.1,0.4-0.3,0.7-1.2,0.7s-1.1-0.3-1.2-0.7L790.8-23.5z"/>
		<path id="XMLID_407_" class="st0" d="M806.2-22.1c-0.8,0-1.3-0.6-1.3-1.2c0-0.6,0.5-1.2,1.3-1.2s1.3,0.6,1.3,1.2
			C807.5-22.7,807-22.1,806.2-22.1z M805.3-19.4c0-0.4,0.1-0.7,0.9-0.7s0.9,0.3,0.9,0.7v12c0,0.4-0.1,0.7-0.9,0.7s-0.9-0.3-0.9-0.7
			V-19.4z"/>
		<path id="XMLID_410_" class="st0" d="M813.8-6.4c-1.7,0-2.9-0.5-3.3-0.7c-0.4-0.2-0.5-0.3-0.5-0.6s0.1-1.1,0.6-1.1
			s1.6,0.8,3.3,0.8c1.6,0,2.7-0.7,2.7-2.1c0-3.4-6.2-1.9-6.2-6.3c0-2.4,1.8-3.8,4.4-3.8c1.3,0,2.3,0.4,2.7,0.5
			c0.4,0.2,0.5,0.3,0.5,0.6s-0.1,1.1-0.6,1.1c-0.4,0-1.3-0.6-2.6-0.6c-1.5,0-2.4,0.8-2.4,2c0,3.2,6.2,1.6,6.2,6.3
			C818.4-7.8,816.5-6.4,813.8-6.4z"/>
		<path id="XMLID_412_" class="st0" d="M828.9-19.4c0-0.4,0.1-0.7,0.9-0.7s0.9,0.3,0.9,0.7v9.3c0,1.1,0.2,2.5,0.2,2.9
			c0,0.3-0.1,0.5-0.9,0.5c-0.7,0-0.8-0.2-1.1-1.4c-1,1-2.5,1.6-4,1.6c-2.2,0-3.8-1.2-3.8-4.1v-8.9c0-0.4,0.1-0.7,0.9-0.7
			s0.9,0.3,0.9,0.7v8.6c0,2,0.9,2.7,2.4,2.7c1.3,0,2.6-0.6,3.5-1.5L828.9-19.4L828.9-19.4z"/>
		<path id="XMLID_414_" class="st0" d="M842.9-10.1c0,1.2,0.2,2.5,0.2,2.9c0,0.3-0.1,0.5-0.9,0.5c-0.7,0-0.9-0.2-1.1-1.4
			c-0.9,1-2.5,1.6-3.9,1.6c-2.2,0-3.7-1.4-3.7-3.9c0-2.8,1.8-4.6,7.1-4.6h0.5v-0.9c0-2-0.9-2.9-2.8-2.9c-1.8,0-3,0.8-3.5,0.8
			c-0.4,0-0.5-0.6-0.5-0.9c0-0.4,0.2-0.5,0.6-0.7c0.4-0.2,1.8-0.8,3.7-0.8c2.7,0,4.4,1.3,4.4,4.3L842.9-10.1L842.9-10.1L842.9-10.1z
			 M841.1-13.5h-0.5c-3.9,0-5.1,1.2-5.1,3.1c0,1.6,0.9,2.4,2.3,2.4c1,0,2.2-0.4,3.3-1.5V-13.5L841.1-13.5z"/>
		<path id="XMLID_417_" class="st0" d="M846.6-24.3c0-0.4,0.1-0.7,0.9-0.7s0.9,0.3,0.9,0.7v14.2c0,1.9,1.1,1.9,1.7,2
			c0.3,0.1,0.4,0.3,0.4,0.7c0,0.8-0.3,0.8-0.8,0.8c-1.6,0-3.2-0.6-3.2-3.3L846.6-24.3L846.6-24.3z"/>
	</g>
</g>
<g id="XMLID_22_">
	<g id="XMLID_23_">
		<line id="XMLID_35_" class="st1" x1="483" y1="108.4" x2="495.3" y2="108.4"/>
		<g id="XMLID_26_">
			<polygon id="XMLID_31_" class="st2" points="490.8,113.7 493.1,108.4 490.8,103.2 503.3,108.4 			"/>
		</g>
	</g>
</g>
<g id="XMLID_3_">
	<g id="XMLID_4_">
		<line id="XMLID_19_" class="st1" x1="737" y1="108.4" x2="749.3" y2="108.4"/>
		<g id="XMLID_6_">
			<polygon id="XMLID_18_" class="st2" points="744.8,113.7 747.1,108.4 744.8,103.2 757.3,108.4 			"/>
		</g>
	</g>
</g>
<g id="XMLID_20_">
	<g id="XMLID_21_">
		<line id="XMLID_49_" class="st1" x1="991" y1="108.4" x2="1003.2" y2="108.4"/>
		<g id="XMLID_47_">
			<polygon id="XMLID_48_" class="st2" points="998.8,113.7 1001.1,108.4 998.8,103.2 1011.2,108.4 			"/>
		</g>
	</g>
</g>
<g id="XMLID_7_">
	<path id="XMLID_17_" d="M295.8,85.6v-2.5h8.9c-0.4-1.2-0.9-2.3-1.4-3.4l2.5-0.7c0.6,1.5,1,2.8,1.4,4.1h9.2v2.5h-9v4.9h7.8V93h-7.8
		v5.8h9.9v2.5h-22.4v-2.5h9.8V93h-7.8v-2.5h7.8v-4.9H295.8L295.8,85.6z"/>
	<path id="XMLID_16_" d="M342.3,79.9v2.3h-7.1v1.6h5.6v6.7h-10.2l-0.9,1.6h12.8v2.4h-5.2c-0.5,1.2-1.2,2.3-2.3,3.3
		c2.3,0.7,4.7,1.5,7.2,2.4l-1.6,2.1c-2.6-1.1-5.2-2.1-7.9-2.9c-2.3,1.2-6.2,2.1-11.5,2.9l-1-2.3c3.8-0.4,6.8-0.9,9-1.6
		c-1.9-0.5-3.7-1-5.6-1.4c0.5-0.8,1.1-1.6,1.6-2.3h-5.6v-2.4h7.1c0.3-0.5,0.6-1.1,0.9-1.6h-6.2v-6.8h5.6v-1.6h-7.1v-2.4L342.3,79.9
		L342.3,79.9z M327.1,86.1H324v2.3h3.1V86.1z M334.7,94.6h-6.4c-0.3,0.5-0.6,0.9-0.9,1.3c1.6,0.3,3.2,0.7,4.9,1.2
		C333.4,96.4,334.2,95.5,334.7,94.6z M332.7,82.2h-3.1v1.6h3.1V82.2z M332.7,86.1h-3.1v2.3h3.1V86.1z M338.3,86.1h-3.1v2.3h3.1V86.1
		z"/>
	<path id="XMLID_14_" d="M346,82.8v-2.1h9.3c-0.2-0.5-0.4-0.9-0.7-1.3l2.7-0.5c0.2,0.5,0.5,1.1,0.7,1.7h8.4v2.1h-3.8l0.9,0.6
		c-1.1,0.5-2.2,1.1-3.3,1.5c1.7,0.4,3.2,0.9,4.6,1.4l-1.1,1.1h2.9v2.2h-17.5V92c0,0.7,0,1.4-0.1,2.1c1.4-1.1,2.4-2.5,3.1-4.3l2,0.8
		l-0.4,0.9h3.5v-1.7h2.5v1.7h6.1v2.2h-6.1v1.6h5.7v2.2h-5.7v1.6h7.4v2.2h-18.2v-2.2h8.2v-1.2h-5.6v-2.2h5.6v-1.6h-4.8
		c-0.6,0.8-1.2,1.5-1.9,2.1l-1.5-1.3c-0.3,3-1,5.5-2.2,7.5l-1.9-1.7c1.1-2,1.8-4.8,1.8-8.4v-4.7h2.5l-1.2-1.6
		c2.1-0.2,4.1-0.5,5.8-0.9c-1.4-0.4-2.8-0.7-4.4-1.1l1.1-1.1L346,82.8L346,82.8L346,82.8z M362.2,87.4c-1.4-0.5-3.1-1-5-1.5
		c-2.4,0.7-5.1,1.2-7.9,1.5H362.2z M351.7,82.8c1.9,0.4,3.7,0.9,5.4,1.3c1.3-0.4,2.5-0.9,3.6-1.3H351.7z"/>
	<path id="XMLID_12_" d="M380,101.8h-2.5v-1.2h-4.3v1.2h-2.5V90.4h9.4v11.4H380z M377.5,98.2v-5.3h-4.3v5.3H377.5z M388.3,79.9v8.9
		h-14.4v-8.9H388.3z M385.7,82.3h-9.1v4h9.1V82.3z M391.7,101.8h-2.6v-1.2h-4.6v1.2H382V90.4h9.7L391.7,101.8L391.7,101.8z
		 M389.1,98.2v-5.3h-4.6v5.3H389.1z"/>
	<path id="XMLID_11_" d="M394.8,84.1v-2.5h9.3v2.5h-3.3v10.5c1.2-0.3,2.4-0.7,3.6-1.2V96c-2.9,1-5.9,1.9-9.2,2.6l-0.7-2.6
		c1.2-0.2,2.4-0.4,3.6-0.7V84.2L394.8,84.1L394.8,84.1L394.8,84.1z M410.8,79.1v4.8h6.2c0,8.3-0.1,13.5-0.4,15.4
		c-0.3,1.8-1.8,2.7-4.3,2.7c-0.4,0-1.3,0-2.4-0.1l-0.6-2.4c1,0.1,1.9,0.1,2.6,0.1c1.3,0,2.1-0.5,2.3-1.5c0.1-1.1,0.2-5,0.3-11.6
		h-3.7v0.2c-0.1,7.2-2,12.5-5.8,15.8l-2.1-1.9c3.5-2.9,5.2-7.5,5.3-13.9v-0.2h-3.7v-2.6h3.7v-4.8H410.8z"/>
	<path id="XMLID_9_" d="M425.1,85.6c-1.1,2.3-2.4,4.3-3.8,6l-2-1.5c1.4-1.5,2.7-3.4,3.7-5.6L425.1,85.6z M426.1,92.8
		c0.5-1,1-2.1,1.3-3.3l2.2,1c-0.4,1.5-1,2.9-1.6,4.1c0.9,0.9,1.8,1.9,2.6,2.8l-1.8,2c-0.8-0.9-1.5-1.8-2.2-2.5
		c-1.5,2.1-3.4,3.8-5.7,5.1l-1.5-2.3c2.2-1.2,4-2.7,5.4-4.7c-1-1-2-1.9-3-2.7l1.6-1.8C424.4,91.3,425.3,92.1,426.1,92.8z
		 M427.1,81.5h4.5V84h-11.7v-2.5h4.7c-0.3-0.8-0.7-1.4-1.1-2.1l2.7-0.4C426.5,79.7,426.8,80.5,427.1,81.5z M426.2,85.9l1.6-1.5
		c0.9,0.7,2.1,1.9,3.4,3.5l-1.7,1.7C428.5,88.3,427.4,87.1,426.2,85.9z M432.6,90.9c-0.3,0.4-0.6,0.8-0.9,1.2l-1.6-2
		c1.9-2.8,3.2-6.5,3.9-11.2l2.6,0.5c-0.2,1.2-0.4,2.3-0.7,3.4h6.6v2.5h-1.6c-0.1,3.9-1.1,7.2-2.8,10c1.4,1.7,3,3.2,5,4.6l-1.8,2.1
		c-1.8-1.3-3.4-2.9-4.7-4.5c-1.5,1.7-3.4,3.2-5.7,4.5l-1.5-2.4c2.3-1.1,4.2-2.5,5.7-4.2C434,94.1,433.2,92.5,432.6,90.9z
		 M433.5,89.4l0.8-0.5c0.5,1.5,1.2,2.9,2.1,4.3c1.2-2.2,1.9-4.8,2-7.8h-3.3C434.6,86.9,434.1,88.2,433.5,89.4z"/>
</g>
<g id="XMLID_349_">
	<g id="XMLID_522_">
		<path id="XMLID_537_" class="st0" d="M332.5,136.2c-0.5,0-0.8-0.2-0.8-0.8v-15.9c0-0.5,0.2-0.8,0.8-0.8h8.4c0.4,0,0.6,0.1,0.6,0.9
			s-0.2,0.9-0.6,0.9h-7.3v6h6.3c0.4,0,0.6,0.1,0.6,0.9c0,0.8-0.2,0.9-0.6,0.9h-6.3v6.3h7.3c0.4,0,0.6,0.1,0.6,0.9s-0.2,0.9-0.6,0.9
			h-8.4V136.2z"/>
		<path id="XMLID_535_" class="st0" d="M352,124.5h-4.9v11.1c0,0.4-0.1,0.7-0.9,0.7s-0.9-0.3-0.9-0.7v-11.1H344
			c-0.3,0-0.6-0.1-0.6-0.8c0-0.7,0.3-0.8,0.6-0.8h1.3v-1.1c0-3,2.2-4.2,4-4.2c0.5,0,0.8,0.1,0.8,0.9c0,0.4-0.1,0.6-0.5,0.7
			s-2.4,0.2-2.4,2.6v1.2h4.9v-0.8c0-3.2,2.3-4.4,4.3-4.4c0.5,0,0.8,0.1,0.8,0.9c0,0.4-0.1,0.6-0.5,0.7s-2.7,0.1-2.7,2.8v0.9h2.6
			c0.3,0,0.6,0.1,0.6,0.8c0,0.7-0.3,0.8-0.6,0.8H354v11.1c0,0.4-0.1,0.7-0.9,0.7s-0.9-0.3-0.9-0.7v-11.3H352L352,124.5z"/>
		<path id="XMLID_532_" class="st0" d="M360,120.8c-0.8,0-1.3-0.6-1.3-1.2s0.5-1.2,1.3-1.2s1.3,0.6,1.3,1.2
			C361.3,120.2,360.8,120.8,360,120.8z M359,123.5c0-0.4,0.1-0.7,0.9-0.7s0.9,0.3,0.9,0.7v12c0,0.4-0.1,0.7-0.9,0.7
			s-0.9-0.3-0.9-0.7V123.5z"/>
		<path id="XMLID_530_" class="st0" d="M369.1,136.5c-3.1,0-5.2-2-5.2-6.6c0-5,2.5-7.2,5.6-7.2c1.1,0,1.9,0.3,2.2,0.4
			c0.4,0.2,0.5,0.3,0.5,0.6c0,0.4-0.1,1-0.6,1c-0.4,0-1-0.5-2.1-0.5c-2.1,0-3.7,1.7-3.7,5.5c0,3.6,1.4,5.1,3.5,5.1
			c1.3,0,2-0.5,2.4-0.5s0.5,0.6,0.5,1c0,0.3-0.1,0.5-0.6,0.7C371.4,136.1,370.4,136.5,369.1,136.5z"/>
		<path id="XMLID_527_" class="st0" d="M383.5,132.8c0,1.2,0.2,2.5,0.2,2.9c0,0.3-0.1,0.5-0.9,0.5c-0.7,0-0.9-0.2-1.1-1.4
			c-0.9,1-2.5,1.6-3.9,1.6c-2.2,0-3.7-1.4-3.7-3.9c0-2.8,1.8-4.6,7.1-4.6h0.5V127c0-2-0.9-2.9-2.8-2.9c-1.8,0-3,0.8-3.5,0.8
			c-0.4,0-0.5-0.6-0.5-0.9c0-0.4,0.2-0.5,0.6-0.7s1.8-0.8,3.7-0.8c2.7,0,4.4,1.3,4.4,4.3L383.5,132.8L383.5,132.8L383.5,132.8z
			 M381.6,129.4h-0.5c-3.9,0-5.1,1.2-5.1,3.1c0,1.6,0.9,2.4,2.3,2.4c1,0,2.2-0.4,3.3-1.5L381.6,129.4L381.6,129.4z"/>
		<path id="XMLID_525_" class="st0" d="M391.7,136.5c-3.1,0-5.2-2-5.2-6.6c0-5,2.5-7.2,5.6-7.2c1.1,0,1.9,0.3,2.2,0.4
			c0.4,0.2,0.5,0.3,0.5,0.6c0,0.4-0.1,1-0.6,1c-0.4,0-1-0.5-2.1-0.5c-2.1,0-3.7,1.7-3.7,5.5c0,3.6,1.4,5.1,3.5,5.1
			c1.3,0,2-0.5,2.4-0.5s0.5,0.6,0.5,1c0,0.3-0.1,0.5-0.6,0.7C394,136.1,393,136.5,391.7,136.5z"/>
		<path id="XMLID_523_" class="st0" d="M401.2,134.2c0.1-0.7,0.3-1.5,0.5-2.1l2.6-8.5c0.1-0.4,0.2-0.7,1.1-0.7
			c0.6,0,0.9,0.2,0.9,0.5c0,0.1,0,0.2,0,0.3l-4,12.7c-1.4,4.4-3.9,4.6-4.7,4.6c-0.5,0-0.8-0.1-0.8-0.9c0-0.4,0.1-0.5,0.6-0.7
			c0.7-0.3,2.1-0.4,3.3-3.5c-0.7,0-0.9-0.3-1-0.7l-3.5-11.5c0-0.1,0-0.2,0-0.3c0-0.3,0.2-0.5,0.9-0.5c0.9,0,1,0.3,1.1,0.7l2.6,8.5
			C400.9,132.9,401,133.3,401.2,134.2L401.2,134.2z"/>
	</g>
</g>
<g id="XMLID_114_">
	<g id="XMLID_27_">
		<line id="XMLID_30_" class="st1" x1="369.1" y1="15.1" x2="369.1" y2="51.1"/>
		<g id="XMLID_28_">
			<polygon id="XMLID_29_" class="st2" points="363.8,46.6 369.1,48.9 374.3,46.6 369.1,59.1 			"/>
		</g>
	</g>
</g>
<g id="XMLID_319_">
	<path id="XMLID_320_" d="M574.7,91.8l-0.9-2.8c2.4-2.8,4.2-6.2,5.3-10l2.5,1.1c-0.6,1.9-1.4,3.7-2.3,5.4v16.8h-2.6V89.4
		C576,90.3,575.4,91,574.7,91.8z M587.8,81.5v-2.3h2.6v2.3h6.6V84h-6.6v1.8h5.7v7.6h-5.8c-0.2,1.9-0.5,3.5-1.1,4.6
		c2.3,1.2,5,1.8,8,2l-0.6,2.5c-3.3-0.2-6.3-1-8.8-2.4c-1.4,1.2-3.5,2-6.3,2.4l-1.1-2.4c2.2-0.2,3.9-0.7,5.1-1.6
		c-1.3-1-2.5-2.1-3.6-3.4l2-1.4c0.9,1.1,1.9,2.1,3.1,2.9c0.4-0.9,0.6-1.9,0.8-3.2h-5.4v-7.6h5.5V84h-6.1v-2.5H587.8z M587.8,88.1h-3
		V91h3V88.1z M593.7,88.1h-3.3V91h3.3V88.1z"/>
	<path id="XMLID_325_" d="M601,102.2l-2-1.8c1.5-2.1,2.2-4.8,2.3-8V80h19.4v18.9c0,1.9-1,2.9-3,2.9h-2.9l-0.7-2.5
		c1,0.1,1.9,0.1,2.7,0.1s1.1-0.5,1.1-1.4v-3.5H612v7h-2.6v-7h-5.6C603.5,97.5,602.5,100.1,601,102.2z M603.9,82.5V86h5.5v-3.5H603.9
		z M603.9,92h5.5v-3.6h-5.5V92z M618,82.5h-5.9V86h5.9V82.5z M618,88.4h-5.9V92h5.9V88.4z"/>
	<path id="XMLID_331_" d="M637,79.1v2.7h7.3v2.5H637v2.6h9.8v2.5h-9.6v7.2h-2.6v-7.2h-10.2V87h3.4v-5.9h2.6V87h3.8v-7.8h2.8V79.1
		L637,79.1z M632,91.8c-1.4,2.3-3.2,4.3-5.4,6l-1.7-2.1c2-1.6,3.8-3.4,5.2-5.5L632,91.8z M645.1,92.1c-3.2,6.9-9.3,10.4-18.3,10.4
		l-0.9-2.5c8.6,0,14.3-3.1,16.9-9.2L645.1,92.1z"/>
	<path id="XMLID_335_" d="M651.2,94.4c-0.2,2.6-0.5,4.8-0.8,6.7l-1.5-0.5c0.3-1.8,0.6-3.9,0.8-6.6L651.2,94.4z M658.8,90.8
		c0,4.3-0.1,7.3-0.4,8.8c1.2-1.3,2-3,2.5-5l1.9,0.4c-0.2,0.9-0.4,1.7-0.7,2.5c0.8,0.5,1.4,1.2,2.1,1.9l-1.2,1.8
		c-0.5-0.8-1.1-1.4-1.7-1.9c-0.4,0.8-1,1.6-1.6,2.2l-1.4-1.7c-0.1,0.4-0.1,0.6-0.2,0.8c-0.4,0.9-1.2,1.4-2.3,1.4c-0.5,0-1.1,0-1.7,0
		l-0.5-2.2c0.6,0.1,1.2,0.1,1.8,0.1c0.6,0,1-0.4,1.1-1.3l0.1-0.9l-0.9,0.4c-0.2-1.4-0.5-2.8-0.8-4.1l1.1-0.3c0.3,1.1,0.5,2.1,0.7,3
		c0-1,0.1-2.2,0.1-3.6h-6.9v-13h8.6v2.2h-2.4v1.5h1.9v2.1h-1.9v1.4h1.9v2.1h-1.9v1.5L658.8,90.8L658.8,90.8z M653.2,100.1l-1.4,0.2
		c0-2.6-0.1-4.6-0.2-6l1.2-0.1C653,95.5,653.1,97.5,653.2,100.1z M652.1,82.2v1.5h1.7v-1.5H652.1z M652.1,87.2h1.7v-1.4h-1.7V87.2z
		 M652.1,90.8h1.7v-1.5h-1.7V90.8z M655.1,98.9l-1.3,0.2c-0.1-2.2-0.2-3.8-0.5-5l1.1-0.1C654.7,95.1,655,96.8,655.1,98.9z M666.3,80
		v1.9h-0.7v9.3h-1.9v-1.4c-1.4,0.2-2.9,0.4-4.6,0.6l-0.3-1.9l1.1-0.1v-6.5h-0.8V80H666.3z M659.9,93.9l-0.7-2
		c4.4,0,8.1-0.4,11.1-1.2l1.1,1.8c-1.4,0.5-3,0.8-4.8,1v5.8c1-1.3,1.6-3,1.9-5.1l2,0.3c-0.2,0.9-0.4,1.7-0.6,2.4
		c0.6,0.9,1.4,1.7,2.4,2.5l-1.2,1.9c-0.7-0.7-1.4-1.4-2-2.2c-0.4,0.9-1,1.7-1.5,2.4l-1-1.2v2h-2.3v-8.6
		C662.9,93.8,661.5,93.9,659.9,93.9z M663.6,82.9v-1.1h-1.8v1.1H663.6z M663.6,85.5v-1.1h-1.8v1.1H663.6z M663.6,87.9V87h-1.8v1.2
		C662.4,88,663,88,663.6,87.9z M668.9,84.8c0.3-0.7,0.5-1.5,0.7-2.3h-3v-2h5v1.7c-0.3,1.6-0.7,3-1.2,4.3c0.7,0.8,1.3,1.5,1.9,2.3
		l-1.6,1.6c-0.4-0.6-0.9-1.3-1.4-1.9c-0.5,0.8-1,1.4-1.7,2l-1.3-1.7c0.6-0.6,1.1-1.2,1.6-2c-0.7-0.8-1.4-1.5-2.1-2.2l1.4-1.3
		C667.8,83.7,668.4,84.3,668.9,84.8z"/>
</g>
<g id="XMLID_252_">
	<path id="XMLID_253_" d="M829.4,82.9v-2.1h9.3c-0.2-0.5-0.4-0.9-0.7-1.3l2.7-0.5c0.2,0.5,0.5,1.1,0.7,1.7h8.4v2.1H846l0.9,0.6
		c-1.1,0.5-2.2,1.1-3.3,1.5c1.7,0.4,3.2,0.9,4.6,1.4l-1.1,1.1h2.9v2.2h-17.5v2.5c0,0.7,0,1.4-0.1,2.1c1.4-1.1,2.4-2.5,3.1-4.3l2,0.8
		l-0.4,0.9h3.5v-1.7h2.5v1.7h6.1v2.2h-6.1v1.6h5.7v2.2h-5.7v1.6h7.4v2.2h-18.2v-2.2h8.2V98h-5.6v-2.2h5.6v-1.6h-4.8
		c-0.6,0.8-1.2,1.5-1.9,2.1l-1.5-1.3c-0.3,3-1,5.5-2.2,7.5l-1.9-1.7c1.1-2,1.8-4.8,1.8-8.4v-4.7h2.5l-1.2-1.6
		c2.1-0.2,4.1-0.5,5.8-0.9c-1.4-0.4-2.8-0.7-4.4-1.1l1.1-1.1L829.4,82.9L829.4,82.9z M845.6,87.5c-1.4-0.5-3.1-1-5-1.5
		c-2.4,0.7-5.1,1.2-7.9,1.5H845.6z M835.1,82.9c1.9,0.4,3.7,0.9,5.4,1.3c1.3-0.4,2.5-0.9,3.6-1.3H835.1z"/>
	<path id="XMLID_257_" d="M863.4,101.9h-2.5v-1.2h-4.3v1.2h-2.5V90.5h9.4L863.4,101.9L863.4,101.9z M860.9,98.3V93h-4.3v5.3H860.9z
		 M871.7,80v8.9h-14.4V80H871.7z M869.1,82.4H860v4h9.1V82.4z M875.1,101.9h-2.6v-1.2h-4.6v1.2h-2.5V90.5h9.7L875.1,101.9
		L875.1,101.9z M872.5,98.3V93h-4.6v5.3H872.5z"/>
	<path id="XMLID_264_" d="M887.1,93.6l-2.1,0.9c-0.1-0.4-0.2-0.8-0.3-1.1c-2.1,0.6-4.1,1-5.9,1.2l-0.6-2.1c0.4-0.1,0.8-0.4,1.1-0.7
		c0.7-0.8,1.5-2,2.6-3.9c-1,0.2-2.1,0.4-3.3,0.5l-0.6-2.2c0.4-0.1,0.7-0.4,1-0.9c0.9-1.9,1.7-4,2.4-6.3l2.4,1c-1,2.4-2,4.4-3,6
		c0.8-0.1,1.5-0.3,2.2-0.4c0.4-0.9,0.9-1.7,1.3-2.7l2.2,0.9c-2,3.9-3.7,6.7-5.1,8.4c0.9-0.2,1.8-0.4,2.7-0.7c-0.2-0.7-0.4-1.4-0.7-2
		l1.8-0.8C886.1,90.3,886.6,91.9,887.1,93.6z M880.9,96c-0.1,2.2-0.2,4.2-0.5,6l-2.3-0.7c0.4-1.6,0.6-3.4,0.7-5.5L880.9,96z
		 M884,100.9l-2.2,0.3c0-2.3-0.1-4.1-0.2-5.4l2-0.2C883.7,96.8,883.9,98.6,884,100.9z M887,98.9l-2,0.8c-0.3-1.6-0.6-3-1-4.3
		l1.8-0.7C886.3,96,886.7,97.4,887,98.9z M889.8,100.8v1.3h-2.3V81h12.8v21.2h-2.4v-1.4H889.8L889.8,100.8z M889.8,83.4v6.2h2.8
		v-6.2H889.8z M889.8,91.9v6.5h2.8v-6.5H889.8z M897.9,89.5v-6.2H895v6.2H897.9z M897.9,98.4v-6.5H895v6.5H897.9z"/>
	<path id="XMLID_274_" d="M905.4,85.8l-2.3-1.4c1.5-1.6,2.5-3.4,3.1-5.2l2.5,0.6c-0.1,0.4-0.3,0.8-0.4,1.2h6v2.3h-3.4
		c0.5,0.8,1,1.5,1.3,2.2l-2.3,0.9c-0.5-1.1-1-2.1-1.7-3.1h-1C906.7,84.1,906.1,85,905.4,85.8z M915.4,100.9L913,102
		c-0.2-0.6-0.5-1.2-0.7-1.7c-2.1,0.6-4.6,1.2-7.5,1.7l-0.7-2.4c0.4-0.1,0.6-0.4,0.6-0.7V86.4h10.1v9.2h-7.5v3.5c1.4-0.3,2.7-0.6,4-1
		c-0.3-0.5-0.5-1-0.8-1.5l2.4-0.8C913.8,97.4,914.7,99.1,915.4,100.9z M912.1,88.5h-4.8v1.4h4.8V88.5z M907.3,93.5h4.8V92h-4.8V93.5
		z M916.3,86l-2.2-1.4c1.3-1.7,2.2-3.5,2.7-5.4l2.5,0.5l-0.4,1.1h6.9v2.3h-4c0.5,0.8,1,1.5,1.3,2.2l-2.3,0.9c-0.5-1.1-1-2.1-1.7-3.1
		H918C917.5,84.2,916.9,85.1,916.3,86z M920.4,100.1l-0.7-2.5l2.3,0.1c0.4,0,0.6-0.2,0.6-0.6v-8.3H919v13.5h-2.6V86.4h8.8v11.3
		c0,1.6-0.8,2.4-2.3,2.4H920.4z"/>
</g>
<g id="XMLID_200_">
	<path id="XMLID_201_" class="st0" d="M849.2,138.3c-0.5,0-0.8-0.2-0.8-0.8v-15.9c0-0.5,0.2-0.8,0.8-0.8h3.9c4.5,0,7.6,3,7.6,8.7
		c0,5.7-3.2,8.8-7.7,8.8H849.2L849.2,138.3z M852.9,136.5c3.4,0,5.7-2.4,5.7-7.1c0-4.6-2.3-6.9-5.7-6.9h-2.6v14H852.9z"/>
	<path id="XMLID_212_" class="st0" d="M865,132.2c0.1,3.4,1.5,4.7,3.9,4.7c1.7,0,2.8-0.7,3.2-0.7s0.5,0.6,0.5,1
		c0,0.3-0.1,0.5-0.6,0.7c-0.4,0.2-1.7,0.7-3.4,0.7c-3.4,0-5.6-2.1-5.6-6.7c0-4.7,2.3-7.1,5.3-7.1c2.9,0,4.7,2.1,4.7,6.4
		c0,0.9-0.1,1.1-0.8,1.1H865V132.2z M871.2,130.7c-0.1-3.1-1.1-4.5-2.9-4.5s-3.1,1.5-3.3,4.5H871.2z"/>
	<path id="XMLID_222_" class="st0" d="M876.5,126.6h-1.3c-0.3,0-0.6-0.1-0.6-0.8s0.3-0.8,0.6-0.8h1.3v-2.9c0-0.4,0.1-0.7,0.9-0.7
		s0.9,0.3,0.9,0.7v2.9h2.6c0.3,0,0.6,0.1,0.6,0.8s-0.3,0.8-0.6,0.8h-2.6v8.2c0,1.5,0.6,2,1.8,2c0.5,0,0.7-0.1,0.9-0.1
		c0.4,0,0.5,0.3,0.5,0.8s-0.1,0.6-0.5,0.7c-0.3,0.1-0.8,0.2-1.5,0.2c-2.1,0-3.2-1-3.2-3.3v-8.5H876.5L876.5,126.6z"/>
	<path id="XMLID_224_" class="st0" d="M892.4,134.9c0,1.2,0.2,2.5,0.2,2.9c0,0.3-0.1,0.5-0.9,0.5c-0.7,0-0.9-0.2-1.1-1.4
		c-0.9,1-2.5,1.6-3.9,1.6c-2.2,0-3.7-1.4-3.7-3.9c0-2.8,1.8-4.6,7.1-4.6h0.5v-0.9c0-2-0.9-2.9-2.8-2.9c-1.8,0-3,0.8-3.5,0.8
		c-0.4,0-0.5-0.6-0.5-0.9c0-0.4,0.2-0.5,0.6-0.7c0.4-0.2,1.8-0.8,3.7-0.8c2.7,0,4.4,1.3,4.4,4.3L892.4,134.9L892.4,134.9z
		 M890.5,131.5H890c-3.9,0-5.1,1.2-5.1,3.1c0,1.6,0.9,2.4,2.3,2.4c1,0,2.2-0.4,3.3-1.5L890.5,131.5L890.5,131.5z"/>
	<path id="XMLID_227_" class="st0" d="M897.1,122.9c-0.8,0-1.3-0.6-1.3-1.2s0.5-1.2,1.3-1.2s1.3,0.6,1.3,1.2
		S897.9,122.9,897.1,122.9z M896.1,125.6c0-0.4,0.1-0.7,0.9-0.7s0.9,0.3,0.9,0.7v12c0,0.4-0.1,0.7-0.9,0.7s-0.9-0.3-0.9-0.7V125.6z"
		/>
	<path id="XMLID_230_" class="st0" d="M901.7,120.7c0-0.4,0.1-0.7,0.9-0.7s0.9,0.3,0.9,0.7v14.2c0,1.9,1.1,1.9,1.7,2
		c0.3,0.1,0.4,0.3,0.4,0.7c0,0.8-0.3,0.8-0.8,0.8c-1.6,0-3.2-0.6-3.2-3.3L901.7,120.7L901.7,120.7L901.7,120.7z"/>
</g>
<g id="XMLID_140_">
	<path id="XMLID_141_" d="M1085.6,89l-1.8,1.8c-1-1.1-2.3-2.4-4.1-3.8l1.8-1.8C1083.1,86.5,1084.5,87.7,1085.6,89z M1086.3,93.3
		c-1.1,3.1-2.3,6.1-3.7,8.8l-2.6-1.2c1.5-2.8,2.8-5.7,4-8.6L1086.3,93.3z M1086.4,83.1l-1.8,1.9c-1-1.2-2.5-2.4-4.4-3.8l1.9-1.8
		C1083.8,80.6,1085.2,82,1086.4,83.1z M1093.3,83.1c-0.4-1.2-0.9-2.3-1.5-3.4l2.4-0.7c0.7,1.5,1.2,2.8,1.6,4.1h6.1v2.5h-6.1v5.1h5.4
		v2.5h-5.4v5.7h6.6v2.5h-16.1v-2.5h6.8v-5.7h-5.5v-2.5h5.5v-5.1h-6.2v-2.5L1093.3,83.1L1093.3,83.1z"/>
	<path id="XMLID_151_" d="M1109.2,96.5c-0.6,2-1.4,3.7-2.4,5.1l-2.2-1.4c1-1.3,1.7-2.7,2.1-4.2L1109.2,96.5z M1106.3,82.7v-2.2h8.1
		c-0.2-0.4-0.3-0.7-0.5-1l2.8-0.4c0.2,0.4,0.4,0.9,0.6,1.5h8.6v2.2h-3.9l-0.6,1.3h5.7v2.2h-21.9V84h5.5l-0.5-1.3H1106.3z
		 M1124.5,87.1V95h-7.7c0.9,1,1.7,1.8,2.2,2.5l-2.2,1.5c-0.6-0.8-1.3-1.7-2.2-2.7l2.2-1.3h-9.1v-7.9H1124.5z M1121.9,90.2v-1h-11.8
		v1.1L1121.9,90.2L1121.9,90.2z M1121.9,92h-11.8v1.1h11.8V92z M1113.5,102c-2,0-3-0.9-3-2.6v-3.2h2.6v2.6c0,0.6,0.4,0.9,1.1,0.9
		h4.8c0.4,0,0.7-0.1,0.9-0.3c0.2-0.2,0.4-0.8,0.5-1.8l2.5,0.8c-0.2,1.7-0.6,2.8-1.1,3.1s-1.2,0.5-2.2,0.5H1113.5z M1118.5,84
		l0.6-1.3h-6.3l0.5,1.3H1118.5z M1127.7,99.8l-2.2,1.5c-0.8-1.3-1.8-2.8-3-4.4l2.1-1.3C1125.9,97.2,1126.9,98.6,1127.7,99.8z"/>
	<path id="XMLID_166_" d="M1139.7,83.7v-1.1h-9.5v-2.2h9.5v-1.2h2.6v1.2h9.5v2.2h-9.5v1.1h7.4v5.2h-7.4v1.2h7.7v3.2h2.4v2.1h-2.4
		v3.3h-7.7v1.1c0,1.6-0.9,2.4-2.6,2.4h-3.1l-0.5-2.4c0.9,0.1,1.9,0.2,2.7,0.2c0.6,0,0.9-0.2,0.9-0.8v-0.5h-7.9v-2h7.9v-1.2h-10.2
		v-2.1h10.2v-1.2h-7.9v-2h7.9V89h-7.4v-5.2L1139.7,83.7L1139.7,83.7z M1139.7,85.6h-4.8V87h4.8V85.6z M1147.1,85.6h-4.8V87h4.8V85.6
		z M1142.3,93.3h5.2v-1.2h-5.2V93.3z M1142.3,95.4v1.2h5.2v-1.2H1142.3z"/>
	<path id="XMLID_187_" d="M1162.7,81.3v2.5h-2.5v11c0.9-0.4,1.9-0.8,2.8-1.3V96c-2.4,1.2-5,2.1-7.7,2.9l-0.6-2.4
		c1-0.2,2-0.5,2.9-0.8v-12h-2.8v-2.5L1162.7,81.3L1162.7,81.3z M1168.5,83.7c0.2-0.5,0.4-1,0.5-1.5h-5.5v-2.3h13.7v2.3h-5.6
		c-0.2,0.5-0.3,1-0.5,1.5h5v13.9h-3.1c1.8,1,3.3,2.1,4.5,3.1l-1.7,1.7c-1.1-1.1-2.7-2.2-4.7-3.5l1.3-1.3h-4.7l1.4,1.2
		c-1.5,1.3-3.3,2.5-5.4,3.6l-1.4-1.8c1.9-0.9,3.6-1.9,4.9-3h-2.9V83.7H1168.5L1168.5,83.7z M1173.6,87.6v-1.8h-6.6v1.8H1173.6z
		 M1173.6,91.5v-1.9h-6.6v1.9H1173.6z M1173.6,93.5h-6.6v2h6.6V93.5z"/>
</g>
<g id="XMLID_2_">
	<path id="XMLID_8_" class="st0" d="M1104,126.8c-0.9-1.7-1.2-2.3-1.8-3.6l0,0c0.1,1.1,0.1,2,0.1,3.6v10.4c0,0.4-0.1,0.7-0.9,0.7
		c-0.8,0-0.9-0.3-0.9-0.7v-16.1c0-0.5,0.1-0.8,1.2-0.8c0.9,0,1.1,0.3,1.4,0.8l5.5,10c0.9,1.7,1.2,2.3,1.8,3.6l0,0
		c-0.1-1.1-0.1-2-0.1-3.6v-10c0-0.4,0.1-0.7,0.9-0.7c0.8,0,0.9,0.3,0.9,0.7v16.1c0,0.5-0.1,0.8-1,0.8s-1-0.3-1.3-0.8L1104,126.8z"/>
	<path id="XMLID_10_" class="st0" d="M1115.3,131.4c0-4.6,2.3-7,5.4-7c3,0,5.2,2.3,5.2,6.8c0,4.6-2.3,7-5.4,7
		C1117.5,138.2,1115.3,135.9,1115.3,131.4z M1124,131.2c0-3.6-1.4-5.3-3.4-5.3s-3.4,1.7-3.4,5.3s1.4,5.3,3.4,5.3
		S1124,134.8,1124,131.2z"/>
	<path id="XMLID_13_" class="st0" d="M1129.4,126.2h-1.3c-0.3,0-0.6-0.1-0.6-0.8s0.3-0.8,0.6-0.8h1.3v-2.9c0-0.4,0.1-0.7,0.9-0.7
		c0.8,0,0.9,0.3,0.9,0.7v2.9h2.6c0.3,0,0.6,0.1,0.6,0.8s-0.3,0.8-0.6,0.8h-2.6v8.2c0,1.5,0.6,2,1.8,2c0.5,0,0.7-0.1,0.9-0.1
		c0.4,0,0.5,0.3,0.5,0.8s-0.1,0.6-0.5,0.7c-0.3,0.1-0.8,0.2-1.5,0.2c-2.1,0-3.2-1-3.2-3.3v-8.5H1129.4L1129.4,126.2z"/>
	<path id="XMLID_15_" class="st0" d="M1138,131.8c0.1,3.4,1.5,4.7,3.9,4.7c1.7,0,2.8-0.7,3.2-0.7s0.5,0.6,0.5,1
		c0,0.3-0.1,0.5-0.6,0.7c-0.4,0.2-1.7,0.7-3.4,0.7c-3.4,0-5.6-2.1-5.6-6.7c0-4.7,2.3-7.1,5.3-7.1c2.9,0,4.7,2.1,4.7,6.4
		c0,0.9-0.1,1.1-0.8,1.1h-7.2V131.8L1138,131.8z M1144.3,130.4c-0.1-3.1-1.1-4.5-2.9-4.5c-1.8,0-3.1,1.5-3.3,4.5H1144.3z"/>
	<path id="XMLID_138_" class="st0" d="M1151.9,138.2c-1.7,0-2.9-0.5-3.3-0.7s-0.5-0.3-0.5-0.6s0.1-1.1,0.6-1.1s1.6,0.8,3.3,0.8
		c1.6,0,2.7-0.7,2.7-2.1c0-3.4-6.2-1.9-6.2-6.3c0-2.4,1.8-3.8,4.4-3.8c1.3,0,2.3,0.4,2.7,0.5c0.4,0.2,0.5,0.3,0.5,0.6
		s-0.1,1.1-0.6,1.1c-0.4,0-1.3-0.6-2.6-0.6c-1.5,0-2.4,0.8-2.4,2c0,3.2,6.2,1.6,6.2,6.3C1156.5,136.8,1154.6,138.2,1151.9,138.2z"/>
</g>
<g>
	<path id="XMLID_282_" class="st0" d="M542.5,138.6c-2.1,0-3.6-0.6-4.2-0.9c-0.4-0.2-0.5-0.4-0.5-0.7c0-0.4,0.1-1.1,0.6-1.1
		s2.1,1,4.2,1c2.3,0,3.8-1.2,3.8-3.2c0-4.7-8.3-2.6-8.3-8.3c0-2.9,2.1-4.8,5.5-4.8c1.8,0,3,0.5,3.5,0.8c0.4,0.2,0.5,0.4,0.5,0.7
		c0,0.3-0.2,1.1-0.6,1.1c-0.4,0-1.7-0.9-3.5-0.9c-2.2,0-3.4,1.2-3.4,2.9c0,4.4,8.3,2.2,8.3,8.3C548.4,136.7,546.1,138.6,542.5,138.6
		z"/>
	<path id="XMLID_284_" class="st0" d="M555.2,131.9l-1.9,2.1v3.7c0,0.4-0.1,0.7-0.9,0.7s-0.9-0.3-0.9-0.7v-17c0-0.4,0.1-0.7,0.9-0.7
		s0.9,0.3,0.9,0.7v11.1l5-6.1c0.4-0.5,0.7-0.7,1.5-0.7c0.6,0,0.9,0.1,0.9,0.4c0,0.1,0,0.2-0.2,0.4l-4.1,4.9l4.5,7.1
		c0.1,0.1,0.1,0.2,0.1,0.4c0,0.2-0.3,0.4-0.9,0.4c-0.9,0-1-0.3-1.3-0.7L555.2,131.9z"/>
	<path id="XMLID_286_" class="st0" d="M563.9,122.9c-0.8,0-1.3-0.6-1.3-1.2s0.5-1.2,1.3-1.2s1.3,0.6,1.3,1.2
		S564.7,122.9,563.9,122.9z M563,125.6c0-0.4,0.1-0.7,0.9-0.7s0.9,0.3,0.9,0.7v12c0,0.4-0.1,0.7-0.9,0.7s-0.9-0.3-0.9-0.7V125.6z"/>
	<path id="XMLID_289_" class="st0" d="M576.4,129.1c0-2-0.9-2.7-2.4-2.7c-1.3,0-2.6,0.6-3.5,1.5v9.8c0,0.4-0.1,0.7-0.9,0.7
		s-0.9-0.3-0.9-0.7v-12c0-0.4,0.1-0.7,0.9-0.7c0.7,0,0.9,0.3,0.9,0.7l0.1,0.7c1-1,2.5-1.6,4-1.6c2.2,0,3.8,1.2,3.8,4.1v8.9
		c0,0.4-0.1,0.7-0.9,0.7s-0.9-0.3-0.9-0.7v-8.7L576.4,129.1L576.4,129.1z"/>
	<path id="XMLID_291_" class="st0" d="M586.4,138.6c-3.1,0-5.2-2-5.2-6.6c0-5,2.5-7.2,5.6-7.2c1.1,0,1.9,0.3,2.2,0.4
		c0.4,0.2,0.5,0.3,0.5,0.6c0,0.4-0.1,1-0.6,1c-0.4,0-1-0.5-2.1-0.5c-2.1,0-3.7,1.7-3.7,5.5c0,3.6,1.4,5.1,3.5,5.1
		c1.3,0,2-0.5,2.4-0.5c0.4,0,0.5,0.6,0.5,1c0,0.3-0.1,0.5-0.6,0.7C588.7,138.2,587.7,138.6,586.4,138.6z"/>
	<path id="XMLID_293_" class="st0" d="M600.8,134.9c0,1.2,0.2,2.5,0.2,2.9c0,0.3-0.1,0.5-0.9,0.5c-0.7,0-0.9-0.2-1.1-1.4
		c-0.9,1-2.5,1.6-3.9,1.6c-2.2,0-3.7-1.4-3.7-3.9c0-2.8,1.8-4.6,7.1-4.6h0.5v-0.9c0-2-0.9-2.9-2.8-2.9c-1.8,0-3,0.8-3.5,0.8
		c-0.4,0-0.5-0.6-0.5-0.9c0-0.4,0.2-0.5,0.6-0.7c0.4-0.2,1.8-0.8,3.7-0.8c2.7,0,4.4,1.3,4.4,4.3L600.8,134.9L600.8,134.9z
		 M598.9,131.5h-0.5c-3.9,0-5.1,1.2-5.1,3.1c0,1.6,0.9,2.4,2.3,2.4c1,0,2.2-0.4,3.3-1.5V131.5L598.9,131.5z"/>
	<path id="XMLID_296_" class="st0" d="M604.5,125.6c0-0.4,0.1-0.7,0.9-0.7s0.9,0.3,0.9,0.7l0.1,1.3c1-1.4,2.9-2.2,4.1-2.2
		c0.5,0,0.7,0.2,0.7,0.9c0,0.6-0.1,0.7-0.6,0.8c-1,0.2-2.6,0.5-4.2,2.5v8.8c0,0.4-0.1,0.7-0.9,0.7s-0.9-0.3-0.9-0.7L604.5,125.6
		L604.5,125.6L604.5,125.6z"/>
	<path id="XMLID_298_" class="st0" d="M614.4,132.2c0.1,3.4,1.5,4.7,3.9,4.7c1.7,0,2.8-0.7,3.2-0.7s0.5,0.6,0.5,1
		c0,0.3-0.1,0.5-0.6,0.7c-0.4,0.2-1.7,0.7-3.4,0.7c-3.4,0-5.6-2.1-5.6-6.7c0-4.7,2.3-7.1,5.3-7.1c2.9,0,4.7,2.1,4.7,6.4
		c0,0.9-0.1,1.1-0.8,1.1h-7.2V132.2L614.4,132.2z M620.6,130.7c-0.1-3.1-1.1-4.5-2.9-4.5s-3.1,1.5-3.3,4.5H620.6z"/>
	<path id="XMLID_301_" class="st0" d="M637.5,131c-0.2,0-0.4,0-0.5,0h-2.9v6.6c0,0.4-0.1,0.7-1,0.7c-0.9,0-1-0.3-1-0.7v-16.1
		c0-0.5,0.2-0.8,0.8-0.8h4.2c3.8,0,5.6,2.1,5.6,5.1c0,2.3-1.1,4.1-3.3,4.8l4.1,7c0.1,0.1,0.1,0.2,0.1,0.3c0,0.3-0.3,0.4-0.9,0.4
		c-0.9,0-1.1-0.3-1.4-0.7L637.5,131z M636.9,129.4c2.8,0,3.9-1.4,3.9-3.5c0-2-1.1-3.4-3.8-3.4h-2.8v6.9H636.9z"/>
	<path id="XMLID_304_" class="st0" d="M645.2,131.7c0-4.6,2.3-7,5.4-7c3,0,5.2,2.3,5.2,6.8c0,4.6-2.3,7-5.4,7
		C647.4,138.6,645.2,136.3,645.2,131.7z M653.9,131.6c0-3.6-1.4-5.3-3.4-5.3s-3.4,1.7-3.4,5.3c0,3.6,1.4,5.3,3.4,5.3
		S653.9,135.2,653.9,131.6z"/>
	<path id="XMLID_307_" class="st0" d="M666.5,125.6c0-0.4,0.1-0.7,0.9-0.7c0.8,0,0.9,0.3,0.9,0.7v9.3c0,1.1,0.2,2.5,0.2,2.9
		c0,0.3-0.1,0.5-0.9,0.5c-0.7,0-0.8-0.2-1.1-1.4c-1,1-2.5,1.6-4,1.6c-2.2,0-3.8-1.2-3.8-4.1v-8.9c0-0.4,0.1-0.7,0.9-0.7
		c0.8,0,0.9,0.3,0.9,0.7v8.6c0,2,0.9,2.7,2.4,2.7c1.3,0,2.6-0.6,3.5-1.5L666.5,125.6L666.5,125.6z"/>
	<path id="XMLID_309_" class="st0" d="M672.6,126.6h-1.3c-0.3,0-0.6-0.1-0.6-0.8s0.3-0.8,0.6-0.8h1.3v-2.9c0-0.4,0.1-0.7,0.9-0.7
		s0.9,0.3,0.9,0.7v2.9h2.6c0.3,0,0.6,0.1,0.6,0.8s-0.3,0.8-0.6,0.8h-2.6v8.2c0,1.5,0.6,2,1.8,2c0.5,0,0.7-0.1,0.9-0.1
		c0.4,0,0.5,0.3,0.5,0.8s-0.1,0.6-0.5,0.7c-0.3,0.1-0.8,0.2-1.5,0.2c-2.1,0-3.2-1-3.2-3.3v-8.5H672.6L672.6,126.6z"/>
	<path id="XMLID_311_" class="st0" d="M681.1,122.9c-0.8,0-1.3-0.6-1.3-1.2s0.5-1.2,1.3-1.2s1.3,0.6,1.3,1.2
		S681.8,122.9,681.1,122.9z M680.1,125.6c0-0.4,0.1-0.7,0.9-0.7s0.9,0.3,0.9,0.7v12c0,0.4-0.1,0.7-0.9,0.7s-0.9-0.3-0.9-0.7V125.6z"
		/>
	<path id="XMLID_314_" class="st0" d="M693.5,129.1c0-2-0.9-2.7-2.4-2.7c-1.3,0-2.6,0.6-3.5,1.5v9.8c0,0.4-0.1,0.7-0.9,0.7
		s-0.9-0.3-0.9-0.7v-12c0-0.4,0.1-0.7,0.9-0.7c0.7,0,0.9,0.3,0.9,0.7l0.1,0.7c1-1,2.5-1.6,4-1.6c2.2,0,3.8,1.2,3.8,4.1v8.9
		c0,0.4-0.1,0.7-0.9,0.7c-0.8,0-0.9-0.3-0.9-0.7v-8.7L693.5,129.1L693.5,129.1z"/>
	<path id="XMLID_316_" class="st0" d="M700.2,132.2c0.1,3.4,1.5,4.7,3.9,4.7c1.7,0,2.8-0.7,3.2-0.7s0.5,0.6,0.5,1
		c0,0.3-0.1,0.5-0.6,0.7c-0.4,0.2-1.7,0.7-3.4,0.7c-3.4,0-5.6-2.1-5.6-6.7c0-4.7,2.3-7.1,5.3-7.1c2.9,0,4.7,2.1,4.7,6.4
		c0,0.9-0.1,1.1-0.8,1.1h-7.2L700.2,132.2L700.2,132.2z M706.5,130.7c-0.1-3.1-1.1-4.5-2.9-4.5c-1.8,0-3.1,1.5-3.3,4.5H706.5z"/>
</g>
<path class="st3" d="M1235,152.5h-208c-5.5,0-10-4.5-10-10V74.4c0-5.5,4.5-10,10-10h208c5.5,0,10,4.5,10,10v68.1
	C1245,148,1240.5,152.5,1235,152.5z"/>
<path class="st3" d="M981,152.5H773c-5.5,0-10-4.5-10-10V74.4c0-5.5,4.5-10,10-10h208c5.5,0,10,4.5,10,10v68.1
	C991,148,986.5,152.5,981,152.5z"/>
<path class="st3" d="M727,152.5H519c-5.5,0-10-4.5-10-10V74.4c0-5.5,4.5-10,10-10h208c5.5,0,10,4.5,10,10v68.1
	C737,148,732.5,152.5,727,152.5z"/>
<path class="st3" d="M473,152.5H265c-5.5,0-10-4.5-10-10V74.4c0-5.5,4.5-10,10-10h208c5.5,0,10,4.5,10,10v68.1
	C483,148,478.5,152.5,473,152.5z"/>
<path class="st3" d="M1235,15.1H265c-5.5,0-10-4.5-10-10v-40c0-5.5,4.5-10,10-10h970c5.5,0,10,4.5,10,10v40
	C1245,10.6,1240.5,15.1,1235,15.1z"/>
</svg>
