<?xml version="1.0" encoding="utf-8"?>
<!-- Generator: Adobe Illustrator 19.0.0, SVG Export Plug-In . SVG Version: 6.00 Build 0)  -->
<svg version="1.1" id="圖層_1" xmlns="http://www.w3.org/2000/svg" xmlns:xlink="http://www.w3.org/1999/xlink" x="0px" y="0px"
	 viewBox="-99 64.4 800 673.6" style="enable-background:new -99 64.4 800 673.6;" xml:space="preserve">
<style type="text/css">
	.st0{fill:none;stroke:#B3B3B3;stroke-width:2.8346;stroke-miterlimit:10;}
	.st1{fill:#666666;}
	.st2{fill:none;stroke:#999999;stroke-miterlimit:10;}
	.st3{fill:#999999;}
</style>
<path id="XMLID_1_" class="st0" d="M44.6,136.2h612.5c5.5,0,10,4.5,10,10v40c0,5.5-4.5,10-10,10H44.6c-5.5,0-10-4.5-10-10v-40
	C34.6,140.7,39.1,136.2,44.6,136.2z"/>
<g id="XMLID_419_">
	<path id="XMLID_420_" d="M149.5,160.9v-2.5h8.9c-0.4-1.2-0.9-2.3-1.4-3.4l2.5-0.7c0.6,1.5,1,2.8,1.4,4.1h9.2v2.5h-9v4.9h7.8v2.5
		h-7.8v5.8h9.9v2.5h-22.4v-2.5h9.8v-5.8h-7.8v-2.5h7.8v-4.9H149.5z"/>
	<path id="XMLID_422_" d="M174.1,170.4l-0.8-2.7c2.8-2.6,4.7-5.1,5.8-7.6h-5.2v-2.5h3c-0.3-0.9-0.6-1.8-1-2.7l2.4-0.7
		c0.5,1.2,0.8,2.3,1,3.4h2.4v2.2c-0.6,1.7-1.4,3.5-2.6,5.2c1.1,0.7,2.2,1.5,3.1,2.4l-1.4,2.1c-0.6-0.7-1.2-1.3-1.7-1.8v9.7h-2.6
		v-9.2C175.6,168.9,174.9,169.7,174.1,170.4z M194.7,155.1v14.4h-2.8v4.5c0,0.4,0.2,0.6,0.6,0.7h1.1c0.4,0,0.6-0.4,0.6-1
		c0.1-0.7,0.1-1.6,0.1-2.8l2.3,0.9c0,2.4-0.2,3.9-0.5,4.4c-0.4,0.5-1.1,0.8-2.3,0.9h-1.3c-1.9,0-2.9-0.9-2.9-2.5v-5.1h-2.1
		c-0.4,3.6-2.2,6.3-5.5,7.9l-1.4-2.2c2.6-1.1,4.1-3,4.4-5.7h-2.4v-14.4H194.7L194.7,155.1z M192.1,159.2v-1.8H185v1.8H192.1z
		 M192.1,163.3v-2H185v2H192.1z M192.1,165.3H185v2h7.1V165.3z"/>
	<path id="XMLID_428_" d="M217.3,165.4v8.4h-3.8v0.8c0,0.4,0.1,0.5,0.5,0.5h3.9c0.4,0,0.6-0.1,0.8-0.4c0.1-0.2,0.3-0.9,0.3-2.1
		l2.1,0.7c-0.2,1.8-0.5,2.9-0.9,3.3c-0.4,0.3-1,0.5-1.9,0.5h-4.9c-1.5,0-2.2-0.7-2.2-2v-1.3H209c-1.3,2-4.3,3.3-9,3.9l-1.2-1.8
		c3.6-0.4,6.1-1,7.5-2h-3.9v-8.4L217.3,165.4L217.3,165.4z M202.7,160.2h3.4v1.5h-3.2l0.1,1h4.8l-0.8-1.3c0.6-0.2,1.3-0.5,1.9-0.8
		c-0.5-0.3-1-0.6-1.5-0.9l1.1-1c0.6,0.3,1.1,0.6,1.7,1c0.4-0.4,0.8-0.7,1.2-1.1l1.3,0.8c-0.4,0.4-0.8,0.8-1.2,1.2
		c0.5,0.3,1,0.7,1.5,1.1l-1.1,1.1h4.9l0.1-1h-3.3v-1.6h3.4l0.1-0.8h-3.5v-1.5h3.5l0.1-0.9h-3.7v-1.8h5.9l-0.4,7.7h1.7v4.1h-2.3v-2.4
		h-16.9v2.4h-2.3v-4.1h1.7l-0.5-7.2c1.7-0.1,3.5-0.5,5.3-1.1l0.8,1.8c-0.8,0.3-2.1,0.5-3.9,0.8l0.1,0.8h3.6v1.5h-3.4L202.7,160.2z
		 M214.9,167.7v-0.9h-10.3v0.9H214.9z M214.9,169.9v-0.8h-10.3v0.8H214.9z M214.9,171.2h-10.3v0.9h10.3V171.2z M210.2,155.8
		c0.5-0.3,0.9-0.7,1.2-1.1l1.4,0.9c-0.4,0.4-0.8,0.8-1.1,1.1c0.5,0.3,1,0.6,1.4,1l-1.1,1.1c-0.5-0.4-1-0.8-1.6-1.1
		c-0.7,0.4-1.6,0.9-2.6,1.3l-0.9-1.4c0.7-0.2,1.3-0.5,1.9-0.8c-0.5-0.3-1-0.6-1.6-0.8l1.1-1.1C208.9,155.1,209.6,155.4,210.2,155.8z
		 M207.8,162.8h3.9c-0.5-0.4-1-0.8-1.6-1.2C209.5,161.9,208.7,162.3,207.8,162.8z"/>
</g>
<g id="XMLID_397_">
	<path id="XMLID_398_" class="st1" d="M407.5,166.6l-2.5,2.9v5.6c0,0.4-0.1,0.7-1,0.7s-1-0.3-1-0.7v-16.2c0-0.4,0.1-0.7,1-0.7
		s1,0.3,1,0.7v8.2l6.9-8.2c0.4-0.5,0.7-0.7,1.6-0.7c0.6,0,0.9,0.1,0.9,0.4c0,0.1,0,0.2-0.2,0.4l-5.4,6.3l6.1,9.9
		c0.1,0.1,0.1,0.2,0.1,0.3c0,0.2-0.3,0.4-1,0.4c-0.8,0-1-0.2-1.4-0.7L407.5,166.6z"/>
	<path id="XMLID_400_" class="st1" d="M417.9,169.6c0.1,3.4,1.5,4.7,3.9,4.7c1.7,0,2.8-0.7,3.2-0.7c0.4,0,0.5,0.6,0.5,1
		c0,0.3-0.1,0.5-0.6,0.7c-0.4,0.2-1.7,0.7-3.4,0.7c-3.4,0-5.6-2.1-5.6-6.7c0-4.7,2.3-7.1,5.3-7.1c2.9,0,4.7,2.1,4.7,6.4
		c0,0.9-0.1,1.1-0.8,1.1L417.9,169.6L417.9,169.6z M424.1,168.1c-0.1-3.1-1.1-4.5-2.9-4.5s-3.1,1.5-3.3,4.5H424.1z"/>
	<path id="XMLID_403_" class="st1" d="M432.3,173.7c0.1-0.7,0.3-1.5,0.5-2.1l2.6-8.5c0.1-0.4,0.2-0.7,1.1-0.7c0.6,0,0.9,0.2,0.9,0.5
		c0,0.1,0,0.2,0,0.3l-4,12.7c-1.4,4.4-3.9,4.6-4.7,4.6c-0.5,0-0.8-0.1-0.8-0.9c0-0.4,0.1-0.5,0.6-0.7c0.7-0.3,2.1-0.4,3.3-3.5
		c-0.7,0-0.9-0.3-1-0.7l-3.5-11.5c0-0.1,0-0.2,0-0.3c0-0.3,0.2-0.5,0.9-0.5c0.9,0,1,0.3,1.1,0.7l2.6,8.5
		C432,172.4,432.1,172.8,432.3,173.7L432.3,173.7z"/>
	<path id="XMLID_405_" class="st1" d="M444.4,158.9c0-0.1,0-0.2,0-0.3c0-0.3,0.2-0.5,1-0.5c0.9,0,1,0.3,1.1,0.7l3.7,12.2
		c0.2,0.6,0.3,1.2,0.5,2.2l0,0c0.2-1,0.3-1.6,0.5-2.2l3.7-12.2c0.1-0.4,0.2-0.7,1.1-0.7c0.7,0,0.9,0.2,0.9,0.5c0,0.1,0,0.2,0,0.3
		l-5,16.2c-0.1,0.4-0.3,0.7-1.2,0.7s-1.1-0.3-1.2-0.7L444.4,158.9z"/>
	<path id="XMLID_407_" class="st1" d="M459.8,160.3c-0.8,0-1.3-0.6-1.3-1.2c0-0.6,0.5-1.2,1.3-1.2s1.3,0.6,1.3,1.2
		C461.1,159.7,460.6,160.3,459.8,160.3z M458.9,163c0-0.4,0.1-0.7,0.9-0.7s0.9,0.3,0.9,0.7v12c0,0.4-0.1,0.7-0.9,0.7
		s-0.9-0.3-0.9-0.7V163z"/>
	<path id="XMLID_410_" class="st1" d="M467.4,176c-1.7,0-2.9-0.5-3.3-0.7c-0.4-0.2-0.5-0.3-0.5-0.6c0-0.3,0.1-1.1,0.6-1.1
		s1.6,0.8,3.3,0.8c1.6,0,2.7-0.7,2.7-2.1c0-3.4-6.2-1.9-6.2-6.3c0-2.4,1.8-3.8,4.4-3.8c1.3,0,2.3,0.4,2.7,0.5
		c0.4,0.2,0.5,0.3,0.5,0.6c0,0.3-0.1,1.1-0.6,1.1c-0.4,0-1.3-0.6-2.6-0.6c-1.5,0-2.4,0.8-2.4,2c0,3.2,6.2,1.6,6.2,6.3
		C472,174.6,470.1,176,467.4,176z"/>
	<path id="XMLID_412_" class="st1" d="M482.5,163c0-0.4,0.1-0.7,0.9-0.7c0.8,0,0.9,0.3,0.9,0.7v9.3c0,1.1,0.2,2.5,0.2,2.9
		c0,0.3-0.1,0.5-0.9,0.5c-0.7,0-0.8-0.2-1.1-1.4c-1,1-2.5,1.6-4,1.6c-2.2,0-3.8-1.2-3.8-4.1v-8.9c0-0.4,0.1-0.7,0.9-0.7
		c0.8,0,0.9,0.3,0.9,0.7v8.6c0,2,0.9,2.7,2.4,2.7c1.3,0,2.6-0.6,3.5-1.5L482.5,163L482.5,163z"/>
	<path id="XMLID_414_" class="st1" d="M496.5,172.3c0,1.2,0.2,2.5,0.2,2.9c0,0.3-0.1,0.5-0.9,0.5c-0.7,0-0.9-0.2-1.1-1.4
		c-0.9,1-2.5,1.6-3.9,1.6c-2.2,0-3.7-1.4-3.7-3.9c0-2.8,1.8-4.6,7.1-4.6h0.5v-0.9c0-2-0.9-2.9-2.8-2.9c-1.8,0-3,0.8-3.5,0.8
		c-0.4,0-0.5-0.6-0.5-0.9c0-0.4,0.2-0.5,0.6-0.7c0.4-0.2,1.8-0.8,3.7-0.8c2.7,0,4.4,1.3,4.4,4.3L496.5,172.3L496.5,172.3
		L496.5,172.3z M494.7,168.9h-0.5c-3.9,0-5.1,1.2-5.1,3.1c0,1.6,0.9,2.4,2.3,2.4c1,0,2.2-0.4,3.3-1.5V168.9L494.7,168.9z"/>
	<path id="XMLID_417_" class="st1" d="M500.2,158.1c0-0.4,0.1-0.7,0.9-0.7s0.9,0.3,0.9,0.7v14.2c0,1.9,1.1,1.9,1.7,2
		c0.3,0.1,0.4,0.3,0.4,0.7c0,0.8-0.3,0.8-0.8,0.8c-1.6,0-3.2-0.6-3.2-3.3L500.2,158.1L500.2,158.1z"/>
</g>
<g id="XMLID_5_">
	<g id="XMLID_32_">
		<line id="XMLID_42_" class="st2" x1="350.9" y1="196.2" x2="350.9" y2="232.2"/>
		<g id="XMLID_40_">
			<polygon id="XMLID_41_" class="st3" points="345.6,227.7 350.9,230 356.1,227.7 350.9,240.2 			"/>
		</g>
	</g>
</g>
<path id="XMLID_129_" class="st0" d="M44.6,247.2h612.5c5.5,0,10,4.5,10,10v40c0,5.5-4.5,10-10,10H44.6c-5.5,0-10-4.5-10-10v-40
	C34.6,251.7,39.1,247.2,44.6,247.2z"/>
<g id="XMLID_366_">
	<path id="XMLID_367_" d="M149.5,271.9v-2.5h8.9c-0.4-1.2-0.9-2.3-1.4-3.4l2.5-0.7c0.6,1.5,1,2.8,1.4,4.1h9.2v2.5h-9v4.9h7.8v2.5
		h-7.8v5.8h9.9v2.5h-22.4v-2.5h9.8v-5.8h-7.8v-2.5h7.8v-4.9H149.5L149.5,271.9z"/>
	<path id="XMLID_369_" d="M196,266.2v2.3h-7.1v1.6h5.6v6.7h-10.2l-0.9,1.6h12.8v2.4H191c-0.5,1.2-1.2,2.3-2.3,3.3
		c2.3,0.7,4.7,1.5,7.2,2.4l-1.6,2.1c-2.6-1.1-5.2-2.1-7.9-2.9c-2.3,1.2-6.2,2.1-11.5,2.9l-1-2.3c3.8-0.4,6.8-0.9,9-1.6
		c-1.9-0.5-3.7-1-5.6-1.4c0.5-0.8,1.1-1.6,1.6-2.3h-5.6v-2.4h7.1c0.3-0.5,0.6-1.1,0.9-1.6h-6.2v-6.8h5.6v-1.6h-7.1v-2.4H196
		L196,266.2z M180.8,272.4h-3.1v2.3h3.1V272.4z M188.4,280.9H182c-0.3,0.5-0.6,0.9-0.9,1.3c1.6,0.3,3.2,0.7,4.9,1.2
		C187.1,282.7,187.9,281.8,188.4,280.9z M186.4,268.5h-3.1v1.6h3.1V268.5z M186.4,272.4h-3.1v2.3h3.1V272.4z M192,272.4h-3.1v2.3
		h3.1V272.4z"/>
	<path id="XMLID_376_" d="M199.7,269.1V267h9.3c-0.2-0.5-0.4-0.9-0.7-1.3l2.7-0.5c0.2,0.5,0.5,1.1,0.7,1.7h8.4v2.1h-3.8l0.9,0.6
		c-1.1,0.5-2.2,1.1-3.3,1.5c1.7,0.4,3.2,0.9,4.6,1.4l-1.1,1.1h2.9v2.2h-17.5v2.5c0,0.7,0,1.4-0.1,2.1c1.4-1.1,2.4-2.5,3.1-4.3l2,0.8
		l-0.4,0.9h3.5v-1.7h2.5v1.7h6.1v2.2h-6.1v1.6h5.7v2.2h-5.7v1.6h7.4v2.2h-18.2v-2.2h8.2v-1.2h-5.6V282h5.6v-1.6H206
		c-0.6,0.8-1.2,1.5-1.9,2.1l-1.5-1.3c-0.3,3-1,5.5-2.2,7.5l-1.9-1.7c1.1-2,1.8-4.8,1.8-8.4v-4.7h2.5l-1.2-1.6
		c2.1-0.2,4.1-0.5,5.8-0.9c-1.4-0.4-2.8-0.7-4.4-1.1l1.1-1.1h-4.4V269.1L199.7,269.1z M215.9,273.7c-1.4-0.5-3.1-1-5-1.5
		c-2.4,0.7-5.1,1.2-7.9,1.5H215.9z M205.4,269.1c1.9,0.4,3.7,0.9,5.4,1.3c1.3-0.4,2.5-0.9,3.6-1.3H205.4z"/>
	<path id="XMLID_380_" d="M233.7,288.1h-2.5v-1.2h-4.3v1.2h-2.5v-11.4h9.4v11.4H233.7z M231.2,284.5v-5.3h-4.3v5.3H231.2z
		 M242,266.2v8.9h-14.4v-8.9H242z M239.4,268.6h-9.1v4h9.1V268.6z M245.4,288.1h-2.6v-1.2h-4.6v1.2h-2.5v-11.4h9.7V288.1
		L245.4,288.1z M242.8,284.5v-5.3h-4.6v5.3H242.8z"/>
	<path id="XMLID_387_" d="M248.5,270.4v-2.5h9.3v2.5h-3.3v10.5c1.2-0.3,2.4-0.7,3.6-1.2v2.6c-2.9,1-5.9,1.9-9.2,2.6l-0.7-2.6
		c1.2-0.2,2.4-0.4,3.6-0.7v-11.1h-3.3V270.4L248.5,270.4z M264.5,265.4v4.8h6.2c0,8.3-0.1,13.5-0.4,15.4c-0.3,1.8-1.8,2.7-4.3,2.7
		c-0.4,0-1.3,0-2.4-0.1l-0.6-2.4c1,0.1,1.9,0.1,2.6,0.1c1.3,0,2.1-0.5,2.3-1.5c0.1-1.1,0.2-5,0.3-11.6h-3.7v0.2
		c-0.1,7.2-2,12.5-5.8,15.8l-2.1-1.9c3.5-2.9,5.2-7.5,5.3-13.9v-0.2h-3.7v-2.6h3.7v-4.8H264.5z"/>
	<path id="XMLID_390_" d="M278.8,271.9c-1.1,2.3-2.4,4.3-3.8,6l-2-1.5c1.4-1.5,2.7-3.4,3.7-5.6L278.8,271.9z M279.8,279.1
		c0.5-1,1-2.1,1.3-3.3l2.2,1c-0.4,1.5-1,2.9-1.6,4.1c0.9,0.9,1.8,1.9,2.6,2.8l-1.8,2c-0.8-0.9-1.5-1.8-2.2-2.5
		c-1.5,2.1-3.4,3.8-5.7,5.1l-1.5-2.3c2.2-1.2,4-2.7,5.4-4.7c-1-1-2-1.9-3-2.7l1.6-1.8C278.1,277.6,279,278.4,279.8,279.1z
		 M280.8,267.8h4.5v2.5h-11.7v-2.5h4.7c-0.3-0.8-0.7-1.4-1.1-2.1l2.7-0.4C280.2,266,280.5,266.8,280.8,267.8z M279.9,272.2l1.6-1.5
		c0.9,0.7,2.1,1.9,3.4,3.5l-1.7,1.7C282.2,274.6,281.1,273.4,279.9,272.2z M286.3,277.2c-0.3,0.4-0.6,0.8-0.9,1.2l-1.6-2
		c1.9-2.8,3.2-6.5,3.9-11.2l2.6,0.5c-0.2,1.2-0.4,2.3-0.7,3.4h6.6v2.5h-1.6c-0.1,3.9-1.1,7.2-2.8,10c1.4,1.7,3,3.2,5,4.6l-1.8,2.1
		c-1.8-1.3-3.4-2.9-4.7-4.5c-1.5,1.7-3.4,3.2-5.7,4.5l-1.5-2.4c2.3-1.1,4.2-2.5,5.7-4.2C287.7,280.4,286.9,278.8,286.3,277.2z
		 M287.2,275.7l0.8-0.5c0.5,1.5,1.2,2.9,2.1,4.3c1.2-2.2,1.9-4.8,2-7.8h-3.3C288.3,273.2,287.8,274.5,287.2,275.7z"/>
</g>
<g id="XMLID_349_">
	<g id="XMLID_522_">
		<path id="XMLID_537_" class="st1" d="M403.8,286.7c-0.5,0-0.8-0.2-0.8-0.8V270c0-0.5,0.2-0.8,0.8-0.8h8.4c0.4,0,0.6,0.1,0.6,0.9
			s-0.2,0.9-0.6,0.9h-7.3v6h6.3c0.4,0,0.6,0.1,0.6,0.9s-0.2,0.9-0.6,0.9h-6.3v6.3h7.3c0.4,0,0.6,0.1,0.6,0.9s-0.2,0.9-0.6,0.9h-8.4
			V286.7z"/>
		<path id="XMLID_535_" class="st1" d="M423.3,275h-4.9v11.1c0,0.4-0.1,0.7-0.9,0.7s-0.9-0.3-0.9-0.7V275h-1.3
			c-0.3,0-0.6-0.1-0.6-0.8c0-0.7,0.3-0.8,0.6-0.8h1.3v-1.1c0-3,2.2-4.2,4-4.2c0.5,0,0.8,0.1,0.8,0.9c0,0.4-0.1,0.6-0.5,0.7
			c-0.4,0.1-2.4,0.2-2.4,2.6v1.2h4.9v-0.8c0-3.2,2.3-4.4,4.3-4.4c0.5,0,0.8,0.1,0.8,0.9c0,0.4-0.1,0.6-0.5,0.7
			c-0.4,0.1-2.7,0.1-2.7,2.8v0.9h2.6c0.3,0,0.6,0.1,0.6,0.8c0,0.7-0.3,0.8-0.6,0.8h-2.6v11.1c0,0.4-0.1,0.7-0.9,0.7
			s-0.9-0.3-0.9-0.7V275L423.3,275L423.3,275z"/>
		<path id="XMLID_532_" class="st1" d="M431.3,271.3c-0.8,0-1.3-0.6-1.3-1.2c0-0.6,0.5-1.2,1.3-1.2s1.3,0.6,1.3,1.2
			C432.6,270.7,432.1,271.3,431.3,271.3z M430.3,274c0-0.4,0.1-0.7,0.9-0.7c0.8,0,0.9,0.3,0.9,0.7v12c0,0.4-0.1,0.7-0.9,0.7
			c-0.8,0-0.9-0.3-0.9-0.7V274z"/>
		<path id="XMLID_530_" class="st1" d="M440.4,287c-3.1,0-5.2-2-5.2-6.6c0-5,2.5-7.2,5.6-7.2c1.1,0,1.9,0.3,2.2,0.4
			c0.4,0.2,0.5,0.3,0.5,0.6c0,0.4-0.1,1-0.6,1c-0.4,0-1-0.5-2.1-0.5c-2.1,0-3.7,1.7-3.7,5.5c0,3.6,1.4,5.1,3.5,5.1
			c1.3,0,2-0.5,2.4-0.5s0.5,0.6,0.5,1c0,0.3-0.1,0.5-0.6,0.7C442.7,286.6,441.7,287,440.4,287z"/>
		<path id="XMLID_527_" class="st1" d="M454.8,283.3c0,1.2,0.2,2.5,0.2,2.9c0,0.3-0.1,0.5-0.9,0.5c-0.7,0-0.9-0.2-1.1-1.4
			c-0.9,1-2.5,1.6-3.9,1.6c-2.2,0-3.7-1.4-3.7-3.9c0-2.8,1.8-4.6,7.1-4.6h0.5v-0.9c0-2-0.9-2.9-2.8-2.9c-1.8,0-3,0.8-3.5,0.8
			c-0.4,0-0.5-0.6-0.5-0.9c0-0.4,0.2-0.5,0.6-0.7c0.4-0.2,1.8-0.8,3.7-0.8c2.7,0,4.4,1.3,4.4,4.3L454.8,283.3L454.8,283.3
			L454.8,283.3z M452.9,279.9h-0.5c-3.9,0-5.1,1.2-5.1,3.1c0,1.6,0.9,2.4,2.3,2.4c1,0,2.2-0.4,3.3-1.5V279.9L452.9,279.9z"/>
		<path id="XMLID_525_" class="st1" d="M463,287c-3.1,0-5.2-2-5.2-6.6c0-5,2.5-7.2,5.6-7.2c1.1,0,1.9,0.3,2.2,0.4
			c0.4,0.2,0.5,0.3,0.5,0.6c0,0.4-0.1,1-0.6,1c-0.4,0-1-0.5-2.1-0.5c-2.1,0-3.7,1.7-3.7,5.5c0,3.6,1.4,5.1,3.5,5.1
			c1.3,0,2-0.5,2.4-0.5s0.5,0.6,0.5,1c0,0.3-0.1,0.5-0.6,0.7C465.3,286.6,464.3,287,463,287z"/>
		<path id="XMLID_523_" class="st1" d="M472.5,284.7c0.1-0.7,0.3-1.5,0.5-2.1l2.6-8.5c0.1-0.4,0.2-0.7,1.1-0.7
			c0.6,0,0.9,0.2,0.9,0.5c0,0.1,0,0.2,0,0.3l-4,12.7c-1.4,4.4-3.9,4.6-4.7,4.6c-0.5,0-0.8-0.1-0.8-0.9c0-0.4,0.1-0.5,0.6-0.7
			c0.7-0.3,2.1-0.4,3.3-3.5c-0.7,0-0.9-0.3-1-0.7l-3.5-11.5c0-0.1,0-0.2,0-0.3c0-0.3,0.2-0.5,0.9-0.5c0.9,0,1,0.3,1.1,0.7l2.6,8.5
			C472.2,283.4,472.3,283.8,472.5,284.7L472.5,284.7z"/>
	</g>
</g>
<g id="XMLID_114_">
	<g id="XMLID_27_">
		<line id="XMLID_30_" class="st2" x1="350.9" y1="307.2" x2="350.9" y2="343.2"/>
		<g id="XMLID_28_">
			<polygon id="XMLID_29_" class="st3" points="345.6,338.7 350.9,341 356.1,338.7 350.9,351.2 			"/>
		</g>
	</g>
</g>
<path id="XMLID_148_" class="st0" d="M44.6,356.2h612.5c5.5,0,10,4.5,10,10v40c0,5.5-4.5,10-10,10H44.6c-5.5,0-10-4.5-10-10v-40
	C34.6,360.7,39.1,356.2,44.6,356.2z"/>
<g id="XMLID_319_">
	<path id="XMLID_320_" d="M148.9,387l-0.9-2.8c2.4-2.8,4.2-6.2,5.3-10l2.5,1.1c-0.6,1.9-1.4,3.7-2.3,5.4v16.8h-2.6v-12.9
		C150.2,385.5,149.6,386.2,148.9,387z M162,376.7v-2.3h2.6v2.3h6.6v2.5h-6.6v1.8h5.7v7.6h-5.8c-0.2,1.9-0.5,3.5-1.1,4.6
		c2.3,1.2,5,1.8,8,2l-0.6,2.5c-3.3-0.2-6.3-1-8.8-2.4c-1.4,1.2-3.5,2-6.3,2.4l-1.1-2.4c2.2-0.2,3.9-0.7,5.1-1.6
		c-1.3-1-2.5-2.1-3.6-3.4l2-1.4c0.9,1.1,1.9,2.1,3.1,2.9c0.4-0.9,0.6-1.9,0.8-3.2h-5.4V381h5.5v-1.8H156v-2.5H162z M162,383.3h-3
		v2.9h3V383.3z M167.9,383.3h-3.3v2.9h3.3V383.3z"/>
	<path id="XMLID_325_" d="M175.2,397.4l-2-1.8c1.5-2.1,2.2-4.8,2.3-8v-12.4h19.4v18.9c0,1.9-1,2.9-3,2.9H189l-0.7-2.5
		c1,0.1,1.9,0.1,2.7,0.1c0.8,0,1.1-0.5,1.1-1.4v-3.5h-5.9v7h-2.6v-7H178C177.7,392.7,176.7,395.3,175.2,397.4z M178.1,377.7v3.5h5.5
		v-3.5H178.1z M178.1,387.2h5.5v-3.6h-5.5V387.2z M192.2,377.7h-5.9v3.5h5.9V377.7z M192.2,383.6h-5.9v3.6h5.9V383.6z"/>
	<path id="XMLID_331_" d="M211.2,374.3v2.7h7.3v2.5h-7.3v2.6h9.8v2.5h-9.6v7.2h-2.6v-7.2h-10.2v-2.4h3.4v-5.9h2.6v5.9h3.8v-7.8h2.8
		L211.2,374.3L211.2,374.3z M206.2,387c-1.4,2.3-3.2,4.3-5.4,6l-1.7-2.1c2-1.6,3.8-3.4,5.2-5.5L206.2,387z M219.3,387.3
		c-3.2,6.9-9.3,10.4-18.3,10.4l-0.9-2.5c8.6,0,14.3-3.1,16.9-9.2L219.3,387.3z"/>
	<path id="XMLID_335_" d="M225.4,389.6c-0.2,2.6-0.5,4.8-0.8,6.7l-1.5-0.5c0.3-1.8,0.6-3.9,0.8-6.6L225.4,389.6z M233,386
		c0,4.3-0.1,7.3-0.4,8.8c1.2-1.3,2-3,2.5-5l1.9,0.4c-0.2,0.9-0.4,1.7-0.7,2.5c0.8,0.5,1.4,1.2,2.1,1.9l-1.2,1.8
		c-0.5-0.8-1.1-1.4-1.7-1.9c-0.4,0.8-1,1.6-1.6,2.2l-1.4-1.7c-0.1,0.4-0.1,0.6-0.2,0.8c-0.4,0.9-1.2,1.4-2.3,1.4c-0.5,0-1.1,0-1.7,0
		l-0.5-2.2c0.6,0.1,1.2,0.1,1.8,0.1c0.6,0,1-0.4,1.1-1.3l0.1-0.9l-0.9,0.4c-0.2-1.4-0.5-2.8-0.8-4.1l1.1-0.3c0.3,1.1,0.5,2.1,0.7,3
		c0-1,0.1-2.2,0.1-3.6h-6.9v-13h8.6v2.2h-2.4v1.5h1.9v2.1h-1.9v1.4h1.9v2.1h-1.9v1.5L233,386L233,386z M227.4,395.3l-1.4,0.2
		c0-2.6-0.1-4.6-0.2-6l1.2-0.1C227.2,390.7,227.3,392.7,227.4,395.3z M226.3,377.4v1.5h1.7v-1.5H226.3z M226.3,382.4h1.7V381h-1.7
		V382.4z M226.3,386h1.7v-1.5h-1.7V386z M229.3,394.1l-1.3,0.2c-0.1-2.2-0.2-3.8-0.5-5l1.1-0.1C228.9,390.3,229.2,392,229.3,394.1z
		 M240.5,375.2v1.9h-0.7v9.3h-1.9V385c-1.4,0.2-2.9,0.4-4.6,0.6l-0.3-1.9l1.1-0.1v-6.5h-0.8v-1.9H240.5z M234.1,389.1l-0.7-2
		c4.4,0,8.1-0.4,11.1-1.2l1.1,1.8c-1.4,0.5-3,0.8-4.8,1v5.8c1-1.3,1.6-3,1.9-5.1l2,0.3c-0.2,0.9-0.4,1.7-0.6,2.4
		c0.6,0.9,1.4,1.7,2.4,2.5l-1.2,1.9c-0.7-0.7-1.4-1.4-2-2.2c-0.4,0.9-1,1.7-1.5,2.4l-1-1.2v2h-2.3v-8.6
		C237.1,389,235.7,389.1,234.1,389.1z M237.8,378.1V377H236v1.1H237.8z M237.8,380.7v-1.1H236v1.1H237.8z M237.8,383.1v-0.9H236v1.2
		C236.6,383.2,237.2,383.2,237.8,383.1z M243.1,380c0.3-0.7,0.5-1.5,0.7-2.3h-3v-2h5v1.7c-0.3,1.6-0.7,3-1.2,4.3
		c0.7,0.8,1.3,1.5,1.9,2.3l-1.6,1.6c-0.4-0.6-0.9-1.3-1.4-1.9c-0.5,0.8-1,1.4-1.7,2l-1.3-1.7c0.6-0.6,1.1-1.2,1.6-2
		c-0.7-0.8-1.4-1.5-2.1-2.2l1.4-1.3C242,378.9,242.6,379.5,243.1,380z"/>
</g>
<g id="XMLID_118_">
	<g id="XMLID_24_">
		<line id="XMLID_34_" class="st2" x1="350.9" y1="416.2" x2="350.9" y2="452.2"/>
		<g id="XMLID_25_">
			<polygon id="XMLID_33_" class="st3" points="345.6,447.7 350.9,450 356.1,447.7 350.9,460.2 			"/>
		</g>
	</g>
</g>
<path id="XMLID_160_" class="st0" d="M44.6,467.2h612.5c5.5,0,10,4.5,10,10v40c0,5.5-4.5,10-10,10H44.6c-5.5,0-10-4.5-10-10v-40
	C34.6,471.7,39.1,467.2,44.6,467.2z"/>
<g id="XMLID_252_">
	<path id="XMLID_253_" d="M149.7,489.1V487h9.3c-0.2-0.5-0.4-0.9-0.7-1.3l2.7-0.5c0.2,0.5,0.5,1.1,0.7,1.7h8.4v2.1h-3.8l0.9,0.6
		c-1.1,0.5-2.2,1.1-3.3,1.5c1.7,0.4,3.2,0.9,4.6,1.4l-1.1,1.1h2.9v2.2h-17.5v2.5c0,0.7,0,1.4-0.1,2.1c1.4-1.1,2.4-2.5,3.1-4.3l2,0.8
		l-0.4,0.9h3.5v-1.7h2.5v1.7h6.1v2.2h-6.1v1.6h5.7v2.2h-5.7v1.6h7.4v2.2h-18.2v-2.2h8.2v-1.2h-5.6V502h5.6v-1.6H156
		c-0.6,0.8-1.2,1.5-1.9,2.1l-1.5-1.3c-0.3,3-1,5.5-2.2,7.5l-1.9-1.7c1.1-2,1.8-4.8,1.8-8.4v-4.7h2.5l-1.2-1.6
		c2.1-0.2,4.1-0.5,5.8-0.9c-1.4-0.4-2.8-0.7-4.4-1.1l1.1-1.1L149.7,489.1L149.7,489.1z M165.9,493.7c-1.4-0.5-3.1-1-5-1.5
		c-2.4,0.7-5.1,1.2-7.9,1.5H165.9z M155.4,489.1c1.9,0.4,3.7,0.9,5.4,1.3c1.3-0.4,2.5-0.9,3.6-1.3H155.4z"/>
	<path id="XMLID_257_" d="M183.7,508.1h-2.5v-1.2h-4.3v1.2h-2.5v-11.4h9.4v11.4H183.7z M181.2,504.5v-5.3h-4.3v5.3H181.2z
		 M192,486.2v8.9h-14.4v-8.9H192z M189.4,488.6h-9.1v4h9.1V488.6z M195.4,508.1h-2.6v-1.2h-4.6v1.2h-2.5v-11.4h9.7V508.1
		L195.4,508.1z M192.8,504.5v-5.3h-4.6v5.3H192.8z"/>
	<path id="XMLID_264_" d="M207.4,499.8l-2.1,0.9c-0.1-0.4-0.2-0.8-0.3-1.1c-2.1,0.6-4.1,1-5.9,1.2l-0.6-2.1c0.4-0.1,0.8-0.4,1.1-0.7
		c0.7-0.8,1.5-2,2.6-3.9c-1,0.2-2.1,0.4-3.3,0.5l-0.6-2.2c0.4-0.1,0.7-0.4,1-0.9c0.9-1.9,1.7-4,2.4-6.3l2.4,1c-1,2.4-2,4.4-3,6
		c0.8-0.1,1.5-0.3,2.2-0.4c0.4-0.9,0.9-1.7,1.3-2.7l2.2,0.9c-2,3.9-3.7,6.7-5.1,8.4c0.9-0.2,1.8-0.4,2.7-0.7c-0.2-0.7-0.4-1.4-0.7-2
		l1.8-0.8C206.4,496.5,206.9,498.1,207.4,499.8z M201.2,502.2c-0.1,2.2-0.2,4.2-0.5,6l-2.3-0.7c0.4-1.6,0.6-3.4,0.7-5.5L201.2,502.2
		z M204.3,507.1l-2.2,0.3c0-2.3-0.1-4.1-0.2-5.4l2-0.2C204,503,204.2,504.8,204.3,507.1z M207.3,505.1l-2,0.8c-0.3-1.6-0.6-3-1-4.3
		l1.8-0.7C206.6,502.2,207,503.6,207.3,505.1z M210.1,507v1.3h-2.3v-21.1h12.8v21.2h-2.4V507H210.1L210.1,507z M210.1,489.6v6.2h2.8
		v-6.2H210.1z M210.1,498.1v6.5h2.8v-6.5H210.1z M218.2,495.7v-6.2h-2.9v6.2H218.2z M218.2,504.6v-6.5h-2.9v6.5H218.2z"/>
	<path id="XMLID_274_" d="M225.7,492l-2.3-1.4c1.5-1.6,2.5-3.4,3.1-5.2l2.5,0.6c-0.1,0.4-0.3,0.8-0.4,1.2h6v2.3h-3.4
		c0.5,0.8,1,1.5,1.3,2.2l-2.3,0.9c-0.5-1.1-1-2.1-1.7-3.1h-1C227,490.3,226.4,491.2,225.7,492z M235.7,507.1l-2.4,1.1
		c-0.2-0.6-0.5-1.2-0.7-1.7c-2.1,0.6-4.6,1.2-7.5,1.7l-0.7-2.4c0.4-0.1,0.6-0.4,0.6-0.7v-12.5h10.1v9.2h-7.5v3.5
		c1.4-0.3,2.7-0.6,4-1c-0.3-0.5-0.5-1-0.8-1.5l2.4-0.8C234.1,503.6,235,505.3,235.7,507.1z M232.4,494.7h-4.8v1.4h4.8V494.7z
		 M227.6,499.7h4.8v-1.5h-4.8V499.7z M236.6,492.2l-2.2-1.4c1.3-1.7,2.2-3.5,2.7-5.4l2.5,0.5l-0.4,1.1h6.9v2.3h-4
		c0.5,0.8,1,1.5,1.3,2.2l-2.3,0.9c-0.5-1.1-1-2.1-1.7-3.1h-1.1C237.8,490.4,237.2,491.3,236.6,492.2z M240.7,506.3l-0.7-2.5l2.3,0.1
		c0.4,0,0.6-0.2,0.6-0.6V495h-3.6v13.5h-2.6v-15.9h8.8v11.3c0,1.6-0.8,2.4-2.3,2.4H240.7z"/>
</g>
<g id="XMLID_200_">
	<path id="XMLID_201_" class="st1" d="M403.8,506.7c-0.5,0-0.8-0.2-0.8-0.8V490c0-0.5,0.2-0.8,0.8-0.8h3.9c4.5,0,7.6,3,7.6,8.7
		s-3.2,8.8-7.7,8.8L403.8,506.7L403.8,506.7z M407.5,504.9c3.4,0,5.7-2.4,5.7-7.1c0-4.6-2.3-6.9-5.7-6.9h-2.6v14H407.5z"/>
	<path id="XMLID_212_" class="st1" d="M419.6,500.6c0.1,3.4,1.5,4.7,3.9,4.7c1.7,0,2.8-0.7,3.2-0.7c0.4,0,0.5,0.6,0.5,1
		c0,0.3-0.1,0.5-0.6,0.7c-0.4,0.2-1.7,0.7-3.4,0.7c-3.4,0-5.6-2.1-5.6-6.7c0-4.7,2.3-7.1,5.3-7.1c2.9,0,4.7,2.1,4.7,6.4
		c0,0.9-0.1,1.1-0.8,1.1h-7.2V500.6z M425.8,499.1c-0.1-3.1-1.1-4.5-2.9-4.5s-3.1,1.5-3.3,4.5H425.8z"/>
	<path id="XMLID_222_" class="st1" d="M431.1,495h-1.3c-0.3,0-0.6-0.1-0.6-0.8s0.3-0.8,0.6-0.8h1.3v-2.9c0-0.4,0.1-0.7,0.9-0.7
		c0.8,0,0.9,0.3,0.9,0.7v2.9h2.6c0.3,0,0.6,0.1,0.6,0.8s-0.3,0.8-0.6,0.8h-2.6v8.2c0,1.5,0.6,2,1.8,2c0.5,0,0.7-0.1,0.9-0.1
		c0.4,0,0.5,0.3,0.5,0.8s-0.1,0.6-0.5,0.7c-0.3,0.1-0.8,0.2-1.5,0.2c-2.1,0-3.2-1-3.2-3.3V495L431.1,495L431.1,495z"/>
	<path id="XMLID_224_" class="st1" d="M447,503.3c0,1.2,0.2,2.5,0.2,2.9c0,0.3-0.1,0.5-0.9,0.5c-0.7,0-0.9-0.2-1.1-1.4
		c-0.9,1-2.5,1.6-3.9,1.6c-2.2,0-3.7-1.4-3.7-3.9c0-2.8,1.8-4.6,7.1-4.6h0.5v-0.9c0-2-0.9-2.9-2.8-2.9c-1.8,0-3,0.8-3.5,0.8
		c-0.4,0-0.5-0.6-0.5-0.9c0-0.4,0.2-0.5,0.6-0.7c0.4-0.2,1.8-0.8,3.7-0.8c2.7,0,4.4,1.3,4.4,4.3L447,503.3L447,503.3z M445.1,499.9
		h-0.5c-3.9,0-5.1,1.2-5.1,3.1c0,1.6,0.9,2.4,2.3,2.4c1,0,2.2-0.4,3.3-1.5V499.9L445.1,499.9z"/>
	<path id="XMLID_227_" class="st1" d="M451.7,491.3c-0.8,0-1.3-0.6-1.3-1.2s0.5-1.2,1.3-1.2s1.3,0.6,1.3,1.2
		S452.5,491.3,451.7,491.3z M450.7,494c0-0.4,0.1-0.7,0.9-0.7s0.9,0.3,0.9,0.7v12c0,0.4-0.1,0.7-0.9,0.7s-0.9-0.3-0.9-0.7V494z"/>
	<path id="XMLID_230_" class="st1" d="M456.3,489.1c0-0.4,0.1-0.7,0.9-0.7c0.8,0,0.9,0.3,0.9,0.7v14.2c0,1.9,1.1,1.9,1.7,2
		c0.3,0.1,0.4,0.3,0.4,0.7c0,0.8-0.3,0.8-0.8,0.8c-1.6,0-3.2-0.6-3.2-3.3L456.3,489.1L456.3,489.1L456.3,489.1z"/>
</g>
<g id="XMLID_130_">
	<g id="XMLID_36_">
		<line id="XMLID_39_" class="st2" x1="350.9" y1="527.2" x2="350.9" y2="563.2"/>
		<g id="XMLID_37_">
			<polygon id="XMLID_38_" class="st3" points="345.6,558.7 350.9,561 356.1,558.7 350.9,571.2 			"/>
		</g>
	</g>
</g>
<path id="XMLID_172_" class="st0" d="M44.6,578.2h612.5c5.5,0,10,4.5,10,10v40c0,5.5-4.5,10-10,10H44.6c-5.5,0-10-4.5-10-10v-40
	C34.6,582.7,39.1,578.2,44.6,578.2z"/>
<g id="XMLID_140_">
	<path id="XMLID_141_" d="M154.4,606.2l-1.8,1.8c-1-1.1-2.3-2.4-4.1-3.8l1.8-1.8C151.9,603.7,153.3,604.9,154.4,606.2z M155.1,610.5
		c-1.1,3.1-2.3,6.1-3.7,8.8l-2.6-1.2c1.5-2.8,2.8-5.7,4-8.6L155.1,610.5z M155.2,600.3l-1.8,1.9c-1-1.2-2.5-2.4-4.4-3.8l1.9-1.8
		C152.6,597.8,154,599.2,155.2,600.3z M162.1,600.3c-0.4-1.2-0.9-2.3-1.5-3.4l2.4-0.7c0.7,1.5,1.2,2.8,1.6,4.1h6.1v2.5h-6.1v5.1h5.4
		v2.5h-5.4v5.7h6.6v2.5h-16.1v-2.5h6.8v-5.7h-5.5v-2.5h5.5v-5.1h-6.2v-2.5H162.1L162.1,600.3z"/>
	<path id="XMLID_151_" d="M178,613.7c-0.6,2-1.4,3.7-2.4,5.1l-2.2-1.4c1-1.3,1.7-2.7,2.1-4.2L178,613.7z M175.1,599.9v-2.2h8.1
		c-0.2-0.4-0.3-0.7-0.5-1l2.8-0.4c0.2,0.4,0.4,0.9,0.6,1.5h8.6v2.2h-3.9l-0.6,1.3h5.7v2.2H174v-2.3h5.5l-0.5-1.3H175.1z
		 M193.3,604.3v7.9h-7.7c0.9,1,1.7,1.8,2.2,2.5l-2.2,1.5c-0.6-0.8-1.3-1.7-2.2-2.7l2.2-1.3h-9.1v-7.9H193.3z M190.7,607.4v-1h-11.8
		v1.1L190.7,607.4L190.7,607.4z M190.7,609.2h-11.8v1.1h11.8V609.2z M182.3,619.2c-2,0-3-0.9-3-2.6v-3.2h2.6v2.6
		c0,0.6,0.4,0.9,1.1,0.9h4.8c0.4,0,0.7-0.1,0.9-0.3s0.4-0.8,0.5-1.8l2.5,0.8c-0.2,1.7-0.6,2.8-1.1,3.1s-1.2,0.5-2.2,0.5H182.3z
		 M187.3,601.2l0.6-1.3h-6.3l0.5,1.3H187.3z M196.5,617l-2.2,1.5c-0.8-1.3-1.8-2.8-3-4.4l2.1-1.3C194.7,614.4,195.7,615.8,196.5,617
		z"/>
	<path id="XMLID_166_" d="M208.5,600.9v-1.1H199v-2.2h9.5v-1.2h2.6v1.2h9.5v2.2h-9.5v1.1h7.4v5.2h-7.4v1.2h7.7v3.2h2.4v2.1h-2.4v3.3
		h-7.7v1.1c0,1.6-0.9,2.4-2.6,2.4h-3.1l-0.5-2.4c0.9,0.1,1.9,0.2,2.7,0.2c0.6,0,0.9-0.2,0.9-0.8v-0.5h-7.9v-2h7.9v-1.2h-10.2v-2.1
		h10.2v-1.2h-7.9v-2h7.9v-1.2h-7.4V601L208.5,600.9L208.5,600.9z M208.5,602.8h-4.8v1.4h4.8V602.8z M215.9,602.8h-4.8v1.4h4.8V602.8
		z M211.1,610.5h5.2v-1.2h-5.2V610.5z M211.1,612.6v1.2h5.2v-1.2H211.1z"/>
	<path id="XMLID_187_" d="M231.5,598.5v2.5H229v11c0.9-0.4,1.9-0.8,2.8-1.3v2.5c-2.4,1.2-5,2.1-7.7,2.9l-0.6-2.4
		c1-0.2,2-0.5,2.9-0.8v-12h-2.8v-2.5L231.5,598.5L231.5,598.5z M237.3,600.9c0.2-0.5,0.4-1,0.5-1.5h-5.5v-2.3H246v2.3h-5.6
		c-0.2,0.5-0.3,1-0.5,1.5h5v13.9h-3.1c1.8,1,3.3,2.1,4.5,3.1l-1.7,1.7c-1.1-1.1-2.7-2.2-4.7-3.5l1.3-1.3h-4.7l1.4,1.2
		c-1.5,1.3-3.3,2.5-5.4,3.6l-1.4-1.8c1.9-0.9,3.6-1.9,4.9-3h-2.9v-13.9H237.3L237.3,600.9z M242.4,604.8V603h-6.6v1.8H242.4z
		 M242.4,608.7v-1.9h-6.6v1.9H242.4z M242.4,610.7h-6.6v2h6.6V610.7z"/>
</g>
<g id="XMLID_2_">
	<path id="XMLID_8_" class="st1" d="M406.6,606.6c-0.9-1.7-1.2-2.3-1.8-3.6l0,0c0.1,1.1,0.1,2,0.1,3.6V617c0,0.4-0.1,0.7-0.9,0.7
		s-0.9-0.3-0.9-0.7v-16.1c0-0.5,0.1-0.8,1.2-0.8c0.9,0,1.1,0.3,1.4,0.8l5.5,10c0.9,1.7,1.2,2.3,1.8,3.6l0,0c-0.1-1.1-0.1-2-0.1-3.6
		v-10c0-0.4,0.1-0.7,0.9-0.7s0.9,0.3,0.9,0.7V617c0,0.5-0.1,0.8-1,0.8s-1-0.3-1.3-0.8L406.6,606.6z"/>
	<path id="XMLID_10_" class="st1" d="M417.9,611.2c0-4.6,2.3-7,5.4-7c3,0,5.2,2.3,5.2,6.8c0,4.6-2.3,7-5.4,7
		C420.1,618,417.9,615.7,417.9,611.2z M426.6,611c0-3.6-1.4-5.3-3.4-5.3s-3.4,1.7-3.4,5.3s1.4,5.3,3.4,5.3S426.6,614.6,426.6,611z"
		/>
	<path id="XMLID_13_" class="st1" d="M432,606h-1.3c-0.3,0-0.6-0.1-0.6-0.8s0.3-0.8,0.6-0.8h1.3v-2.9c0-0.4,0.1-0.7,0.9-0.7
		c0.8,0,0.9,0.3,0.9,0.7v2.9h2.6c0.3,0,0.6,0.1,0.6,0.8s-0.3,0.8-0.6,0.8h-2.6v8.2c0,1.5,0.6,2,1.8,2c0.5,0,0.7-0.1,0.9-0.1
		c0.4,0,0.5,0.3,0.5,0.8s-0.1,0.6-0.5,0.7c-0.3,0.1-0.8,0.2-1.5,0.2c-2.1,0-3.2-1-3.2-3.3V606L432,606L432,606z"/>
	<path id="XMLID_15_" class="st1" d="M440.6,611.6c0.1,3.4,1.5,4.7,3.9,4.7c1.7,0,2.8-0.7,3.2-0.7s0.5,0.6,0.5,1
		c0,0.3-0.1,0.5-0.6,0.7c-0.4,0.2-1.7,0.7-3.4,0.7c-3.4,0-5.6-2.1-5.6-6.7c0-4.7,2.3-7.1,5.3-7.1c2.9,0,4.7,2.1,4.7,6.4
		c0,0.9-0.1,1.1-0.8,1.1h-7.2L440.6,611.6L440.6,611.6z M446.9,610.2c-0.1-3.1-1.1-4.5-2.9-4.5s-3.1,1.5-3.3,4.5H446.9z"/>
	<path id="XMLID_138_" class="st1" d="M454.5,618c-1.7,0-2.9-0.5-3.3-0.7s-0.5-0.3-0.5-0.6s0.1-1.1,0.6-1.1s1.6,0.8,3.3,0.8
		c1.6,0,2.7-0.7,2.7-2.1c0-3.4-6.2-1.9-6.2-6.3c0-2.4,1.8-3.8,4.4-3.8c1.3,0,2.3,0.4,2.7,0.5c0.4,0.2,0.5,0.3,0.5,0.6
		s-0.1,1.1-0.6,1.1c-0.4,0-1.3-0.6-2.6-0.6c-1.5,0-2.4,0.8-2.4,2c0,3.2,6.2,1.6,6.2,6.3C459.1,616.6,457.2,618,454.5,618z"/>
</g>
<g>
	<path class="st1" d="M145.5,659c0-0.4,0.2-0.6,0.6-0.6h3.5c3.1,0,4.6,1.7,4.6,4.1c0,2.5-1.5,4.2-4.7,4.2H147v5.2
		c0,0.3-0.1,0.6-0.8,0.6s-0.8-0.2-0.8-0.6L145.5,659L145.5,659z M149.5,665.3c2.2,0,3.1-1.1,3.1-2.8s-0.9-2.8-3.1-2.8H147v5.6H149.5
		z"/>
	<path class="st1" d="M157.2,672.4c-0.4,0-0.6-0.2-0.6-0.6V659c0-0.4,0.2-0.6,0.6-0.6h3.1c3.6,0,6.1,2.4,6.1,6.9
		c0,4.6-2.6,7.1-6.2,7.1L157.2,672.4L157.2,672.4z M160.1,671c2.7,0,4.6-2,4.6-5.6s-1.8-5.5-4.5-5.5h-2.1v11.2h2V671z"/>
	<path class="st1" d="M169.1,659c0-0.4,0.2-0.6,0.6-0.6h3.5c3.1,0,4.6,1.7,4.6,4.1c0,2.5-1.5,4.2-4.7,4.2h-2.5v5.2
		c0,0.3-0.1,0.6-0.8,0.6s-0.8-0.2-0.8-0.6L169.1,659L169.1,659z M173.1,665.3c2.2,0,3.1-1.1,3.1-2.8s-0.9-2.8-3.1-2.8h-2.5v5.6
		H173.1z"/>
	<path class="st1" d="M186.5,672c-1.5,1-3.7,1.8-6.6,2.4l-0.5-0.9c2.9-0.6,5-1.3,6.5-2.2L186.5,672z M187.3,660.2
		c0.2-0.7,0.4-1.4,0.5-2.1h-7.9v-1H197v1h-8.1c-0.1,0.7-0.3,1.4-0.5,2.1h6.7v10.6h-13v-10.6H187.3z M194,663.3v-2.2h-10.9v2.2H194z
		 M194,666.4v-2.2h-10.9v2.2H194z M194,667.4h-10.9v2.3H194V667.4z M197.3,673.4l-0.6,0.9c-2.1-1-4.2-1.8-6.4-2.3l0.5-0.8
		C193.2,671.8,195.4,672.6,197.3,673.4z"/>
	<path class="st1" d="M217.3,657v1h-8.1c-0.2,1-0.5,2-0.8,2.9h7.8v13.5h-1.1v-1.1h-13.2v1.1h-1.1V661h6.4c0.4-0.9,0.7-1.9,0.8-2.9
		h-8.4v-1L217.3,657L217.3,657z M205,672.3V662h-3.1v10.3H205z M210.9,664.8V662H206v2.8H210.9z M210.9,668.5v-2.8H206v2.8H210.9z
		 M210.9,672.3v-2.9H206v2.9H210.9z M215,672.3V662h-3.2v10.3H215z"/>
	<path class="st1" d="M226.6,667.9l-0.9,0.2c-0.1-0.4-0.2-0.7-0.3-1.1c-1.9,0.5-3.7,0.9-5.5,1.2l-0.3-1c0.2-0.1,0.4-0.2,0.5-0.3
		c0.9-0.8,1.9-2.2,3-4.1c-1.2,0.2-2.3,0.4-3.4,0.5l-0.3-1c0.2-0.1,0.3-0.2,0.5-0.4c1.1-1.7,2.1-3.6,2.9-5.9l1,0.4
		c-1,2.4-2.1,4.4-3.1,5.8c1-0.1,2-0.2,3-0.4c0.4-0.8,0.9-1.6,1.4-2.5l1,0.4c-2,3.5-3.6,6-4.9,7.3c1.3-0.2,2.7-0.5,4-0.8
		c-0.2-0.7-0.4-1.3-0.7-2l0.9-0.3C225.8,665.2,226.2,666.5,226.6,667.9z M221.3,669.5c-0.1,1.7-0.4,3.3-0.8,4.6l-1-0.3
		c0.4-1.3,0.7-2.7,0.8-4.4L221.3,669.5z M224.2,673.2l-1,0.2c-0.2-1.6-0.4-2.9-0.7-4.1l0.9-0.2C223.7,670.3,224,671.7,224.2,673.2z
		 M227,672l-0.9,0.4c-0.4-1.3-0.8-2.5-1.2-3.5l0.9-0.3C226.2,669.6,226.6,670.8,227,672z M231.5,658.8v-2.7h1.1v2.7h4.9v1.1h-4.9
		v3.4h4.5v1h-10v-1h4.4v-3.4h-5v-1.1H231.5z M236.4,674.3h-1.1v-1h-6.4v1h-1.1v-7.8h8.6V674.3z M235.3,672.3v-4.8h-6.4v4.8H235.3z"
		/>
	<path class="st1" d="M243.1,674.3h-1v-10.5c-0.6,2.1-1.4,4-2.5,5.7l-0.4-1.1c1.3-2.1,2.3-4.5,2.8-7.3h-2.5v-1h2.5v-4h1v4h2.1v1H243
		v1.4c0.8,1.1,1.6,2.3,2.5,3.6l-0.6,0.9c-0.7-1.4-1.4-2.5-1.9-3.4L243.1,674.3L243.1,674.3z M249.6,656v1.7h3.9V656h1v1.7h2.5v0.9
		h-2.5v1.6h2.1v0.9h-2.1v1.6h3v0.9H252v1.5h4.3v5.1h1.3v0.9h-1.3v1.9c0,0.9-0.5,1.4-1.5,1.4H253l-0.2-0.9l1.7,0.1
		c0.5,0,0.8-0.2,0.8-0.7v-1.7h-7.5v3.2h-1v-3.2h-1.4v-0.9h1.4v-5.1h4.2v-1.5h-5.4v-0.9h3v-1.6h-2.2v-1h2.2v-1.6h-2.5v-0.9h2.5V656
		H249.6z M247.8,665.9v1.7h3.2v-1.7H247.8z M251,670.2v-1.8h-3.2v1.8H251z M253.5,660.2v-1.6h-3.9v1.6H253.5z M253.5,662.7v-1.6
		h-3.9v1.6H253.5z M255.3,665.9H252v1.7h3.3V665.9z M255.3,670.2v-1.8H252v1.8H255.3z"/>
	<path class="st1" d="M276.5,674.4h-1v-0.8h-14.1v0.9h-1v-17.4h16.1V674.4z M275.5,672.6v-14.7h-14.1v14.7H275.5z M272.5,659.2v3
		h-3.7l-0.3,1.1h6v0.8h-12.1v-0.8h5.1l0.3-1.1h-3.5v-3H272.5z M273.4,665.2v6.2h-10v-6.2H273.4z M272.5,665.9h-8.1v4.7h8.1V665.9z
		 M271.6,659.9h-6.3v1.6h6.3V659.9z M270.9,667v2.7H266V667H270.9z M270.1,667.6h-3.3v1.5h3.3V667.6z"/>
</g>
<g>
	<path class="st1" d="M-29.2,391h-14.4v2.4c-0.1,3.3-0.7,6-2,8l-0.8-0.7c1.1-1.7,1.7-4.2,1.7-7.2v-3.4h15.4L-29.2,391L-29.2,391z
		 M-36.2,384.6h7v0.9h-16v-0.9h8c-0.2-0.5-0.5-1-0.7-1.4l1.1-0.2C-36.7,383.4-36.5,384-36.2,384.6z M-36.4,387.4
		c1.5-0.5,2.8-1.1,4-1.7l0.7,0.5c-1.1,0.6-2.3,1.1-3.5,1.6c1.7,0.5,3.2,1,4.6,1.5l-0.7,0.7c-1.5-0.6-3.2-1.2-5.2-1.8
		c-2.1,0.7-4.4,1.2-6.9,1.4l-0.5-0.7c2.2-0.3,4.3-0.7,6.1-1.1c-1.5-0.4-3.2-0.9-4.9-1.3l0.6-0.6C-40,386.3-38.1,386.8-36.4,387.4z
		 M-42.5,396.5l-0.8-0.7c1.3-1,2.3-2.3,3-4l0.9,0.4c-0.2,0.5-0.4,1-0.7,1.4h4v-1.8h1.1v1.8h5.4v1H-35v2.2h4.9v1H-35v2.1h6.3v1H-43
		v-1h6.9v-2.1H-41v-1h4.9v-2.2h-4.6C-41.2,395.3-41.8,396-42.5,396.5z"/>
	<path class="st1" d="M-38.6,421h-1.1v-1.1h-4.6v1.1h-1.1v-8.4h6.7v8.4H-38.6z M-39.6,419v-5.3h-4.6v5.3H-39.6z M-31.9,404.1v6.2
		h-10.8v-6.2H-31.9z M-33,405.1h-8.6v4.1h8.6V405.1z M-29.3,421h-1.1v-1.1h-4.8v1.1h-1.1v-8.4h7L-29.3,421L-29.3,421z M-30.4,419
		v-5.3h-4.8v5.3H-30.4z"/>
	<path class="st1" d="M-37.9,428.1h-5.8v13.1h-1.1V427h7c0-0.2,0-0.5,0-0.7v-1.8h-2.6v-1h3.7v2.9c0,0.2,0,0.5,0,0.7h6.9v12.4
		c0,1.1-0.6,1.7-1.6,1.7h-3.2l-0.3-1l3.2,0.1c0.6,0,0.9-0.3,0.9-0.9v-11.1h-5.7c0.5,2.9,2.2,5.5,5,7.9l-0.7,0.9
		c-2.8-2.6-4.5-5.3-5-8c-0.5,2.8-2.2,5.5-5.1,8.2l-0.7-0.9C-40.1,433.7-38.4,431-37.9,428.1z"/>
	<path class="st1" d="M-36.8,449.4c1.6,2,4.4,3.9,8.4,5.4l-0.6,0.9c-3.7-1.4-6.4-3.2-8.2-5.4c-2.2,2.3-5,4.1-8.4,5.4l-0.6-0.9
		c3.7-1.4,6.5-3.2,8.5-5.5h0.9L-36.8,449.4L-36.8,449.4z M-38.8,447.6c-1.7,1.5-3.8,2.8-6.3,3.9l-0.6-0.8c2.4-1,4.5-2.3,6.2-3.7
		L-38.8,447.6z M-36.5,444.9h7.2v3.3h-1.1v-2.3h-13.8v2.4h-1.1v-3.5h7.7c-0.2-0.6-0.5-1.2-0.8-1.7l1.1-0.2
		C-37,443.6-36.8,444.2-36.5,444.9z M-31.5,461.4h-1.1v-0.9h-9.3v0.9H-43V455h11.4L-31.5,461.4L-31.5,461.4z M-32.6,459.5V456h-9.3
		v3.5H-32.6z M-29,450.7l-0.7,0.7c-1.5-1.2-3.5-2.5-6-3.8l0.7-0.7C-32.7,448.2-30.6,449.5-29,450.7z"/>
	<path class="st1" d="M-44.5,476.4c-0.1,1.8-0.4,3.4-0.9,4.7l-1-0.3c0.5-1.3,0.8-2.8,0.9-4.6L-44.5,476.4z M-39.4,474.8l-0.9,0.4
		c-0.1-0.4-0.3-0.9-0.4-1.3c-1.7,0.6-3.4,0.9-5.1,1.1l-0.3-0.9c0.2-0.1,0.4-0.2,0.5-0.3c0.8-0.9,1.8-2.3,2.9-4.3
		c-1.2,0.2-2.3,0.4-3.4,0.6l-0.2-0.9c0.2-0.1,0.3-0.2,0.4-0.4c1-1.6,1.9-3.5,2.6-5.6l1,0.4c-1,2.4-1.9,4.2-2.8,5.5
		c1-0.1,2-0.3,2.9-0.5c0.4-0.7,0.8-1.5,1.2-2.3l0.9,0.4c-1.9,3.6-3.4,6.1-4.6,7.5c1.2-0.2,2.4-0.5,3.6-0.9c-0.3-0.7-0.6-1.4-0.9-1.9
		l0.8-0.3C-40.4,472.1-39.9,473.4-39.4,474.8z M-42.1,480.5l-1,0.1c-0.1-1.9-0.2-3.4-0.5-4.4l0.9-0.1
		C-42.3,477.2-42.2,478.7-42.1,480.5z M-39.5,479l-0.9,0.4c-0.3-1.3-0.7-2.5-1.1-3.5l0.8-0.3C-40.2,476.6-39.9,477.8-39.5,479z
		 M-37.7,479.9v1.4h-1v-16.5h9.8v16.5h-1v-1.4H-37.7z M-37.7,465.8v5.9h3.4v-5.9H-37.7z M-37.7,472.7v6.2h3.4v-6.2H-37.7z
		 M-29.9,471.7v-5.9h-3.4v5.9H-29.9z M-29.9,478.9v-6.2h-3.4v6.2H-29.9z"/>
	<path class="st1" d="M-45.3,488.1l-0.9-0.6c1.2-1.3,2.2-2.8,2.8-4.5l1.1,0.2c-0.2,0.5-0.4,1-0.6,1.5h5.7v1h-3.6
		c0.6,0.8,1.1,1.6,1.4,2.4l-1,0.4c-0.4-0.9-1-1.8-1.6-2.7h-1.5C-44.1,486.6-44.6,487.4-45.3,488.1z M-37.1,500.6l-1,0.5
		c-0.2-0.5-0.4-1-0.6-1.5c-1.7,0.5-3.7,0.9-6.1,1.4l-0.3-1c0.2-0.1,0.3-0.2,0.3-0.4v-10.5h7.3v6.6h-6.2v4c1.5-0.3,3.1-0.6,4.5-1
		c-0.3-0.7-0.7-1.3-1-1.9l1-0.3C-38.4,497.7-37.7,499.1-37.1,500.6z M-38.6,490h-5.1v1.9h5.1V490z M-43.7,494.8h5.1v-1.9h-5.1V494.8
		z M-36.4,488.2l-0.9-0.6c1.1-1.3,1.8-2.8,2.3-4.5l1,0.2c-0.2,0.5-0.3,1-0.5,1.5h6.1v1h-3.9c0.6,0.8,1.1,1.6,1.4,2.4l-1,0.4
		c-0.4-0.9-1-1.8-1.6-2.7H-35C-35.4,486.6-35.9,487.4-36.4,488.2z M-32.6,499.5l-0.3-1l1.9,0.1c0.5,0,0.7-0.2,0.7-0.7v-7.8h-4.1
		v11.2h-1.1v-12.2h6.3v9c0,0.9-0.5,1.4-1.4,1.4H-32.6z"/>
</g>
<path class="st0" d="M2.2,247.2h-27.1c-5.7,0-10.4,4.7-10.4,10.4v98.6"/>
<path class="st0" d="M-35.3,529.2v98.6c0,5.7,4.7,10.4,10.4,10.4H2.2"/>
<g>
	<path id="XMLID_282_" class="st1" d="M406.8,396c-2.1,0-3.6-0.6-4.2-0.9c-0.4-0.2-0.5-0.4-0.5-0.7c0-0.4,0.1-1.1,0.6-1.1
		s2.1,1,4.2,1c2.3,0,3.8-1.2,3.8-3.2c0-4.7-8.3-2.6-8.3-8.3c0-2.9,2.1-4.8,5.5-4.8c1.8,0,3,0.5,3.5,0.8c0.4,0.2,0.5,0.4,0.5,0.7
		c0,0.3-0.2,1.1-0.6,1.1s-1.7-0.9-3.5-0.9c-2.2,0-3.4,1.2-3.4,2.9c0,4.4,8.3,2.2,8.3,8.3C412.7,394.1,410.4,396,406.8,396z"/>
	<path id="XMLID_284_" class="st1" d="M419.5,389.3l-1.9,2.1v3.7c0,0.4-0.1,0.7-0.9,0.7s-0.9-0.3-0.9-0.7v-17c0-0.4,0.1-0.7,0.9-0.7
		s0.9,0.3,0.9,0.7v11.1l5-6.1c0.4-0.5,0.7-0.7,1.5-0.7c0.6,0,0.9,0.1,0.9,0.4c0,0.1,0,0.2-0.2,0.4l-4.1,4.9l4.5,7.1
		c0.1,0.1,0.1,0.2,0.1,0.4c0,0.2-0.3,0.4-0.9,0.4c-0.9,0-1-0.3-1.3-0.7L419.5,389.3z"/>
	<path id="XMLID_286_" class="st1" d="M428.2,380.3c-0.8,0-1.3-0.6-1.3-1.2s0.5-1.2,1.3-1.2s1.3,0.6,1.3,1.2S429,380.3,428.2,380.3z
		 M427.3,383c0-0.4,0.1-0.7,0.9-0.7s0.9,0.3,0.9,0.7v12c0,0.4-0.1,0.7-0.9,0.7s-0.9-0.3-0.9-0.7V383z"/>
	<path id="XMLID_289_" class="st1" d="M440.7,386.5c0-2-0.9-2.7-2.4-2.7c-1.3,0-2.6,0.6-3.5,1.5v9.8c0,0.4-0.1,0.7-0.9,0.7
		c-0.8,0-0.9-0.3-0.9-0.7v-12c0-0.4,0.1-0.7,0.9-0.7c0.7,0,0.9,0.3,0.9,0.7l0.1,0.7c1-1,2.5-1.6,4-1.6c2.2,0,3.8,1.2,3.8,4.1v8.9
		c0,0.4-0.1,0.7-0.9,0.7s-0.9-0.3-0.9-0.7v-8.7L440.7,386.5L440.7,386.5z"/>
	<path id="XMLID_291_" class="st1" d="M450.7,396c-3.1,0-5.2-2-5.2-6.6c0-5,2.5-7.2,5.6-7.2c1.1,0,1.9,0.3,2.2,0.4
		c0.4,0.2,0.5,0.3,0.5,0.6c0,0.4-0.1,1-0.6,1c-0.4,0-1-0.5-2.1-0.5c-2.1,0-3.7,1.7-3.7,5.5c0,3.6,1.4,5.1,3.5,5.1
		c1.3,0,2-0.5,2.4-0.5s0.5,0.6,0.5,1c0,0.3-0.1,0.5-0.6,0.7C453,395.6,452,396,450.7,396z"/>
	<path id="XMLID_293_" class="st1" d="M465.1,392.3c0,1.2,0.2,2.5,0.2,2.9c0,0.3-0.1,0.5-0.9,0.5c-0.7,0-0.9-0.2-1.1-1.4
		c-0.9,1-2.5,1.6-3.9,1.6c-2.2,0-3.7-1.4-3.7-3.9c0-2.8,1.8-4.6,7.1-4.6h0.5v-0.9c0-2-0.9-2.9-2.8-2.9c-1.8,0-3,0.8-3.5,0.8
		c-0.4,0-0.5-0.6-0.5-0.9c0-0.4,0.2-0.5,0.6-0.7c0.4-0.2,1.8-0.8,3.7-0.8c2.7,0,4.4,1.3,4.4,4.3L465.1,392.3L465.1,392.3z
		 M463.2,388.9h-0.5c-3.9,0-5.1,1.2-5.1,3.1c0,1.6,0.9,2.4,2.3,2.4c1,0,2.2-0.4,3.3-1.5V388.9L463.2,388.9z"/>
	<path id="XMLID_296_" class="st1" d="M468.8,383c0-0.4,0.1-0.7,0.9-0.7c0.8,0,0.9,0.3,0.9,0.7l0.1,1.3c1-1.4,2.9-2.2,4.1-2.2
		c0.5,0,0.7,0.2,0.7,0.9c0,0.6-0.1,0.7-0.6,0.8c-1,0.2-2.6,0.5-4.2,2.5v8.8c0,0.4-0.1,0.7-0.9,0.7s-0.9-0.3-0.9-0.7L468.8,383
		L468.8,383L468.8,383z"/>
	<path id="XMLID_298_" class="st1" d="M478.7,389.6c0.1,3.4,1.5,4.7,3.9,4.7c1.7,0,2.8-0.7,3.2-0.7s0.5,0.6,0.5,1
		c0,0.3-0.1,0.5-0.6,0.7c-0.4,0.2-1.7,0.7-3.4,0.7c-3.4,0-5.6-2.1-5.6-6.7c0-4.7,2.3-7.1,5.3-7.1c2.9,0,4.7,2.1,4.7,6.4
		c0,0.9-0.1,1.1-0.8,1.1h-7.2L478.7,389.6L478.7,389.6z M484.9,388.1c-0.1-3.1-1.1-4.5-2.9-4.5s-3.1,1.5-3.3,4.5H484.9z"/>
	<path id="XMLID_301_" class="st1" d="M501.8,388.4c-0.2,0-0.4,0-0.5,0h-2.9v6.6c0,0.4-0.1,0.7-1,0.7s-1-0.3-1-0.7v-16.1
		c0-0.5,0.2-0.8,0.8-0.8h4.2c3.8,0,5.6,2.1,5.6,5.1c0,2.3-1.1,4.1-3.3,4.8l4.1,7c0.1,0.1,0.1,0.2,0.1,0.3c0,0.3-0.3,0.4-0.9,0.4
		c-0.9,0-1.1-0.3-1.4-0.7L501.8,388.4z M501.2,386.8c2.8,0,3.9-1.4,3.9-3.5c0-2-1.1-3.4-3.8-3.4h-2.8v6.9H501.2z"/>
	<path id="XMLID_304_" class="st1" d="M509.5,389.1c0-4.6,2.3-7,5.4-7c3,0,5.2,2.3,5.2,6.8c0,4.6-2.3,7-5.4,7
		C511.7,396,509.5,393.7,509.5,389.1z M518.2,389c0-3.6-1.4-5.3-3.4-5.3s-3.4,1.7-3.4,5.3c0,3.6,1.4,5.3,3.4,5.3
		S518.2,392.6,518.2,389z"/>
	<path id="XMLID_307_" class="st1" d="M530.8,383c0-0.4,0.1-0.7,0.9-0.7c0.8,0,0.9,0.3,0.9,0.7v9.3c0,1.1,0.2,2.5,0.2,2.9
		c0,0.3-0.1,0.5-0.9,0.5c-0.7,0-0.8-0.2-1.1-1.4c-1,1-2.5,1.6-4,1.6c-2.2,0-3.8-1.2-3.8-4.1v-8.9c0-0.4,0.1-0.7,0.9-0.7
		c0.8,0,0.9,0.3,0.9,0.7v8.6c0,2,0.9,2.7,2.4,2.7c1.3,0,2.6-0.6,3.5-1.5L530.8,383L530.8,383z"/>
	<path id="XMLID_309_" class="st1" d="M536.9,384h-1.3c-0.3,0-0.6-0.1-0.6-0.8s0.3-0.8,0.6-0.8h1.3v-2.9c0-0.4,0.1-0.7,0.9-0.7
		s0.9,0.3,0.9,0.7v2.9h2.6c0.3,0,0.6,0.1,0.6,0.8s-0.3,0.8-0.6,0.8h-2.6v8.2c0,1.5,0.6,2,1.8,2c0.5,0,0.7-0.1,0.9-0.1
		c0.4,0,0.5,0.3,0.5,0.8s-0.1,0.6-0.5,0.7c-0.3,0.1-0.8,0.2-1.5,0.2c-2.1,0-3.2-1-3.2-3.3V384L536.9,384L536.9,384z"/>
	<path id="XMLID_311_" class="st1" d="M545.4,380.3c-0.8,0-1.3-0.6-1.3-1.2s0.5-1.2,1.3-1.2s1.3,0.6,1.3,1.2
		S546.1,380.3,545.4,380.3z M544.4,383c0-0.4,0.1-0.7,0.9-0.7s0.9,0.3,0.9,0.7v12c0,0.4-0.1,0.7-0.9,0.7s-0.9-0.3-0.9-0.7V383z"/>
	<path id="XMLID_314_" class="st1" d="M557.8,386.5c0-2-0.9-2.7-2.4-2.7c-1.3,0-2.6,0.6-3.5,1.5v9.8c0,0.4-0.1,0.7-0.9,0.7
		s-0.9-0.3-0.9-0.7v-12c0-0.4,0.1-0.7,0.9-0.7c0.7,0,0.9,0.3,0.9,0.7l0.1,0.7c1-1,2.5-1.6,4-1.6c2.2,0,3.8,1.2,3.8,4.1v8.9
		c0,0.4-0.1,0.7-0.9,0.7c-0.8,0-0.9-0.3-0.9-0.7v-8.7L557.8,386.5L557.8,386.5z"/>
	<path id="XMLID_316_" class="st1" d="M564.5,389.6c0.1,3.4,1.5,4.7,3.9,4.7c1.7,0,2.8-0.7,3.2-0.7s0.5,0.6,0.5,1
		c0,0.3-0.1,0.5-0.6,0.7c-0.4,0.2-1.7,0.7-3.4,0.7c-3.4,0-5.6-2.1-5.6-6.7c0-4.7,2.3-7.1,5.3-7.1c2.9,0,4.7,2.1,4.7,6.4
		c0,0.9-0.1,1.1-0.8,1.1h-7.2L564.5,389.6L564.5,389.6z M570.8,388.1c-0.1-3.1-1.1-4.5-2.9-4.5c-1.8,0-3.1,1.5-3.3,4.5H570.8z"/>
</g>
</svg>
