<?xml version="1.0" encoding="utf-8"?>
<!-- Generator: Adobe Illustrator 19.0.0, SVG Export Plug-In . SVG Version: 6.00 Build 0)  -->
<svg version="1.1" id="圖層_1" xmlns="http://www.w3.org/2000/svg" xmlns:xlink="http://www.w3.org/1999/xlink" x="0px" y="0px"
	 viewBox="0 0 185.6 157.5" style="enable-background:new 0 0 185.6 157.5;" xml:space="preserve">
<style type="text/css">
	.st0{fill:#FFFFFF;}
</style>
<g id="XMLID_281_">
	<path id="XMLID_282_" d="M23,113.7c-0.2,0-0.3-0.3-0.3-0.6c0-0.3,0.1-0.6,0.3-0.6h2c1.2,0,1.5-0.4,1.6-1.6c0.1-2.1,0.1-3.9,0.1-5.4
		V101v-2.3v-4.6c0-1.5-0.1-3.2-0.1-5.3c0-1.2-0.4-1.6-1.6-1.6h-2c-0.2,0-0.3-0.3-0.3-0.6c0-0.3,0.1-0.6,0.3-0.6h7.6
		c0.4,0,0.6,0.3,0.6,0.6c0,4-0.1,8.2-0.1,12.1v2.3c0,1.6,0,3.1,0,4.6c0,1.5,0,3.3,0.1,5.4c0,1.2,0.4,1.6,1.6,1.6h2.4
		c0.2,0,0.3,0.3,0.3,0.6c0,0.3-0.1,0.6-0.3,0.6H23z M35.3,100.9h-1.9c-0.2,0-0.3-0.3-0.3-0.6c0-0.3,0.1-0.6,0.3-0.6h2
		c3.9,0,5.3-2.6,5.3-6.5c0-4-1.7-6-5.9-6h-1.4c-0.2,0-0.3-0.3-0.3-0.6c0-0.3,0.1-0.6,0.3-0.6h1.3c6.6,0,10.4,2.2,10.4,7.2
		C45,97.8,42,100.9,35.3,100.9z"/>
	<path id="XMLID_285_" d="M50.7,97c1-0.3,1.7-0.5,2.1-0.6c0.5-0.2,1-0.4,1.3-0.4s0.4,0.1,0.4,0.6s-0.1,1.6-0.1,4.9v9.9
		c0,0.8,0.1,1.2,1,1.2h2.4c0.2,0,0.3,0.2,0.3,0.5s-0.1,0.5-0.3,0.5H47.7c-0.2,0-0.3-0.2-0.3-0.5s0.1-0.5,0.3-0.5h1.9
		c0.9,0,1-0.5,1-1.2V99.3c0-0.6-0.1-0.9-0.6-0.9c-0.3,0-2.1,0.3-2.2,0.4c-0.1,0-0.2-0.3-0.2-0.5c0-0.2,0-0.4,0.1-0.5
		C48.6,97.5,49.7,97.3,50.7,97z M56.1,99.3c-0.3,0-0.6-0.3-0.6-0.6c1.4-2,2.7-2.7,4.6-2.7c1.9,0,3.3,1.1,3.3,2.8
		c0,1.6-1,2.5-2.3,2.5s-2-0.9-2-1.7c0-1.3,0.7-1.2,0.7-2c0-0.3-0.3-0.4-0.7-0.4C57.9,97.1,56.8,98.3,56.1,99.3z"/>
	<path id="XMLID_288_" d="M70.2,110.4c0.5,1.5,1.6,2.6,3.3,3c0.2,0,0.2,0.2,0.2,0.4c0,0.1,0,0.3-0.2,0.4c-2.5-0.1-4.5-1.1-5.9-2.9
		c-1.4-1.8-2.2-3.8-2.2-6.2c0-2.4,0.7-4.5,2.2-6.2s3.4-2.7,5.9-2.8c0.2,0,0.2,0.2,0.2,0.4c0,0.2,0,0.3-0.2,0.4
		c-1.7,0.4-2.8,1.4-3.3,3s-0.7,3.3-0.7,5.4S69.8,108.9,70.2,110.4z M78.7,110.4c0.5-1.5,0.7-3.3,0.7-5.4s-0.3-3.8-0.7-5.4
		c-0.5-1.5-1.6-2.6-3.3-3c-0.2,0-0.2-0.2-0.2-0.4c0-0.1,0-0.3,0.2-0.4c2.5,0.1,4.5,1.1,5.9,2.8c1.4,1.8,2.2,3.9,2.2,6.2
		c0,2.4-0.7,4.4-2.2,6.2c-1.4,1.8-3.4,2.7-5.9,2.9c-0.1,0-0.2-0.2-0.2-0.4c0-0.2,0-0.3,0.2-0.4C77.2,113,78.3,112,78.7,110.4z"/>
	<path id="XMLID_291_" d="M89.1,97c1-0.3,1.7-0.5,2.1-0.6c0.5-0.2,1-0.4,1.3-0.4s0.4,0.1,0.4,0.6s-0.1,1.6-0.1,4.9V115
		c0,3.1-0.7,5.3-2.2,6.7c-1.5,1.4-3.2,2.3-5.3,2.8c0,0-0.1-0.2-0.1-0.3c0-0.2,0-0.3,0.1-0.4c1-0.5,1.9-1.3,2.6-2.5
		c0.8-1.2,1.1-3.1,1.1-5.5V99.3c0-0.6-0.1-0.9-0.6-0.9c-0.3,0-2.1,0.3-2.2,0.4c-0.1,0-0.2-0.3-0.2-0.5c0-0.2,0-0.4,0.1-0.5
		C87.1,97.5,88.1,97.3,89.1,97z M89.2,88.6c0-1.3,1-2,2-2s2,0.8,2,2s-1,2-2,2S89.2,89.9,89.2,88.6z"/>
	<path id="XMLID_294_" d="M104.5,103c-0.2,0-0.3-0.1-0.3-0.4c0-0.3,0.1-0.5,0.3-0.5h5.2c0-0.5,0.1-0.9,0.1-1.4
		c0-2.3-0.9-3.9-3.1-3.9c-2.7,0-4.6,2.9-4.6,7.3c0,5.3,1.9,8.6,5.9,8.6c2.2,0,3.8-1.3,4.8-2.3c0.3,0,0.5,0.3,0.5,0.4
		c0,0.1,0,0.3-0.1,0.4c-0.3,0.3-0.9,0.8-1.9,1.6s-2.6,1.2-4.6,1.2c-2.3,0-4.3-0.8-6-2.2s-2.6-3.8-2.6-6.8c0-2.6,0.8-4.8,2.5-6.5
		c1.7-1.7,3.7-2.6,6.1-2.6c4.6,0,7.1,2.7,7.1,6.6c0,0.3-0.1,0.4-0.4,0.4H104.5z"/>
	<path id="XMLID_296_" d="M120.7,104.5c0,5,1.9,8.4,5.8,8.4c1.4,0,2.4-0.3,3.3-0.9c0.8-0.6,1.5-1.2,2-1.7c0.3,0,0.5,0.3,0.5,0.4
		c0,0.1,0,0.3-0.1,0.4c-0.3,0.3-0.9,0.9-1.9,1.7c-1,0.9-2.6,1.3-4.6,1.3c-5.4,0-8.9-3.3-8.9-8.9c0-2.8,0.9-5.1,2.7-6.8
		c1.8-1.6,4-2.4,6.5-2.4c1.7,0,3.2,0.4,4.4,1.2c1.2,0.8,1.8,1.9,1.8,3.2s-1,2.2-2.2,2.2c-1.1,0-2-0.7-2-2c0-0.9,0.6-1.7,1.4-1.9
		c-0.3-1.3-1.6-1.9-3.3-1.9C122.9,96.9,120.7,99.3,120.7,104.5z"/>
	<path id="XMLID_298_" d="M141.4,97.6v10.9c0,3.3,0.7,4.3,2.3,4.3c1.4,0,2.4-1.2,2.9-1.9c0.3,0,0.5,0.3,0.5,0.4c0,0.1,0,0.3-0.1,0.4
		c-0.3,0.4-0.8,0.9-1.4,1.5c-0.6,0.5-1.7,0.8-3.1,0.8c-2.7,0-4.8-1.2-4.8-4.9V97.6h-2.3c-0.2,0-0.3-0.3-0.3-0.6
		c0-0.3,0.1-0.6,0.3-0.6h2.3V93c1.4-0.4,2.3-1.2,3.2-2c0.1-0.1,0.2-0.1,0.3-0.1c0.1,0,0.2,0.1,0.3,0.1v5.5h4.8
		c0.2,0,0.3,0.3,0.3,0.6c0,0.3-0.1,0.6-0.3,0.6H141.4z"/>
	<path id="XMLID_300_" d="M159.8,110.1c0-2.4-1.6-3.7-4.8-4.1c-3.2-0.3-4.8-2.1-4.8-5.3c0-2.9,2.3-4.8,5.5-4.8
		c2.2,0,3.2,0.6,4.3,0.6c0.7,0,0.7-0.6,1-0.6h0.1c0.3,0,0.3,0.1,0.3,0.4v0.9c0,1,0.3,3.2,0.6,4c-0.1,0.3-0.6,0.5-0.9,0.3
		c-1.3-3.5-3.3-4.8-5.5-4.8c-1.7,0-2.9,1-2.9,2.7c0,2.2,1.7,3.4,5,3.7c3.3,0.3,5,2.1,5,5.3c0,1.6-0.6,2.9-1.8,3.9s-2.7,1.5-4.6,1.5
		c-1.7,0-3.3-0.4-4.3-1c-0.4,0.4-1,1-1.3,1c-0.2,0-0.3,0-0.4-0.1v-0.4c0-1.9-0.3-3.9-1-5.6c0.1-0.3,0.8-0.3,1-0.1
		c1.3,3.2,3.5,5.3,6,5.3C158.5,113.1,159.8,112.1,159.8,110.1z"/>
</g>
<g id="XMLID_13_">
	<line id="XMLID_6_" class="st0" x1="56.9" y1="39.9" x2="128.9" y2="39.9"/>
	<rect id="XMLID_8_" x="56.9" y="37.9" width="72" height="2"/>
</g>
</svg>
