<?xml version="1.0" encoding="utf-8"?>
<!-- Generator: Adobe Illustrator 19.0.0, SVG Export Plug-In . SVG Version: 6.00 Build 0)  -->
<svg version="1.1" id="圖層_1" xmlns="http://www.w3.org/2000/svg" xmlns:xlink="http://www.w3.org/1999/xlink" x="0px" y="0px"
	 viewBox="-90 292 297.7 57" style="enable-background:new -90 292 297.7 57;" xml:space="preserve">
<style type="text/css">
	.st0{fill:#898989;}
</style>
<g id="XMLID_2_">
	<path id="XMLID_28_" class="st0" d="M-78.9,301.9c-1.2-3-1.6-3.7-3.7-3.7h-1.1c-0.3,0-0.3-0.3-0.3-0.7c0-0.5,0-0.8,0.3-0.8h14.4
		c0.3,0,0.4,0.3,0.4,0.7c0,0.5-0.1,0.7-0.4,0.7h-2.8c-1.1,0-1.5,0.4-1.5,1.1c0,0.6,0.2,1.2,0.6,2l9.6,24.3l-2.6,7h-0.6L-78.9,301.9z
		 M-63.2,321.4l7.2-19.5c0.5-1.2,0.6-1.8,0.6-2.6c0-0.9-0.5-1.1-1.6-1.1h-2.4c-0.3,0-0.4-0.3-0.4-0.7c0-0.5,0.1-0.7,0.4-0.7h10.1
		c0.3,0,0.4,0.3,0.4,0.7c0,0.5-0.1,0.7-0.4,0.7h-1.3c-2,0-2.5,0.7-3.7,3.7l-7.7,19.9c-0.1,0-0.3,0.1-0.5,0.1
		C-62.8,321.9-63.1,321.7-63.2,321.4z"/>
	<path id="XMLID_26_" class="st0" d="M-43.2,318.5c-0.3,0-0.4-0.1-0.4-0.6c0-0.4,0.1-0.6,0.4-0.6h6.6c0.1-0.7,0.1-1.2,0.1-1.8
		c0-2.9-1.2-5-4-5c-3.5,0-5.9,3.7-5.9,9.4c0,6.8,2.4,11.1,7.6,11.1c2.8,0,4.9-1.7,6.2-2.9c0.4-0.1,0.6,0.3,0.6,0.6
		c0,0.2,0,0.4-0.2,0.6c-0.6,0.7-3.1,3.5-8.3,3.5c-5.9,0-11.1-3.7-11.1-11.6c0-6.8,4.8-11.6,11.1-11.6c5.9,0,9,3.5,9,8.5
		c0,0.4-0.2,0.6-0.6,0.6h-11.1V318.5z"/>
	<path id="XMLID_23_" class="st0" d="M-20.3,310c0.7-0.2,1.3-0.6,1.7-0.6c0.4,0,0.6,0.2,0.6,0.7c0,0.6-0.2,2-0.2,6.3v12.7
		c0,1,0.1,1.6,1.3,1.6h3.1c0.3,0,0.4,0.2,0.4,0.7s-0.1,0.7-0.4,0.7h-13c-0.3,0-0.4-0.2-0.4-0.7s0.1-0.7,0.4-0.7h2.4
		c1.2,0,1.3-0.6,1.3-1.6v-15.4c0-0.7-0.2-1.1-0.7-1.1c-0.6,0-2.5,0.4-2.9,0.5c-0.2-0.1-0.3-0.4-0.3-0.7c0-0.2,0-0.5,0.2-0.7
		C-24.4,311.2-21.2,310.3-20.3,310z M-16.1,313.7c-0.4,0-0.7-0.3-0.7-0.7c1.8-2.6,3.5-3.5,5.9-3.5s4.2,1.4,4.2,3.6
		c0,2-1.3,3.2-2.9,3.2c-1.7,0-2.6-1.1-2.6-2.2c0-1.5,0.9-1.7,0.9-2.6c0-0.4-0.4-0.6-0.9-0.6C-13.7,310.9-15.1,312.3-16.1,313.7z"/>
	<path id="XMLID_20_" class="st0" d="M2.2,332.7c-3.2,0-5.7-1.4-5.7-5c0-4.2,4.2-6.4,10.5-7.2c0.1,0.1,0.2,0.2,0.2,0.5
		c0,0.2-0.1,0.4-0.2,0.5c-4.2,0.7-5.9,2.8-5.9,5.7c0,2.2,1.3,3.5,3.1,3.5c1.3,0,2.2-0.6,3.1-1.5c0.3,0,0.5,0.1,0.5,0.4
		c0,0.1,0,0.2-0.1,0.3C7.1,330.9,5.3,332.7,2.2,332.7z M0.4,312.4c1.5,0.4,2.2,1.1,2.2,2.6s-1.3,2.6-2.6,2.6c-1.7,0-2.6-1.3-2.6-2.8
		c0-2.9,3.5-5.3,7.9-5.3c5.5,0,8.8,2.2,8.8,7.2c0,4.6-0.2,7.2-0.2,11.6c0,1.8,0.6,2.6,1.7,2.6c1.3,0,2.2-0.9,2.9-1.7
		c0.6,0,0.7,0.6,0.6,0.8c-0.9,1.4-3.1,2.7-5.3,2.7c-3.1,0-4.6-1.7-4.6-5.5c0-2.9,0.2-6.4,0.2-10.9c0-4.4-1.3-5.7-4.2-5.7
		C3.1,310.6,1.5,310.9,0.4,312.4z"/>
	<path id="XMLID_18_" class="st0" d="M34,314.2c0-10.9,7-18.1,17.9-18.1c5.5,0,7.6,2.4,9,2.4c0.6,0,0.9-0.4,0.9-1.3
		c0-0.6,0.2-0.6,0.6-0.6h0.4c0.4,0,0.6,0,0.6,0.6c0,2,0.6,6.4,1.3,8.9c-0.1,0.2-0.5,0.3-0.8,0.3s-0.5,0-0.6-0.1
		c-2.6-6.1-6.1-9.1-11.2-9.1c-7.6,0-11.4,6.1-11.4,16.9v0.2c0,10.9,3.9,17.1,11.4,17.1c5.2,0,8.8-3.1,11.4-9.3
		c0.1-0.1,0.3-0.1,0.6-0.1c0.4,0,0.7,0.1,0.8,0.3c-0.7,2.4-1.5,7-1.5,9.1c0,0.6-0.2,0.6-0.6,0.6h-0.4c-0.4,0-0.6,0-0.6-0.6
		c0-0.9-0.4-1.3-0.9-1.3c-1.5,0-3.5,2.4-9,2.4C41,332.5,34,325.1,34,314.2C34,314.3,34,314.2,34,314.2z"/>
	<path id="XMLID_15_" class="st0" d="M78.4,329.2c0,1,0.1,1.6,1.3,1.6h2.4c0.3,0,0.4,0.2,0.4,0.7s-0.1,0.7-0.4,0.7H69.9
		c-0.3,0-0.4-0.2-0.4-0.7s0.1-0.7,0.4-0.7h2.4c1.2,0,1.3-0.6,1.3-1.6v-29.7c0-0.7-0.1-1.2-0.8-1.2c-0.8,0-2.7,0.5-3.4,0.6
		c-0.2-0.1-0.4-0.4-0.4-0.7c0-0.3,0-0.6,0.2-0.7c2.6-0.6,5.8-1.5,7.2-1.9c0.7-0.2,1.3-0.6,1.7-0.6s0.6,0.2,0.6,0.7s-0.2,2-0.2,6.3
		v27.2H78.4z M93.7,329.2c0,1,0.1,1.6,1.3,1.6h2.4c0.3,0,0.4,0.2,0.4,0.7s-0.1,0.7-0.4,0.7H85.8c-0.3,0-0.4-0.2-0.4-0.7
		s0.1-0.7,0.4-0.7h1.8c1.2,0,1.3-0.6,1.3-1.6v-12.4c0-4.1-1.5-5.9-4.2-5.9c-1.7,0-2.8,0.9-3.9,2c-0.4,0-0.7-0.2-0.7-0.7
		c1.5-1.7,3.1-2.8,6.3-2.8c4.1,0,7.4,1.8,7.4,6.8v13H93.7z"/>
	<path id="XMLID_12_" class="st0" d="M107.6,332.7c-3.2,0-5.7-1.4-5.7-5c0-4.2,4.2-6.4,10.5-7.2c0.1,0.1,0.2,0.2,0.2,0.5
		c0,0.2-0.1,0.4-0.2,0.5c-4.2,0.7-5.9,2.8-5.9,5.7c0,2.2,1.3,3.5,3.1,3.5c1.3,0,2.2-0.6,3.1-1.5c0.3,0,0.5,0.1,0.5,0.4
		c0,0.1,0,0.2-0.1,0.3C112.4,330.9,110.7,332.7,107.6,332.7z M105.7,312.4c1.5,0.4,2.2,1.1,2.2,2.6s-1.3,2.6-2.6,2.6
		c-1.7,0-2.6-1.3-2.6-2.8c0-2.9,3.5-5.3,7.9-5.3c5.5,0,8.8,2.2,8.8,7.2c0,4.6-0.2,7.2-0.2,11.6c0,1.8,0.6,2.6,1.7,2.6
		c1.3,0,2.2-0.9,2.9-1.7c0.6,0,0.7,0.6,0.6,0.8c-0.9,1.4-3.1,2.7-5.3,2.7c-3.1,0-4.6-1.7-4.6-5.5c0-2.9,0.2-6.4,0.2-10.9
		c0-4.4-1.3-5.7-4.2-5.7C108.5,310.6,106.8,310.9,105.7,312.4z"/>
	<path id="XMLID_9_" class="st0" d="M133.8,310c0.7-0.2,1.3-0.6,1.7-0.6s0.6,0.2,0.6,0.7c0,0.6-0.2,2-0.2,6.3v12.7
		c0,1,0.1,1.6,1.3,1.6h1.8c0.3,0,0.4,0.2,0.4,0.7s-0.1,0.7-0.4,0.7h-11.6c-0.3,0-0.4-0.2-0.4-0.7s0.1-0.7,0.4-0.7h2.4
		c1.2,0,1.3-0.6,1.3-1.6v-15.4c0-0.7-0.2-1.1-0.7-1.1c-0.6,0-2.5,0.4-2.9,0.5c-0.2-0.1-0.3-0.4-0.3-0.7c0-0.2,0-0.5,0.2-0.7
		C129.7,311.2,132.9,310.3,133.8,310z M151.1,329.2c0,1,0.1,1.6,1.3,1.6h2.4c0.3,0,0.4,0.2,0.4,0.7s-0.1,0.7-0.4,0.7h-11.6
		c-0.3,0-0.4-0.2-0.4-0.7s0.1-0.7,0.4-0.7h1.8c1.2,0,1.3-0.6,1.3-1.6v-12.4c0-4.1-1.5-5.9-4.2-5.9c-1.7,0-2.8,0.9-3.9,2
		c-0.4,0-0.7-0.2-0.7-0.7c1.5-1.7,3.1-2.8,6.3-2.8c4.1,0,7.4,1.8,7.4,6.8v13H151.1z"/>
	<path id="XMLID_3_" class="st0" d="M161.9,336.4c-0.6,0.3-1.3,1.1-1.3,2.3c0,2.8,3.4,4.1,7.7,4.1c3.5,0,7.7-0.7,9.8-2.9
		c0.2-0.1,0.5-0.1,0.7,0c-1,2.3-4.4,6.1-12,6.1c-4.4,0-8.7-1.8-8.7-5.2c0-2.2,1.3-3.7,2.9-4.6C161.5,336.2,161.8,336.2,161.9,336.4z
		 M158.6,317.6c0-4.6,3.5-8,7.9-8.2c0.1,0.1,0.2,0.3,0.2,0.5c0,0.1,0,0.4-0.2,0.5c-2.6,0.4-3.3,3-3.3,7.3c0,4.2,0.7,6.9,3.3,7.3
		c0.1,0.1,0.2,0.3,0.2,0.5s0,0.4-0.2,0.5C162.1,325.7,158.6,322.2,158.6,317.6z M162.1,328.8c0,1.1,1,1.4,3.3,1.5l7.6,0.4
		c5.2,0.3,6.3,3.6,6.3,7.6c-0.1,0.1-0.6,0.1-0.7,0c-0.4-2.9-3.2-3.6-6.4-3.7l-6.8-0.2c-3.4-0.1-5.3-1.4-5.3-3.9
		c0-1.7,1.3-2.9,2.6-3.9c0.2-0.1,0.5-0.1,0.7,0C162.5,327.6,162.1,328.3,162.1,328.8z M176.5,317.6c0,4.6-3.5,8-7.9,8.2
		c-0.1-0.1-0.2-0.3-0.2-0.5c0-0.1,0-0.4,0.2-0.5c2.6-0.4,3.3-3,3.3-7.3c0-4.2-0.7-6.9-3.3-7.3c-0.1-0.1-0.2-0.3-0.2-0.5
		c0-0.2,0-0.4,0.2-0.5C173,309.6,176.5,313,176.5,317.6z M174.8,310c-0.3,0.3-0.6,0.2-0.9-0.1c0.2-3,2.4-5.2,4.5-5.2
		c2.3,0,3.3,1.3,3.3,2.8c0,1.2-0.6,2.4-2.3,2.4c-1.7,0-2.2-1-2.2-1.7c0-0.6,0.5-1.1,0-1.3C176.2,306.4,175,309,174.8,310z"/>
</g>
<g id="XMLID_44_">
</g>
<g id="XMLID_45_">
</g>
<g id="XMLID_46_">
</g>
<g id="XMLID_47_">
</g>
<g id="XMLID_73_">
</g>
<g id="XMLID_74_">
</g>
<g id="XMLID_75_">
</g>
<g id="XMLID_76_">
</g>
<g id="XMLID_77_">
</g>
<g id="XMLID_78_">
</g>
<g id="XMLID_79_">
</g>
<g id="XMLID_80_">
</g>
<g id="XMLID_81_">
</g>
<g id="XMLID_82_">
</g>
<g id="XMLID_83_">
</g>
</svg>
