<?xml version="1.0" encoding="utf-8"?>
<!-- Generator: Adobe Illustrator 19.0.0, SVG Export Plug-In . SVG Version: 6.00 Build 0)  -->
<svg version="1.1" id="圖層_1" xmlns="http://www.w3.org/2000/svg" xmlns:xlink="http://www.w3.org/1999/xlink" x="0px" y="0px"
	 viewBox="0 0 1400 177.2" style="enable-background:new 0 0 1400 177.2;" xml:space="preserve">
<style type="text/css">
	.st0{fill:#231815;}
</style>
<g id="XMLID_14_">
	<path id="XMLID_34_" class="st0" d="M746.9,87.3c-0.2-24.1-8.7-50-33.5-58.3c-15.7-5.3-33.4-0.7-44.9,11.1
		c-9,9.3-13.4,21.9-15,34.6c-2,15.9-0.9,33.7,5.4,48.6c8.2,19.4,27,29.7,47.8,26.9C737.6,145.9,746.7,114.3,746.9,87.3
		c0-2.6-4-2.6-4,0c-0.1,22.6-6,50.6-30.9,57.7c-17.3,4.9-36.5-1.1-46.1-16.7c-7.4-12.1-9.3-27.1-9.2-41.1c0-13.4,2.3-27.5,10-38.8
		c8.7-12.7,24.6-20.1,39.8-17.2c26.7,5,36.2,31.7,36.4,56C742.9,89.8,746.9,89.8,746.9,87.3z"/>
	<g id="XMLID_22_">
		<path id="XMLID_186_" class="st0" d="M698.7,119L676,62.5c-1.1-2.7-2-4.5-2.8-5.4c-0.8-0.9-2.1-1.4-4-1.4h-2
			c-0.4,0-0.7-0.6-0.7-1.4c0-0.8,0.3-1.4,0.7-1.4h26.4c0.4,0,0.7,0.6,0.7,1.4c0,0.8-0.3,1.4-0.7,1.4h-5.1c-2,0-2.7,0.7-2.7,2
			c0,1,0.4,2.3,1,3.7l17.6,44.7l-4.7,12.9H698.7z"/>
		<path id="XMLID_185_" class="st0" d="M730.5,53h-18.6c-0.4,0-0.7,0.6-0.7,1.4c0,0.8,0.3,1.4,0.7,1.4h4.4c2,0,2.9,0.3,2.9,2
			c0,1.4-0.4,2.6-1.2,4.7l-5.9,16c0.4,0.5,1,1,1.7,1c0.5,0,0.8-0.1,1.1-0.2l6.5-16.8c1.1-2.8,2-4.6,2.8-5.5c0.8-0.8,2.1-1.3,4-1.3
			h2.4c0.4,0,0.7-0.6,0.7-1.4C731.1,53.6,730.9,53,730.5,53z"/>
		<path id="XMLID_184_" class="st0" d="M700.6,58.2l23,56.5c1.1,2.7,2,4.5,2.8,5.4s2.1,1.4,4,1.4h2c0.4,0,0.7,0.6,0.7,1.4
			c0,0.8-0.3,1.4-0.7,1.4H706c-0.4,0-0.7-0.6-0.7-1.4c0-0.8,0.3-1.4,0.7-1.4h5.1c2,0,2.7-0.7,2.7-2c0-1-0.4-2.3-1-3.7l-17.9-44.7
			l4.7-12.9H700.6z"/>
		<path id="XMLID_183_" class="st0" d="M687.7,121.5h-4.4c-2,0-2.9-0.3-2.9-2c0-1.4,0.4-2.6,1.2-4.7l5-13.7l0,0l0.3-0.9
			c-0.4-0.5-1-1-1.6-1c-0.5,0-1.2,0.1-1.5,0.2l-6,15.4c-2.1,5.5-3.4,6.8-7.1,6.8h-2c-0.4,0-0.7,0.6-0.7,1.4c0,0.8,0.3,1.4,0.7,1.4
			h18.9c0.4,0,0.7-0.6,0.7-1.4C688.4,122.1,688.1,121.5,687.7,121.5z"/>
	</g>
</g>
</svg>
