<?xml version="1.0" encoding="utf-8"?>
<!-- Generator: Adobe Illustrator 19.0.0, SVG Export Plug-In . SVG Version: 6.00 Build 0)  -->
<svg version="1.1" id="圖層_1" xmlns="http://www.w3.org/2000/svg" xmlns:xlink="http://www.w3.org/1999/xlink" x="0px" y="0px"
	 viewBox="-78 453 297.7 57" style="enable-background:new -78 453 297.7 57;" xml:space="preserve">
<g id="XMLID_2_">
	<path id="XMLID_28_" d="M-62.9,462.9c-1.2-3-1.6-3.7-3.7-3.7h-1.1c-0.3,0-0.3-0.3-0.3-0.7c0-0.5,0-0.8,0.3-0.8h14.4
		c0.3,0,0.4,0.3,0.4,0.7c0,0.5-0.1,0.7-0.4,0.7h-2.8c-1.1,0-1.5,0.4-1.5,1.1c0,0.6,0.2,1.2,0.6,2l9.6,24.3l-2.6,7h-0.6L-62.9,462.9z
		 M-47.2,482.4l7.2-19.5c0.5-1.2,0.6-1.8,0.6-2.6c0-0.9-0.5-1.1-1.6-1.1h-2.4c-0.3,0-0.4-0.3-0.4-0.7c0-0.5,0.1-0.7,0.4-0.7h10.1
		c0.3,0,0.4,0.3,0.4,0.7c0,0.5-0.1,0.7-0.4,0.7h-1.3c-2,0-2.5,0.7-3.7,3.7l-7.7,19.9c-0.1,0-0.3,0.1-0.5,0.1
		C-46.8,482.9-47.1,482.7-47.2,482.4z"/>
	<path id="XMLID_26_" d="M-27.2,479.5c-0.3,0-0.4-0.1-0.4-0.6c0-0.4,0.1-0.6,0.4-0.6h6.6c0.1-0.7,0.1-1.2,0.1-1.8c0-2.9-1.2-5-4-5
		c-3.5,0-5.9,3.7-5.9,9.4c0,6.8,2.4,11.1,7.6,11.1c2.8,0,4.9-1.7,6.2-2.9c0.4-0.1,0.6,0.3,0.6,0.6c0,0.2,0,0.4-0.2,0.6
		c-0.6,0.7-3.1,3.5-8.3,3.5c-5.9,0-11.1-3.7-11.1-11.6c0-6.8,4.8-11.6,11.1-11.6c5.9,0,9,3.5,9,8.5c0,0.4-0.2,0.6-0.6,0.6h-11.1
		C-27.2,479.7-27.2,479.5-27.2,479.5z"/>
	<path id="XMLID_23_" d="M-4.3,471c0.7-0.2,1.3-0.6,1.7-0.6s0.6,0.2,0.6,0.7c0,0.6-0.2,2-0.2,6.3v12.7c0,1,0.1,1.6,1.3,1.6h3.1
		c0.3,0,0.4,0.2,0.4,0.7s-0.1,0.7-0.4,0.7h-13c-0.3,0-0.4-0.2-0.4-0.7s0.1-0.7,0.4-0.7h2.4c1.2,0,1.3-0.6,1.3-1.6v-15.4
		c0-0.7-0.2-1.1-0.7-1.1c-0.6,0-2.5,0.4-2.9,0.5c-0.2-0.1-0.3-0.4-0.3-0.7c0-0.2,0-0.5,0.2-0.7C-8.4,472.2-5.2,471.3-4.3,471z
		 M-0.1,474.7c-0.4,0-0.7-0.3-0.7-0.7c1.8-2.6,3.5-3.5,5.9-3.5s4.2,1.4,4.2,3.6c0,2-1.3,3.2-2.9,3.2c-1.7,0-2.6-1.1-2.6-2.2
		c0-1.5,0.9-1.7,0.9-2.6c0-0.4-0.4-0.6-0.9-0.6C2.3,471.9,0.9,473.3-0.1,474.7z"/>
	<path id="XMLID_20_" d="M18.2,493.7c-3.2,0-5.7-1.4-5.7-5c0-4.2,4.2-6.4,10.5-7.2c0.1,0.1,0.2,0.2,0.2,0.5c0,0.2-0.1,0.4-0.2,0.5
		c-4.2,0.7-5.9,2.8-5.9,5.7c0,2.2,1.3,3.5,3.1,3.5c1.3,0,2.2-0.6,3.1-1.5c0.3,0,0.5,0.1,0.5,0.4c0,0.1,0,0.2-0.1,0.3
		C23.1,491.9,21.3,493.7,18.2,493.7z M16.4,473.4c1.5,0.4,2.2,1.1,2.2,2.6s-1.3,2.6-2.6,2.6c-1.7,0-2.6-1.3-2.6-2.8
		c0-2.9,3.5-5.3,7.9-5.3c5.5,0,8.8,2.2,8.8,7.2c0,4.6-0.2,7.2-0.2,11.6c0,1.8,0.6,2.6,1.7,2.6c1.3,0,2.2-0.9,2.9-1.7
		c0.6,0,0.7,0.6,0.6,0.8c-0.9,1.4-3.1,2.7-5.3,2.7c-3.1,0-4.6-1.7-4.6-5.5c0-2.9,0.2-6.4,0.2-10.9c0-4.4-1.3-5.7-4.2-5.7
		C19.1,471.6,17.5,471.9,16.4,473.4z"/>
	<path id="XMLID_18_" d="M50,475.2c0-10.9,7-18.1,17.9-18.1c5.5,0,7.6,2.4,9,2.4c0.6,0,0.9-0.4,0.9-1.3c0-0.6,0.2-0.6,0.6-0.6h0.4
		c0.4,0,0.6,0,0.6,0.6c0,2,0.6,6.4,1.3,8.9c-0.1,0.2-0.5,0.3-0.8,0.3c-0.3,0-0.5,0-0.6-0.1c-2.6-6.1-6.1-9.1-11.2-9.1
		c-7.6,0-11.4,6.1-11.4,16.9v0.2c0,10.9,3.9,17.1,11.4,17.1c5.2,0,8.8-3.1,11.4-9.3c0.1-0.1,0.3-0.1,0.6-0.1c0.4,0,0.7,0.1,0.8,0.3
		c-0.7,2.4-1.5,7-1.5,9.1c0,0.6-0.2,0.6-0.6,0.6h-0.4c-0.4,0-0.6,0-0.6-0.6c0-0.9-0.4-1.3-0.9-1.3c-1.5,0-3.5,2.4-9,2.4
		C57,493.5,50,486.1,50,475.2C50,475.3,50,475.2,50,475.2z"/>
	<path id="XMLID_15_" d="M94.4,490.2c0,1,0.1,1.6,1.3,1.6h2.4c0.3,0,0.4,0.2,0.4,0.7s-0.1,0.7-0.4,0.7H85.9c-0.3,0-0.4-0.2-0.4-0.7
		s0.1-0.7,0.4-0.7h2.4c1.2,0,1.3-0.6,1.3-1.6v-29.7c0-0.7-0.1-1.2-0.8-1.2c-0.8,0-2.7,0.5-3.4,0.6c-0.2-0.1-0.4-0.4-0.4-0.7
		s0-0.6,0.2-0.7c2.6-0.6,5.8-1.5,7.2-1.9c0.7-0.2,1.3-0.6,1.7-0.6c0.4,0,0.6,0.2,0.6,0.7s-0.2,2-0.2,6.3L94.4,490.2L94.4,490.2
		L94.4,490.2z M109.7,490.2c0,1,0.1,1.6,1.3,1.6h2.4c0.3,0,0.4,0.2,0.4,0.7s-0.1,0.7-0.4,0.7h-11.6c-0.3,0-0.4-0.2-0.4-0.7
		s0.1-0.7,0.4-0.7h1.8c1.2,0,1.3-0.6,1.3-1.6v-12.4c0-4.1-1.5-5.9-4.2-5.9c-1.7,0-2.8,0.9-3.9,2c-0.4,0-0.7-0.2-0.7-0.7
		c1.5-1.7,3.1-2.8,6.3-2.8c4.1,0,7.4,1.8,7.4,6.8L109.7,490.2L109.7,490.2L109.7,490.2z"/>
	<path id="XMLID_12_" d="M123.6,493.7c-3.2,0-5.7-1.4-5.7-5c0-4.2,4.2-6.4,10.5-7.2c0.1,0.1,0.2,0.2,0.2,0.5c0,0.2-0.1,0.4-0.2,0.5
		c-4.2,0.7-5.9,2.8-5.9,5.7c0,2.2,1.3,3.5,3.1,3.5c1.3,0,2.2-0.6,3.1-1.5c0.3,0,0.5,0.1,0.5,0.4c0,0.1,0,0.2-0.1,0.3
		C128.4,491.9,126.7,493.7,123.6,493.7z M121.7,473.4c1.5,0.4,2.2,1.1,2.2,2.6s-1.3,2.6-2.6,2.6c-1.7,0-2.6-1.3-2.6-2.8
		c0-2.9,3.5-5.3,7.9-5.3c5.5,0,8.8,2.2,8.8,7.2c0,4.6-0.2,7.2-0.2,11.6c0,1.8,0.6,2.6,1.7,2.6c1.3,0,2.2-0.9,2.9-1.7
		c0.6,0,0.7,0.6,0.6,0.8c-0.9,1.4-3.1,2.7-5.3,2.7c-3.1,0-4.6-1.7-4.6-5.5c0-2.9,0.2-6.4,0.2-10.9c0-4.4-1.3-5.7-4.2-5.7
		C124.5,471.6,122.8,471.9,121.7,473.4z"/>
	<path id="XMLID_9_" d="M149.8,471c0.7-0.2,1.3-0.6,1.7-0.6c0.4,0,0.6,0.2,0.6,0.7c0,0.6-0.2,2-0.2,6.3v12.7c0,1,0.1,1.6,1.3,1.6
		h1.8c0.3,0,0.4,0.2,0.4,0.7s-0.1,0.7-0.4,0.7h-11.6c-0.3,0-0.4-0.2-0.4-0.7s0.1-0.7,0.4-0.7h2.4c1.2,0,1.3-0.6,1.3-1.6v-15.4
		c0-0.7-0.2-1.1-0.7-1.1c-0.6,0-2.5,0.4-2.9,0.5c-0.2-0.1-0.3-0.4-0.3-0.7c0-0.2,0-0.5,0.2-0.7C145.7,472.2,148.9,471.3,149.8,471z
		 M167.1,490.2c0,1,0.1,1.6,1.3,1.6h2.4c0.3,0,0.4,0.2,0.4,0.7s-0.1,0.7-0.4,0.7h-11.6c-0.3,0-0.4-0.2-0.4-0.7s0.1-0.7,0.4-0.7h1.8
		c1.2,0,1.3-0.6,1.3-1.6v-12.4c0-4.1-1.5-5.9-4.2-5.9c-1.7,0-2.8,0.9-3.9,2c-0.4,0-0.7-0.2-0.7-0.7c1.5-1.7,3.1-2.8,6.3-2.8
		c4.1,0,7.4,1.8,7.4,6.8v13L167.1,490.2L167.1,490.2z"/>
	<path id="XMLID_3_" d="M177.9,497.4c-0.6,0.3-1.3,1.1-1.3,2.3c0,2.8,3.4,4.1,7.7,4.1c3.5,0,7.7-0.7,9.8-2.9c0.2-0.1,0.5-0.1,0.7,0
		c-1,2.3-4.4,6.1-12,6.1c-4.4,0-8.7-1.8-8.7-5.2c0-2.2,1.3-3.7,2.9-4.6C177.5,497.2,177.8,497.2,177.9,497.4z M174.6,478.6
		c0-4.6,3.5-8,7.9-8.2c0.1,0.1,0.2,0.3,0.2,0.5c0,0.1,0,0.4-0.2,0.5c-2.6,0.4-3.3,3-3.3,7.3c0,4.2,0.7,6.9,3.3,7.3
		c0.1,0.1,0.2,0.3,0.2,0.5s0,0.4-0.2,0.5C178.1,486.7,174.6,483.2,174.6,478.6z M178.1,489.8c0,1.1,1,1.4,3.3,1.5l7.6,0.4
		c5.2,0.3,6.3,3.6,6.3,7.6c-0.1,0.1-0.6,0.1-0.7,0c-0.4-2.9-3.2-3.6-6.4-3.7l-6.8-0.2c-3.4-0.1-5.3-1.4-5.3-3.9
		c0-1.7,1.3-2.9,2.6-3.9c0.2-0.1,0.5-0.1,0.7,0C178.5,488.6,178.1,489.3,178.1,489.8z M192.5,478.6c0,4.6-3.5,8-7.9,8.2
		c-0.1-0.1-0.2-0.3-0.2-0.5c0-0.1,0-0.4,0.2-0.5c2.6-0.4,3.3-3,3.3-7.3c0-4.2-0.7-6.9-3.3-7.3c-0.1-0.1-0.2-0.3-0.2-0.5
		s0-0.4,0.2-0.5C189,470.6,192.5,474,192.5,478.6z M190.8,471c-0.3,0.3-0.6,0.2-0.9-0.1c0.2-3,2.4-5.2,4.5-5.2
		c2.3,0,3.3,1.3,3.3,2.8c0,1.2-0.6,2.4-2.3,2.4c-1.7,0-2.2-1-2.2-1.7c0-0.6,0.5-1.1,0-1.3C192.2,467.4,191,470,190.8,471z"/>
</g>
<g id="XMLID_44_">
</g>
<g id="XMLID_45_">
</g>
<g id="XMLID_46_">
</g>
<g id="XMLID_47_">
</g>
<g id="XMLID_73_">
</g>
<g id="XMLID_74_">
</g>
<g id="XMLID_75_">
</g>
<g id="XMLID_76_">
</g>
<g id="XMLID_77_">
</g>
<g id="XMLID_78_">
</g>
<g id="XMLID_79_">
</g>
<g id="XMLID_80_">
</g>
<g id="XMLID_81_">
</g>
<g id="XMLID_82_">
</g>
<g id="XMLID_83_">
</g>
</svg>
