<?xml version="1.0" encoding="utf-8"?>
<!-- Generator: Adobe Illustrator 19.0.0, SVG Export Plug-In . SVG Version: 6.00 Build 0)  -->
<svg version="1.1" id="圖層_1" xmlns="http://www.w3.org/2000/svg" xmlns:xlink="http://www.w3.org/1999/xlink" x="0px" y="0px"
	 viewBox="-222.7 292 143.2 57" style="enable-background:new -222.7 292 143.2 57;" xml:space="preserve">
<style type="text/css">
	.st0{fill:#FFFFFF;}
</style>
<g id="XMLID_44_">
</g>
<g id="XMLID_83_">
</g>
<g id="XMLID_84_">
</g>
<g id="XMLID_85_">
</g>
<g id="XMLID_86_">
</g>
<g id="XMLID_87_">
</g>
<g id="XMLID_88_">
</g>
<g id="XMLID_89_">
</g>
<g id="XMLID_90_">
</g>
<g id="XMLID_91_">
</g>
<g id="XMLID_92_">
</g>
<g id="XMLID_93_">
</g>
<g id="XMLID_94_">
</g>
<g id="XMLID_95_">
</g>
<g id="XMLID_96_">
</g>
<g>
	<path class="st0" d="M-204.6,335.2l-8.9-24c-0.4-1.2-0.8-1.9-1.2-2.3c-0.4-0.4-0.9-0.5-1.7-0.5h-0.9c-0.2,0-0.3-0.3-0.3-0.6
		c0-0.3,0.1-0.6,0.3-0.6h11.2c0.2,0,0.3,0.3,0.3,0.6c0,0.3-0.1,0.6-0.3,0.6h-2.2c-0.9,0-1.2,0.3-1.2,0.9c0,0.4,0.3,1,0.4,1.6l6.8,19
		l-2,5.5H-204.6z M-188.1,335.2l-8.1-20.5l-4.8,12c-0.1,0-0.2,0.1-0.4,0.1c-0.3,0-0.5-0.2-0.6-0.4l5-13.5l-0.7-1.9
		c-0.5-1.2-0.9-1.9-1.2-2.3c-0.3-0.3-0.9-0.5-1.7-0.5h-0.7c-0.2,0-0.3-0.3-0.3-0.6c0-0.3,0.1-0.6,0.3-0.6h11.1
		c0.2,0,0.3,0.3,0.3,0.6c0,0.3-0.1,0.6-0.3,0.6h-2.2c-0.9,0-1.2,0.3-1.2,0.9c0,0.4,0.2,1,0.4,1.6l7.3,19l-2,5.5H-188.1z
		 M-185.6,326.4l5-15c0.3-0.9,0.5-1.9,0.5-2.3c0-0.6-0.4-0.8-1.2-0.8h-2c-0.2,0-0.3-0.3-0.3-0.6c0-0.3,0.1-0.6,0.3-0.6h8.1
		c0.2,0,0.3,0.3,0.3,0.6c0,0.3-0.1,0.6-0.3,0.6h-1c-1.6,0-2.1,0.8-2.9,3.2l-5.5,15.3c-0.1,0-0.2,0.1-0.4,0.1
		C-185.2,326.8-185.4,326.6-185.6,326.4z"/>
	<path class="st0" d="M-171.9,331.5c0.5,1.5,1.6,2.6,3.3,3c0.2,0,0.2,0.2,0.2,0.4c0,0.1,0,0.3-0.2,0.4c-2.5-0.1-4.5-1.1-5.9-2.9
		c-1.4-1.8-2.2-3.8-2.2-6.2c0-2.4,0.7-4.5,2.2-6.2s3.4-2.7,5.9-2.8c0.2,0,0.2,0.2,0.2,0.4c0,0.2,0,0.3-0.2,0.4
		c-1.7,0.4-2.8,1.4-3.3,3s-0.7,3.3-0.7,5.4S-172.4,329.9-171.9,331.5z M-163.4,331.5c0.5-1.5,0.7-3.3,0.7-5.4s-0.3-3.8-0.7-5.4
		c-0.5-1.5-1.6-2.6-3.3-3c-0.2,0-0.2-0.2-0.2-0.4c0-0.1,0-0.3,0.2-0.4c2.5,0.1,4.5,1.1,5.9,2.8c1.4,1.8,2.2,3.9,2.2,6.2
		c0,2.4-0.7,4.4-2.2,6.2c-1.4,1.8-3.4,2.7-5.9,2.9c-0.1,0-0.2-0.2-0.2-0.4c0-0.2,0-0.3,0.2-0.4C-165,334-163.9,333-163.4,331.5z"/>
	<path class="st0" d="M-152.5,318.1c1-0.3,1.7-0.5,2.1-0.6c0.5-0.2,1-0.4,1.3-0.4s0.4,0.1,0.4,0.6s-0.1,1.6-0.1,4.9v9.9
		c0,0.8,0.1,1.2,1,1.2h2.4c0.2,0,0.3,0.2,0.3,0.5s-0.1,0.5-0.3,0.5h-10.1c-0.2,0-0.3-0.2-0.3-0.5s0.1-0.5,0.3-0.5h1.9
		c0.9,0,1-0.5,1-1.2v-12.1c0-0.6-0.1-0.9-0.6-0.9c-0.3,0-2.1,0.3-2.2,0.4c-0.1,0-0.2-0.3-0.2-0.5c0-0.2,0-0.4,0.1-0.5
		C-154.5,318.6-153.5,318.4-152.5,318.1z M-147.1,320.4c-0.3,0-0.6-0.3-0.6-0.6c1.4-2,2.7-2.7,4.6-2.7c1.9,0,3.3,1.1,3.3,2.8
		c0,1.6-1,2.5-2.3,2.5s-2-0.9-2-1.7c0-1.3,0.7-1.2,0.7-2c0-0.3-0.3-0.4-0.7-0.4C-145.2,318.2-146.3,319.3-147.1,320.4z"/>
	<path class="st0" d="M-132.3,332.5c0,0.8,0.1,1.2,1,1.2h1.6c0.2,0,0.3,0.2,0.3,0.5s-0.1,0.5-0.3,0.5h-9.2c-0.2,0-0.3-0.2-0.3-0.5
		s0.1-0.5,0.3-0.5h1.9c0.9,0,1-0.5,1-1.2v-23.2c0-0.6-0.1-0.9-0.6-0.9c-0.5,0-2.3,0.4-2.8,0.5c-0.1,0-0.2-0.3-0.2-0.5
		c0-0.2,0-0.4,0.2-0.5c1-0.3,2.1-0.5,3.2-0.8c1.1-0.3,1.9-0.5,2.4-0.7c0.6-0.2,1-0.4,1.3-0.4s0.4,0.1,0.4,0.6s-0.1,1.6-0.1,4.9
		V332.5z M-127.3,334.8c-0.2,0-0.3-0.2-0.3-0.5s0.1-0.5,0.3-0.5h1.3c0.3,0,0.6-0.2,0.6-0.5s-0.2-0.5-0.4-0.9l-4.5-5.8
		c-0.3-0.4-0.5-0.7-0.5-0.9c0-0.2,0.1-0.4,0.3-0.6l4.2-4.2c1-1,1.3-1.4,1.3-1.9c0-0.3-0.2-0.5-0.8-0.5h-1.9c-0.2,0-0.3-0.2-0.3-0.5
		c0-0.3,0.1-0.5,0.3-0.5h8.4c0.2,0,0.3,0.2,0.3,0.5c0,0.3-0.1,0.5-0.3,0.5h-0.7c-1.8,0-2.2,0.4-3.5,1.5l-4.3,3.9l6.5,8.4
		c0.9,1.2,1.6,1.4,3,1.4h0.3c0.2,0,0.3,0.2,0.3,0.5s-0.1,0.5-0.3,0.5H-127.3z"/>
	<path class="st0" d="M-105.5,331.2c0-2.4-1.6-3.7-4.8-4.1c-3.2-0.3-4.8-2.1-4.8-5.3c0-2.9,2.3-4.8,5.5-4.8c2.2,0,3.2,0.6,4.3,0.6
		c0.7,0,0.7-0.6,1-0.6h0.1c0.3,0,0.3,0.1,0.3,0.4v0.9c0,1,0.3,3.2,0.6,4c-0.1,0.3-0.6,0.5-0.9,0.3c-1.3-3.5-3.3-4.8-5.5-4.8
		c-1.7,0-2.9,1-2.9,2.7c0,2.2,1.7,3.4,5,3.7c3.3,0.3,5,2.1,5,5.3c0,1.6-0.6,2.9-1.8,3.9s-2.7,1.5-4.6,1.5c-1.7,0-3.3-0.4-4.3-1
		c-0.4,0.4-1,1-1.3,1c-0.2,0-0.3,0-0.4-0.1v-0.4c0-1.9-0.3-3.9-1-5.6c0.1-0.3,0.8-0.3,1-0.1c1.3,3.2,3.5,5.3,6,5.3
		C-106.8,334.2-105.5,333.2-105.5,331.2z"/>
</g>
</svg>
