<?xml version="1.0" encoding="utf-8"?>
<!-- Generator: Adobe Illustrator 19.0.0, SVG Export Plug-In . SVG Version: 6.00 Build 0)  -->
<svg version="1.1" id="圖層_1" xmlns="http://www.w3.org/2000/svg" xmlns:xlink="http://www.w3.org/1999/xlink" x="0px" y="0px"
	 viewBox="-155 453 143.2 57" style="enable-background:new -155 453 143.2 57;" xml:space="preserve">
<style type="text/css">
	.st0{fill:#B5B5B6;}
</style>
<g id="XMLID_44_">
</g>
<g id="XMLID_83_">
</g>
<g id="XMLID_84_">
</g>
<g id="XMLID_85_">
</g>
<g id="XMLID_86_">
</g>
<g id="XMLID_87_">
</g>
<g id="XMLID_88_">
</g>
<g id="XMLID_89_">
</g>
<g id="XMLID_90_">
</g>
<g id="XMLID_91_">
</g>
<g id="XMLID_92_">
</g>
<g id="XMLID_93_">
</g>
<g id="XMLID_94_">
</g>
<g id="XMLID_95_">
</g>
<g id="XMLID_96_">
</g>
<g>
	<path class="st0" d="M-127.9,496l-8.9-24c-0.4-1.2-0.8-1.9-1.2-2.3s-0.9-0.5-1.7-0.5h-0.9c-0.2,0-0.3-0.3-0.3-0.6
		c0-0.3,0.1-0.6,0.3-0.6h11.2c0.2,0,0.3,0.3,0.3,0.6c0,0.3-0.1,0.6-0.3,0.6h-2.2c-0.9,0-1.2,0.3-1.2,0.9c0,0.4,0.3,1,0.4,1.6l6.8,19
		l-2,5.5h-0.3V496z M-111.4,496l-8.1-20.5l-4.8,12c-0.1,0-0.2,0.1-0.4,0.1c-0.3,0-0.5-0.2-0.6-0.4l5-13.5l-0.7-1.9
		c-0.5-1.2-0.9-1.9-1.2-2.3c-0.3-0.3-0.9-0.5-1.7-0.5h-0.7c-0.2,0-0.3-0.3-0.3-0.6c0-0.3,0.1-0.6,0.3-0.6h11.1
		c0.2,0,0.3,0.3,0.3,0.6c0,0.3-0.1,0.6-0.3,0.6h-2.2c-0.9,0-1.2,0.3-1.2,0.9c0,0.4,0.2,1,0.4,1.6l7.3,19l-2,5.5L-111.4,496
		L-111.4,496z M-108.9,487.2l5-15c0.3-0.9,0.5-1.9,0.5-2.3c0-0.6-0.4-0.8-1.2-0.8h-2c-0.2,0-0.3-0.3-0.3-0.6c0-0.3,0.1-0.6,0.3-0.6
		h8.1c0.2,0,0.3,0.3,0.3,0.6c0,0.3-0.1,0.6-0.3,0.6h-1c-1.6,0-2.1,0.8-2.9,3.2l-5.5,15.3c-0.1,0-0.2,0.1-0.4,0.1
		C-108.5,487.6-108.7,487.4-108.9,487.2z"/>
	<path class="st0" d="M-95.2,492.3c0.5,1.5,1.6,2.6,3.3,3c0.2,0,0.2,0.2,0.2,0.4c0,0.1,0,0.3-0.2,0.4c-2.5-0.1-4.5-1.1-5.9-2.9
		s-2.2-3.8-2.2-6.2c0-2.4,0.7-4.5,2.2-6.2s3.4-2.7,5.9-2.8c0.2,0,0.2,0.2,0.2,0.4c0,0.2,0,0.3-0.2,0.4c-1.7,0.4-2.8,1.4-3.3,3
		s-0.7,3.3-0.7,5.4S-95.7,490.7-95.2,492.3z M-86.7,492.3c0.5-1.5,0.7-3.3,0.7-5.4s-0.3-3.8-0.7-5.4c-0.5-1.5-1.6-2.6-3.3-3
		c-0.2,0-0.2-0.2-0.2-0.4c0-0.1,0-0.3,0.2-0.4c2.5,0.1,4.5,1.1,5.9,2.8c1.4,1.8,2.2,3.9,2.2,6.2c0,2.4-0.7,4.4-2.2,6.2
		c-1.4,1.8-3.4,2.7-5.9,2.9c-0.1,0-0.2-0.2-0.2-0.4c0-0.2,0-0.3,0.2-0.4C-88.3,494.8-87.2,493.8-86.7,492.3z"/>
	<path class="st0" d="M-75.8,478.9c1-0.3,1.7-0.5,2.1-0.6c0.5-0.2,1-0.4,1.3-0.4s0.4,0.1,0.4,0.6s-0.1,1.6-0.1,4.9v9.9
		c0,0.8,0.1,1.2,1,1.2h2.4c0.2,0,0.3,0.2,0.3,0.5s-0.1,0.5-0.3,0.5h-10.1c-0.2,0-0.3-0.2-0.3-0.5s0.1-0.5,0.3-0.5h1.9
		c0.9,0,1-0.5,1-1.2v-12.1c0-0.6-0.1-0.9-0.6-0.9c-0.3,0-2.1,0.3-2.2,0.4c-0.1,0-0.2-0.3-0.2-0.5s0-0.4,0.1-0.5
		C-77.8,479.4-76.8,479.2-75.8,478.9z M-70.4,481.2c-0.3,0-0.6-0.3-0.6-0.6c1.4-2,2.7-2.7,4.6-2.7c1.9,0,3.3,1.1,3.3,2.8
		c0,1.6-1,2.5-2.3,2.5s-2-0.9-2-1.7c0-1.3,0.7-1.2,0.7-2c0-0.3-0.3-0.4-0.7-0.4C-68.5,479-69.6,480.1-70.4,481.2z"/>
	<path class="st0" d="M-55.6,493.3c0,0.8,0.1,1.2,1,1.2h1.6c0.2,0,0.3,0.2,0.3,0.5s-0.1,0.5-0.3,0.5h-9.2c-0.2,0-0.3-0.2-0.3-0.5
		s0.1-0.5,0.3-0.5h1.9c0.9,0,1-0.5,1-1.2v-23.2c0-0.6-0.1-0.9-0.6-0.9s-2.3,0.4-2.8,0.5c-0.1,0-0.2-0.3-0.2-0.5s0-0.4,0.2-0.5
		c1-0.3,2.1-0.5,3.2-0.8c1.1-0.3,1.9-0.5,2.4-0.7c0.6-0.2,1-0.4,1.3-0.4s0.4,0.1,0.4,0.6s-0.1,1.6-0.1,4.9L-55.6,493.3L-55.6,493.3z
		 M-50.6,495.6c-0.2,0-0.3-0.2-0.3-0.5s0.1-0.5,0.3-0.5h1.3c0.3,0,0.6-0.2,0.6-0.5s-0.2-0.5-0.4-0.9l-4.5-5.8
		c-0.3-0.4-0.5-0.7-0.5-0.9c0-0.2,0.1-0.4,0.3-0.6l4.2-4.2c1-1,1.3-1.4,1.3-1.9c0-0.3-0.2-0.5-0.8-0.5H-51c-0.2,0-0.3-0.2-0.3-0.5
		s0.1-0.5,0.3-0.5h8.4c0.2,0,0.3,0.2,0.3,0.5s-0.1,0.5-0.3,0.5h-0.7c-1.8,0-2.2,0.4-3.5,1.5l-4.3,3.9l6.5,8.4c0.9,1.2,1.6,1.4,3,1.4
		h0.3c0.2,0,0.3,0.2,0.3,0.5s-0.1,0.5-0.3,0.5h-9.3V495.6z"/>
	<path class="st0" d="M-28.8,492c0-2.4-1.6-3.7-4.8-4.1c-3.2-0.3-4.8-2.1-4.8-5.3c0-2.9,2.3-4.8,5.5-4.8c2.2,0,3.2,0.6,4.3,0.6
		c0.7,0,0.7-0.6,1-0.6h0.1c0.3,0,0.3,0.1,0.3,0.4v0.9c0,1,0.3,3.2,0.6,4c-0.1,0.3-0.6,0.5-0.9,0.3c-1.3-3.5-3.3-4.8-5.5-4.8
		c-1.7,0-2.9,1-2.9,2.7c0,2.2,1.7,3.4,5,3.7c3.3,0.3,5,2.1,5,5.3c0,1.6-0.6,2.9-1.8,3.9s-2.7,1.5-4.6,1.5c-1.7,0-3.3-0.4-4.3-1
		c-0.4,0.4-1,1-1.3,1c-0.2,0-0.3,0-0.4-0.1v-0.4c0-1.9-0.3-3.9-1-5.6c0.1-0.3,0.8-0.3,1-0.1c1.3,3.2,3.5,5.3,6,5.3
		C-30.1,495-28.8,494-28.8,492z"/>
</g>
</svg>
